{"glyphs":{"0":{"ha":755,"x_min":36,"x_max":801,"o":"m 721 390 q 574 81 678 176 q 318 -14 469 -14 q 107 90 178 -14 q 75 390 36 193 l 117 597 q 263 906 159 810 q 519 1002 367 1002 q 730 898 659 1002 q 762 597 801 793 l 721 390 m 540 613 q 548 779 564 734 q 486 821 533 824 l 481 821 q 403 774 439 824 q 346 613 368 724 l 298 376 q 289 208 273 252 q 352 167 304 163 l 356 166 q 434 213 398 163 q 492 376 469 262 l 540 613 z "},"1":{"ha":758,"x_min":185,"x_max":659,"o":"m 461 0 l 235 0 l 387 758 l 185 758 l 218 919 l 659 988 l 461 0 z "},"2":{"ha":758,"x_min":9,"x_max":770,"o":"m 659 0 l 9 0 l 33 149 l 381 483 q 480 606 446 552 q 521 701 514 661 q 511 792 530 760 q 442 825 492 825 q 368 781 400 825 q 324 670 335 737 l 103 670 l 102 674 q 223 909 121 817 q 470 1002 324 1002 q 694 921 618 1002 q 749 703 770 840 q 678 536 733 605 q 475 323 623 468 l 338 180 l 340 176 l 687 176 l 659 0 z "},"3":{"ha":758,"x_min":5,"x_max":780,"o":"m 290 528 l 291 533 l 300 589 l 402 589 q 488 623 453 589 q 532 715 522 656 q 519 794 540 764 q 450 825 498 825 q 380 800 414 825 q 340 733 347 774 l 121 733 l 120 737 q 237 931 136 860 q 470 1002 338 1002 q 698 927 616 1002 q 759 720 780 853 q 700 593 747 649 q 581 505 652 537 q 682 416 649 475 q 702 277 714 358 q 570 61 679 136 q 307 -14 462 -14 q 93 59 181 -14 q 31 270 5 132 l 33 274 l 254 274 q 272 193 246 224 q 343 162 298 162 q 431 196 393 162 q 476 281 468 231 q 461 388 488 356 q 375 419 435 419 l 273 419 l 290 528 z "},"4":{"ha":758,"x_min":36,"x_max":768,"o":"m 648 386 l 735 386 l 699 208 l 612 208 l 570 0 l 344 0 l 385 208 l 36 208 l 51 349 l 541 984 l 541 987 l 768 987 l 648 386 m 259 386 l 421 386 l 481 683 l 477 685 l 459 663 l 259 386 z "},"5":{"ha":758,"x_min":26,"x_max":783,"o":"m 94 434 l 236 987 l 783 987 l 754 810 l 392 810 l 337 604 q 400 636 363 624 q 476 650 437 648 q 672 565 614 652 q 705 318 730 478 q 585 80 682 174 q 330 -14 487 -14 q 114 64 201 -14 q 49 270 26 143 l 50 273 l 275 288 q 287 194 264 227 q 357 162 310 162 q 438 207 408 162 q 479 317 469 251 q 475 447 492 401 q 402 492 458 492 q 337 472 365 492 q 296 422 309 452 l 94 434 z "},"6":{"ha":758,"x_min":36,"x_max":746,"o":"m 553 1002 q 648 991 606 1002 q 737 960 690 981 l 673 793 q 600 815 631 808 q 526 822 568 822 q 402 766 456 822 q 332 605 349 710 l 334 602 q 413 649 366 632 q 517 666 460 666 q 691 570 635 666 q 723 327 746 473 q 593 80 699 175 q 343 -14 487 -14 q 116 93 196 -14 q 66 384 36 201 l 97 583 q 254 893 130 785 q 553 1002 379 1002 m 427 491 q 356 479 387 491 q 302 446 324 467 l 292 384 q 295 217 274 272 q 371 162 315 162 q 449 211 413 162 q 496 327 485 260 q 489 448 508 405 q 427 491 469 491 z "},"7":{"ha":758,"x_min":117,"x_max":814,"o":"m 785 811 q 546 486 620 644 q 414 96 472 328 l 389 0 l 163 0 l 187 96 q 333 488 239 307 q 568 811 428 669 l 117 811 l 146 987 l 814 987 l 785 811 z "},"8":{"ha":758,"x_min":26,"x_max":795,"o":"m 769 724 q 708 589 753 645 q 593 502 662 533 q 683 407 654 466 q 697 272 711 347 q 568 55 668 125 q 319 -14 467 -14 q 105 61 184 -14 q 54 272 26 136 q 122 415 70 355 q 252 508 174 475 q 172 598 197 542 q 161 724 147 654 q 285 933 189 865 q 521 1002 380 1002 q 722 928 650 1002 q 769 724 795 854 m 475 290 q 468 386 488 354 q 404 417 449 417 q 329 383 363 417 q 284 290 295 349 q 290 195 271 227 q 355 162 309 162 q 429 197 395 162 q 475 290 463 231 m 541 711 q 538 797 552 768 q 486 825 525 825 q 423 795 450 825 q 387 711 397 764 q 388 623 374 653 q 441 593 401 593 q 503 625 477 593 q 541 711 530 657 z "},"9":{"ha":758,"x_min":85,"x_max":777,"o":"m 313 162 q 419 212 370 162 q 481 347 467 262 l 487 382 q 409 327 452 346 q 323 309 367 309 q 143 401 201 309 q 110 649 85 493 q 240 902 134 802 q 490 1002 346 1002 q 701 893 625 1002 q 747 597 777 784 l 710 363 q 563 85 681 185 q 285 -14 444 -14 q 190 -3 240 -14 q 97 28 139 9 l 146 192 q 225 169 187 176 q 313 162 264 162 m 399 473 q 459 487 431 473 q 509 522 488 500 l 526 626 q 523 776 542 727 q 462 825 505 825 q 383 771 418 825 q 336 649 347 717 q 338 519 323 565 q 399 473 353 473 z "}," ":{"ha":330,"x_min":0,"x_max":0,"o":""},"!":{"ha":371,"x_min":17,"x_max":441,"o":"m 313 350 l 85 350 l 213 987 l 441 987 l 313 350 m 242 0 l 17 0 l 56 192 l 281 192 l 242 0 z "},"\"":{"ha":422,"x_min":92,"x_max":517,"o":"m 271 876 l 186 707 l 92 707 l 116 866 l 147 1058 l 300 1058 l 271 876 m 488 876 l 404 707 l 310 707 l 336 872 l 366 1058 l 517 1058 l 488 876 z "},"#":{"ha":753,"x_min":23,"x_max":812,"o":"m 385 278 l 294 278 l 196 0 l 64 0 l 161 278 l 23 278 l 48 402 l 205 402 l 268 581 l 131 581 l 156 705 l 312 705 l 411 987 l 543 987 l 444 705 l 536 705 l 635 987 l 768 987 l 668 705 l 812 705 l 787 581 l 625 581 l 562 402 l 705 402 l 680 278 l 517 278 l 420 0 l 288 0 l 385 278 m 429 402 l 492 581 l 399 581 l 337 402 l 429 402 z "},"$":{"ha":758,"x_min":33,"x_max":787,"o":"m 469 262 q 460 345 477 317 q 391 403 443 374 q 193 532 252 467 q 156 724 135 597 q 258 916 174 843 q 465 1000 342 988 l 488 1143 l 593 1143 l 570 996 q 732 893 677 977 q 767 682 787 810 l 541 682 q 534 794 553 759 q 477 829 516 829 q 414 799 439 829 q 382 723 389 768 q 391 647 374 675 q 460 588 408 618 q 655 454 597 521 q 694 263 714 387 q 594 71 674 141 q 395 -12 515 1 l 373 -148 l 267 -148 l 289 -11 q 102 84 171 4 q 58 317 33 164 l 283 317 q 294 194 269 229 q 370 159 318 159 q 435 188 409 159 q 469 262 460 216 z "},"%":{"ha":966,"x_min":134,"x_max":914,"o":"m 161 798 q 243 946 180 891 q 408 1002 307 1002 q 547 943 502 1002 q 575 798 592 884 l 565 745 q 482 597 545 652 q 318 543 419 543 q 179 601 224 543 q 151 745 134 660 l 161 798 m 295 745 q 299 688 288 710 q 342 666 311 666 q 392 689 370 666 q 420 745 414 712 l 431 798 q 427 856 438 833 q 384 878 415 878 q 334 854 356 878 q 305 798 312 831 l 295 745 m 483 242 q 566 390 501 335 q 731 446 630 446 q 869 387 825 446 q 897 242 914 328 l 887 190 q 805 41 867 96 q 641 -14 742 -14 q 501 45 547 -14 q 473 190 455 104 l 483 242 m 617 190 q 625 133 610 156 q 665 110 639 110 q 718 132 700 110 q 743 190 736 153 l 753 242 q 748 300 760 277 q 707 322 736 322 q 656 298 678 322 q 627 242 634 275 l 617 190 m 256 74 l 163 127 l 766 899 l 859 846 l 256 74 z "},"&":{"ha":884,"x_min":14,"x_max":833,"o":"m 235 520 q 192 632 204 581 q 189 735 180 683 q 291 929 208 857 q 496 1002 374 1002 q 648 931 593 1002 q 688 764 703 861 q 640 640 677 695 q 545 546 602 584 l 487 507 l 605 324 q 649 404 631 361 q 674 494 667 447 l 833 494 q 785 316 817 394 q 700 178 753 238 l 814 0 l 563 0 l 528 54 q 412 3 468 20 q 292 -14 355 -14 q 86 64 158 -14 q 34 265 14 142 q 93 400 47 347 q 233 519 140 453 l 235 520 m 335 162 q 387 168 360 162 q 441 186 414 174 l 310 389 l 308 388 q 279 336 290 361 q 263 281 268 311 q 276 195 254 227 q 335 162 298 162 m 385 738 q 387 685 380 711 q 412 629 394 659 l 446 650 q 499 697 484 674 q 519 748 515 720 q 510 802 524 779 q 467 825 496 825 q 413 800 435 825 q 385 738 390 775 z "},"'":{"ha":205,"x_min":86,"x_max":293,"o":"m 261 860 l 181 668 l 86 668 l 115 851 l 148 1058 l 293 1058 l 261 860 z "},"(":{"ha":471,"x_min":50,"x_max":547,"o":"m 95 401 q 260 854 138 676 q 521 1084 382 1031 l 525 1084 l 547 977 q 385 770 458 913 q 275 403 311 628 l 271 381 q 262 9 233 146 q 361 -193 290 -127 l 303 -300 l 299 -300 q 115 -65 180 -248 q 92 382 50 118 l 95 401 z "},")":{"ha":469,"x_min":-46,"x_max":466,"o":"m 422 382 q 252 -65 380 119 q -19 -300 123 -248 l -23 -300 l -46 -193 q 116 14 41 -128 q 227 381 191 156 l 231 403 q 239 774 268 637 q 140 977 210 911 l 199 1084 l 203 1084 q 396 844 326 1033 q 426 401 466 654 l 422 382 z "},"*":{"ha":589,"x_min":104,"x_max":650,"o":"m 282 650 l 104 711 l 170 838 l 337 750 l 370 987 l 503 987 l 439 750 l 442 747 l 635 831 l 650 703 l 445 642 l 536 463 l 414 383 l 348 582 l 204 390 l 111 466 l 282 650 z "},"+":{"ha":694,"x_min":45,"x_max":714,"o":"m 506 560 l 714 560 l 675 364 l 467 364 l 414 99 l 203 99 l 256 364 l 45 364 l 85 560 l 295 560 l 347 818 l 557 818 l 506 560 z "},",":{"ha":355,"x_min":-66,"x_max":253,"o":"m 217 -5 l 66 -221 l -66 -221 l 22 1 l 57 172 l 253 172 l 217 -5 z "},"-":{"ha":603,"x_min":113,"x_max":534,"o":"m 498 337 l 113 337 l 149 514 l 534 514 l 498 337 z "},".":{"ha":406,"x_min":30,"x_max":293,"o":"m 254 0 l 30 0 l 68 193 l 293 193 l 254 0 z "},"/":{"ha":457,"x_min":-93,"x_max":589,"o":"m 66 -85 l -93 -85 l 430 987 l 589 987 l 66 -85 z "},":":{"ha":406,"x_min":31,"x_max":403,"o":"m 256 0 l 31 0 l 70 193 l 294 193 l 256 0 m 364 541 l 140 541 l 178 734 l 403 734 l 364 541 z "},";":{"ha":382,"x_min":-37,"x_max":392,"o":"m 353 541 l 129 541 l 168 734 l 392 734 l 353 541 m 245 -5 l 95 -221 l -37 -221 l 51 1 l 85 172 l 281 172 l 245 -5 z "},"<":{"ha":665,"x_min":28,"x_max":673,"o":"m 260 370 l 260 366 l 581 242 l 540 34 l 28 278 l 52 392 l 64 458 l 673 703 l 632 495 l 260 370 z "},"=":{"ha":763,"x_min":66,"x_max":748,"o":"m 713 496 l 125 496 l 160 673 l 748 673 l 713 496 m 654 199 l 66 199 l 101 375 l 689 375 l 654 199 z "},">":{"ha":669,"x_min":22,"x_max":664,"o":"m 433 368 l 433 372 l 115 495 l 156 703 l 664 458 l 641 344 l 628 278 l 22 34 l 64 242 l 433 368 z "},"?":{"ha":671,"x_min":96,"x_max":766,"o":"m 197 282 l 195 286 q 254 424 212 377 q 392 533 295 471 q 470 604 438 562 q 513 701 501 646 q 504 793 524 761 q 434 825 484 825 q 364 797 398 825 q 319 715 330 768 l 98 715 l 96 719 q 225 931 123 860 q 469 1002 326 1002 q 689 919 612 1002 q 739 701 766 836 q 661 543 721 610 q 519 433 602 475 q 452 371 473 404 q 419 282 431 338 l 197 282 m 361 0 l 137 0 l 174 183 l 397 183 l 361 0 z "},"@":{"ha":1143,"x_min":-33,"x_max":1170,"o":"m 1105 353 q 969 94 1069 203 q 713 -14 869 -14 q 632 18 664 -14 q 595 106 601 50 q 514 18 559 47 q 418 -12 469 -12 q 292 70 330 -12 q 294 282 255 152 q 441 555 345 452 q 646 657 538 657 q 766 638 718 657 q 861 585 814 620 l 859 583 l 862 583 l 753 199 q 743 117 739 139 q 763 101 747 96 l 767 100 q 886 170 828 96 q 971 353 944 244 q 960 711 1027 583 q 701 840 893 840 q 380 699 524 840 q 180 324 236 559 q 196 -43 123 92 q 456 -178 269 -178 q 568 -165 506 -178 q 674 -134 630 -153 l 677 -247 q 559 -291 628 -275 q 429 -307 491 -307 q 78 -136 189 -307 q 34 324 -33 36 q 289 786 103 615 q 726 956 475 956 q 1063 791 956 956 q 1105 353 1170 627 m 460 282 q 446 159 438 201 q 488 117 453 117 q 548 138 518 117 q 608 213 577 158 l 694 522 q 672 526 684 524 q 647 528 660 528 q 541 465 587 528 q 460 282 494 403 z "},"A":{"ha":830,"x_min":-51,"x_max":779,"o":"m 538 192 l 265 192 l 176 0 l -51 0 l 439 987 l 682 987 l 779 0 l 551 0 l 538 192 m 347 368 l 526 368 l 505 699 l 500 699 l 347 368 z "},"B":{"ha":840,"x_min":14,"x_max":871,"o":"m 14 0 l 211 987 l 532 987 q 783 918 694 987 q 845 716 871 848 q 789 588 829 642 q 677 507 748 534 q 780 429 754 488 q 791 292 806 370 q 657 70 760 139 q 379 0 554 0 l 14 0 m 326 424 l 276 176 l 414 176 q 514 206 475 176 q 566 294 553 235 q 558 393 578 362 q 476 424 538 424 l 326 424 m 355 576 l 452 576 q 559 607 517 577 q 613 690 601 636 q 598 784 626 758 q 496 811 570 811 l 403 811 l 355 576 z "},"C":{"ha":836,"x_min":36,"x_max":888,"o":"m 804 347 l 806 342 q 665 76 765 166 q 396 -14 566 -14 q 134 101 233 -14 q 71 391 36 216 l 113 597 q 263 896 151 791 q 539 1002 374 1002 q 798 904 707 1002 q 866 639 888 806 l 865 635 l 643 635 q 631 778 659 730 q 519 825 602 825 q 408 763 456 825 q 339 598 359 700 l 298 391 q 304 221 275 281 q 409 162 333 162 q 520 208 478 162 q 584 347 562 253 l 804 347 z "},"D":{"ha":850,"x_min":14,"x_max":882,"o":"m 524 987 q 780 868 677 987 q 847 576 882 749 l 811 398 q 657 103 773 206 q 376 0 541 0 l 14 0 l 211 987 l 524 987 m 403 811 l 276 176 l 396 176 q 516 235 469 176 q 584 398 563 293 l 620 577 q 599 748 641 684 q 473 811 557 811 l 403 811 z "},"E":{"ha":741,"x_min":14,"x_max":857,"o":"m 678 422 l 325 422 l 276 176 l 693 176 l 658 0 l 14 0 l 211 987 l 857 987 l 821 811 l 403 811 l 360 599 l 713 599 l 678 422 z "},"F":{"ha":749,"x_min":14,"x_max":863,"o":"m 680 397 l 320 397 l 241 0 l 14 0 l 211 987 l 863 987 l 827 811 l 403 811 l 355 574 l 715 574 l 680 397 z "},"G":{"ha":860,"x_min":40,"x_max":892,"o":"m 772 136 q 613 31 711 76 q 380 -14 515 -14 q 130 100 220 -14 q 75 391 40 214 l 117 597 q 279 895 155 787 q 570 1002 404 1002 q 815 911 738 1002 q 874 672 892 821 l 873 669 l 659 669 q 638 786 664 747 q 543 825 612 825 q 420 761 478 825 q 342 598 362 696 l 301 391 q 308 221 279 281 q 415 162 338 162 q 500 172 466 162 q 557 199 535 182 l 589 355 l 454 355 l 485 507 l 846 507 l 772 136 z "},"H":{"ha":918,"x_min":14,"x_max":985,"o":"m 788 0 l 562 0 l 642 397 l 320 397 l 241 0 l 14 0 l 211 987 l 438 987 l 355 574 l 677 574 l 760 987 l 985 987 l 788 0 z "},"I":{"ha":396,"x_min":27,"x_max":450,"o":"m 253 0 l 27 0 l 224 987 l 450 987 l 253 0 z "},"J":{"ha":759,"x_min":9,"x_max":827,"o":"m 602 987 l 827 987 l 692 310 q 553 68 660 151 q 304 -14 446 -14 q 85 64 162 -14 q 41 292 9 143 l 43 296 l 264 296 q 271 191 249 220 q 339 162 294 162 q 414 201 376 162 q 466 310 452 241 l 602 987 z "},"K":{"ha":812,"x_min":17,"x_max":959,"o":"m 393 392 l 322 392 l 244 0 l 17 0 l 214 987 l 441 987 l 363 597 l 433 597 l 660 987 l 959 987 l 603 500 l 772 0 l 511 0 l 393 392 z "},"L":{"ha":709,"x_min":14,"x_max":666,"o":"m 276 176 l 666 176 l 631 0 l 14 0 l 211 987 l 438 987 l 276 176 z "},"M":{"ha":1131,"x_min":14,"x_max":1199,"o":"m 509 987 l 564 298 l 568 297 l 901 987 l 1199 987 l 1002 0 l 774 0 l 823 245 l 928 668 l 924 669 l 583 0 l 430 0 l 357 663 l 353 663 l 290 245 l 241 0 l 14 0 l 211 987 l 509 987 z "},"N":{"ha":918,"x_min":14,"x_max":985,"o":"m 788 0 l 562 0 l 366 606 l 362 606 l 241 0 l 14 0 l 211 987 l 438 987 l 633 381 l 637 382 l 759 987 l 985 987 l 788 0 z "},"O":{"ha":892,"x_min":40,"x_max":932,"o":"m 862 405 q 702 97 823 209 q 405 -14 581 -14 q 140 107 239 -14 q 75 405 40 228 l 111 583 q 269 890 151 779 q 562 1002 387 1002 q 830 880 728 1002 q 898 583 932 758 l 862 405 m 672 584 q 652 759 694 692 q 527 825 610 825 q 406 760 453 825 q 337 584 359 694 l 301 405 q 317 228 279 294 q 440 162 355 162 q 564 229 513 162 q 636 405 614 296 l 672 584 z "},"P":{"ha":860,"x_min":14,"x_max":913,"o":"m 308 338 l 241 0 l 14 0 l 211 987 l 590 987 q 828 896 744 987 q 884 663 913 805 q 741 423 853 508 q 460 338 629 338 l 308 338 m 343 515 l 496 515 q 601 556 557 515 q 658 661 645 598 q 646 771 671 730 q 555 811 621 811 l 403 811 l 343 515 z "},"Q":{"ha":926,"x_min":45,"x_max":938,"o":"m 867 405 q 810 236 848 311 q 717 106 772 161 l 836 -46 l 675 -159 l 549 6 q 480 -9 515 -3 q 410 -14 446 -14 q 145 107 245 -14 q 81 405 45 228 l 117 583 q 274 890 156 779 q 568 1002 392 1002 q 836 880 733 1002 q 903 583 938 758 l 867 405 m 677 584 q 657 759 699 692 q 532 825 616 825 q 411 760 458 825 q 342 584 364 694 l 307 405 q 322 228 284 294 q 446 162 361 162 q 569 229 518 162 q 642 405 620 296 l 677 584 z "},"R":{"ha":860,"x_min":14,"x_max":886,"o":"m 317 378 l 241 0 l 14 0 l 211 987 l 569 987 q 803 907 720 987 q 859 691 886 826 q 794 555 842 608 q 665 469 747 502 q 768 380 741 441 q 779 235 795 319 l 766 172 q 759 83 758 132 q 783 14 760 35 l 780 0 l 547 0 q 528 73 526 21 q 541 174 531 125 l 553 233 q 543 343 568 309 q 454 378 519 378 l 317 378 m 352 555 l 485 555 q 579 587 538 555 q 631 677 619 619 q 618 776 643 741 q 534 811 593 811 l 404 811 l 352 555 z "},"S":{"ha":808,"x_min":33,"x_max":838,"o":"m 549 246 q 532 336 561 308 q 418 403 504 364 q 178 540 256 460 q 125 740 100 619 q 256 933 150 865 q 510 1002 362 1002 q 751 920 664 1002 q 808 699 838 839 l 806 695 l 585 695 q 566 790 597 755 q 475 825 534 825 q 396 801 433 825 q 353 741 359 776 q 374 659 341 685 q 519 588 406 633 q 733 456 665 536 q 775 248 801 376 q 645 52 749 117 q 391 -14 541 -14 q 137 60 241 -14 q 68 288 33 134 l 69 292 l 290 292 q 317 190 274 218 q 426 162 360 162 q 504 186 467 162 q 549 246 542 210 z "},"T":{"ha":730,"x_min":123,"x_max":854,"o":"m 819 811 l 583 811 l 421 0 l 194 0 l 356 811 l 123 811 l 158 987 l 854 987 l 819 811 z "},"U":{"ha":903,"x_min":44,"x_max":975,"o":"m 975 987 l 845 340 q 688 73 809 160 q 392 -14 568 -14 q 137 80 229 -14 q 77 340 44 174 l 207 987 l 434 987 l 304 340 q 317 203 285 243 q 427 162 349 162 q 549 206 498 162 q 618 340 600 250 l 747 987 l 975 987 z "},"V":{"ha":833,"x_min":112,"x_max":943,"o":"m 403 268 l 404 237 l 408 237 l 418 265 l 706 987 l 943 987 l 491 0 l 246 0 l 112 987 l 348 987 l 403 268 z "},"W":{"ha":1152,"x_min":118,"x_max":1255,"o":"m 821 372 l 825 372 l 1037 987 l 1255 987 l 890 0 l 677 0 l 623 578 l 618 578 l 381 0 l 168 0 l 118 987 l 338 987 l 353 374 l 357 373 l 608 987 l 765 987 l 821 372 z "},"X":{"ha":835,"x_min":-37,"x_max":926,"o":"m 469 660 l 473 659 l 665 987 l 926 987 l 589 498 l 789 0 l 514 0 l 425 334 l 420 335 l 224 0 l -37 0 l 308 498 l 127 987 l 387 987 l 469 660 z "},"Y":{"ha":837,"x_min":139,"x_max":978,"o":"m 473 572 l 477 571 l 732 987 l 978 987 l 541 349 l 471 0 l 245 0 l 317 361 l 139 987 l 384 987 l 473 572 z "},"Z":{"ha":741,"x_min":-3,"x_max":807,"o":"m 297 176 l 688 176 l 653 0 l 6 0 l -3 103 l 485 811 l 155 811 l 190 987 l 807 987 l 787 888 l 297 176 z "},"[":{"ha":377,"x_min":-18,"x_max":502,"o":"m 475 990 l 406 990 l 236 -71 l 305 -71 l 279 -237 l -18 -237 l 205 1157 l 502 1157 l 475 990 z "},"\\":{"ha":561,"x_min":130,"x_max":525,"o":"m 130 987 l 356 987 l 525 -85 l 298 -85 l 130 987 z "},"]":{"ha":377,"x_min":-72,"x_max":447,"o":"m 151 1157 l 447 1157 l 224 -237 l -72 -237 l -45 -71 l 24 -71 l 195 990 l 125 990 l 151 1157 z "},"^":{"ha":588,"x_min":65,"x_max":609,"o":"m 234 494 l 65 494 l 352 987 l 518 987 l 609 494 l 439 494 l 394 774 l 394 777 l 390 778 l 389 774 l 234 494 z "},"_":{"ha":580,"x_min":-88,"x_max":518,"o":"m 484 -170 l -88 -170 l -54 0 l 518 0 l 484 -170 z "},"`":{"ha":452,"x_min":161,"x_max":496,"o":"m 496 822 l 313 822 l 161 999 l 162 1002 l 393 1002 l 496 822 z "},"a":{"ha":692,"x_min":-6,"x_max":699,"o":"m 391 1 q 382 40 386 19 q 378 83 379 60 q 294 12 340 38 q 189 -14 248 -14 q 46 47 98 -14 q 14 207 -6 109 q 122 379 37 323 q 366 435 207 435 l 436 435 l 447 487 q 444 561 456 538 q 392 584 431 584 q 342 565 361 584 q 315 507 322 546 l 96 508 l 95 512 q 207 683 113 619 q 440 747 300 747 q 630 679 560 747 q 674 486 699 610 l 619 209 q 606 98 606 146 q 615 0 606 51 l 391 1 m 292 149 q 343 162 317 149 q 388 194 369 174 l 412 313 l 343 313 q 275 286 301 313 q 242 219 250 259 q 249 168 235 186 q 292 149 263 149 z "},"b":{"ha":734,"x_min":3,"x_max":747,"o":"m 711 338 q 597 72 674 159 q 387 -14 521 -14 q 293 8 334 -14 q 226 73 252 31 l 199 0 l 3 0 l 214 1058 l 441 1058 l 366 682 q 435 730 398 713 q 513 747 472 747 q 692 634 637 747 q 713 352 747 522 l 711 338 m 488 352 q 501 516 509 460 q 435 571 494 571 q 378 553 406 571 q 330 502 351 534 l 267 189 q 298 168 277 174 q 350 162 318 162 q 436 205 406 162 q 485 338 467 248 l 488 352 z "},"c":{"ha":667,"x_min":13,"x_max":689,"o":"m 334 162 q 395 187 373 162 q 425 261 417 212 l 631 261 l 633 257 q 525 59 615 132 q 307 -14 434 -14 q 84 91 156 -14 q 39 359 13 195 l 41 374 q 169 646 68 545 q 426 747 269 747 q 621 669 553 747 q 665 456 689 590 l 663 453 l 456 453 q 451 540 464 509 q 398 571 439 571 q 313 517 345 571 q 267 374 281 463 l 265 359 q 263 212 250 262 q 334 162 276 162 z "},"d":{"ha":734,"x_min":15,"x_max":827,"o":"m 50 379 q 167 655 86 562 q 378 747 248 747 q 459 727 422 747 q 524 670 496 707 l 601 1058 l 827 1058 l 616 0 l 420 0 l 421 74 q 339 8 382 31 q 250 -14 296 -14 q 74 95 132 -14 q 47 365 15 204 l 50 379 m 275 365 q 264 214 254 266 q 329 162 275 162 q 385 180 357 162 q 435 229 412 197 l 496 532 q 465 562 485 552 q 416 571 445 571 q 331 519 367 571 q 277 379 294 467 l 275 365 z "},"e":{"ha":692,"x_min":27,"x_max":703,"o":"m 328 -14 q 104 88 181 -14 q 52 342 27 191 l 56 368 q 181 645 83 543 q 433 747 278 748 q 636 657 568 747 q 680 415 703 567 l 661 295 l 277 295 l 276 292 q 300 198 273 233 q 387 162 328 162 q 483 173 444 162 q 581 208 522 183 l 612 68 q 486 9 562 33 q 328 -14 410 -14 m 406 571 q 338 536 364 571 q 298 441 312 500 l 300 438 l 462 438 l 465 456 q 460 543 474 514 q 406 571 447 571 z "},"f":{"ha":480,"x_min":47,"x_max":644,"o":"m 47 0 l 162 575 l 66 575 l 97 734 l 194 734 l 210 810 q 320 1008 236 944 q 539 1072 404 1072 q 588 1068 562 1072 q 644 1058 614 1064 l 593 889 q 564 894 577 892 q 532 896 551 896 q 470 873 496 896 q 437 810 444 850 l 421 734 l 550 734 l 519 575 l 389 575 l 275 0 l 47 0 z "},"g":{"ha":734,"x_min":-9,"x_max":762,"o":"m 51 379 q 168 655 87 562 q 377 747 248 747 q 469 723 428 747 q 535 656 509 699 l 564 734 l 762 734 l 621 28 q 479 -212 590 -128 q 203 -296 368 -296 q 95 -280 153 -296 q -9 -239 37 -264 l 62 -69 q 144 -101 103 -91 q 238 -112 184 -112 q 339 -73 296 -112 q 395 30 381 -35 l 398 48 q 327 2 364 18 q 250 -14 290 -14 q 74 95 132 -14 q 48 365 16 204 l 51 379 m 274 365 q 264 214 254 266 q 328 162 274 162 q 385 177 358 162 q 433 221 411 193 l 496 538 q 466 563 486 555 q 416 571 446 571 q 330 519 366 571 q 277 379 294 467 l 274 365 z "},"h":{"ha":734,"x_min":-4,"x_max":735,"o":"m 353 654 q 440 723 393 699 q 540 747 488 747 q 687 667 640 747 q 703 422 735 586 l 618 0 l 392 0 l 477 423 q 479 542 494 513 q 416 571 464 571 q 369 562 391 571 q 330 536 347 553 l 222 0 l -4 0 l 208 1058 l 434 1058 l 353 654 z "},"i":{"ha":367,"x_min":12,"x_max":451,"o":"m 239 0 l 12 0 l 159 734 l 386 734 l 239 0 m 420 904 l 193 904 l 224 1058 l 451 1058 l 420 904 z "},"j":{"ha":357,"x_min":-182,"x_max":450,"o":"m 389 734 l 240 -10 q 128 -227 210 -157 q -81 -296 46 -296 q -132 -294 -107 -296 q -182 -285 -157 -291 l -138 -112 q -108 -118 -120 -116 q -76 -120 -96 -120 q -21 -92 -44 -120 q 13 -10 2 -63 l 161 734 l 389 734 m 420 905 l 192 905 l 222 1058 l 450 1058 l 420 905 z "},"k":{"ha":720,"x_min":3,"x_max":790,"o":"m 317 292 l 288 292 l 229 0 l 3 0 l 214 1058 l 441 1058 l 322 465 l 347 465 l 534 734 l 788 734 l 790 730 l 520 404 l 680 0 l 422 0 l 317 292 z "},"l":{"ha":367,"x_min":12,"x_max":451,"o":"m 239 0 l 12 0 l 224 1058 l 451 1058 l 239 0 z "},"m":{"ha":1116,"x_min":3,"x_max":1116,"o":"m 353 646 q 448 721 395 695 q 564 747 500 747 q 660 719 620 747 q 713 632 700 690 q 811 718 755 688 q 933 747 866 747 q 1071 672 1026 747 q 1086 447 1116 597 l 997 0 l 769 0 l 859 447 q 861 547 873 524 q 810 571 848 571 q 760 559 784 571 q 717 528 736 548 q 714 509 715 518 q 711 490 712 499 l 613 0 l 387 0 l 476 447 q 478 547 491 524 q 426 571 466 571 q 379 560 402 571 q 336 528 356 549 l 230 0 l 3 0 l 150 734 l 363 734 l 353 646 z "},"n":{"ha":734,"x_min":-1,"x_max":742,"o":"m 347 639 q 444 719 390 691 q 558 747 498 747 q 696 676 651 747 q 712 455 742 605 l 621 0 l 395 0 l 486 456 q 482 547 499 523 q 420 571 465 571 q 372 560 395 571 q 330 529 349 549 l 224 0 l -1 0 l 145 734 l 358 734 l 347 639 z "},"o":{"ha":734,"x_min":18,"x_max":737,"o":"m 46 374 q 176 646 73 545 q 438 747 278 747 q 664 642 590 747 q 711 374 737 537 l 709 359 q 579 86 682 187 q 318 -14 477 -14 q 92 91 165 -14 q 44 359 18 195 l 46 374 m 271 359 q 270 213 254 263 q 346 162 285 162 q 435 215 401 162 q 483 359 468 269 l 485 374 q 485 519 500 467 q 410 571 470 571 q 320 516 354 571 q 273 374 286 462 l 271 359 z "},"p":{"ha":734,"x_min":-54,"x_max":747,"o":"m 711 338 q 595 74 675 161 q 387 -14 516 -14 q 303 3 341 -14 q 240 54 266 20 l 173 -282 l -54 -282 l 149 734 l 361 734 l 355 672 q 430 728 390 708 q 513 747 469 747 q 689 633 631 747 q 713 352 747 519 l 711 338 m 488 352 q 497 512 507 454 q 436 571 487 571 q 379 552 406 571 q 329 500 351 534 l 267 188 q 298 168 277 174 q 351 162 319 162 q 434 207 401 162 q 485 338 467 252 l 488 352 z "},"q":{"ha":734,"x_min":15,"x_max":763,"o":"m 50 379 q 167 655 86 562 q 378 747 248 747 q 467 722 427 747 q 534 650 507 696 l 567 734 l 763 734 l 560 -282 l 334 -282 l 401 54 q 328 3 366 21 q 250 -14 290 -14 q 74 95 132 -14 q 47 365 15 204 l 50 379 m 275 365 q 264 214 254 266 q 329 162 275 162 q 386 178 359 162 q 434 222 412 193 l 497 537 q 467 563 487 554 q 416 571 447 571 q 331 519 367 571 q 277 379 294 467 l 275 365 z "},"r":{"ha":488,"x_min":3,"x_max":564,"o":"m 501 532 l 420 532 q 366 519 389 532 q 326 483 342 507 l 229 0 l 3 0 l 149 734 l 363 734 l 351 640 l 354 638 q 421 719 382 691 q 506 747 460 747 q 537 745 520 747 q 564 739 553 743 l 501 532 z "},"s":{"ha":669,"x_min":-2,"x_max":680,"o":"m 397 206 q 378 255 401 234 q 283 293 354 276 q 116 371 169 318 q 78 515 63 424 q 180 682 94 616 q 399 747 267 747 q 606 681 532 747 q 661 513 680 615 l 659 509 l 438 509 q 431 575 445 553 q 375 597 416 597 q 322 577 347 597 q 293 527 298 557 q 310 477 288 497 q 406 441 332 457 q 579 362 528 414 q 616 213 631 309 q 507 48 599 110 q 277 -14 416 -14 q 71 62 143 -14 q 16 231 -2 139 l 18 235 l 223 235 q 237 160 216 182 q 307 137 258 137 q 368 155 345 137 q 397 206 392 174 z "},"t":{"ha":479,"x_min":63,"x_max":526,"o":"m 451 916 l 414 734 l 526 734 l 495 575 l 382 575 l 315 239 q 318 181 307 197 q 353 165 328 165 q 384 166 372 165 q 414 172 395 168 l 396 2 q 329 -11 358 -7 q 259 -14 299 -14 q 110 47 157 -14 q 90 237 63 109 l 157 575 l 64 575 l 95 734 l 189 734 l 225 916 l 451 916 z "},"u":{"ha":734,"x_min":24,"x_max":766,"o":"m 422 0 l 425 79 q 333 9 384 33 q 221 -14 281 -14 q 73 60 121 -14 q 54 286 24 135 l 144 734 l 370 734 l 280 285 q 280 191 267 219 q 332 162 294 162 q 387 172 361 162 q 434 201 412 182 l 540 734 l 766 734 l 620 0 l 422 0 z "},"v":{"ha":675,"x_min":71,"x_max":739,"o":"m 323 302 l 324 235 l 328 234 l 351 302 l 501 734 l 739 734 l 403 0 l 173 0 l 71 734 l 310 734 l 323 302 z "},"w":{"ha":941,"x_min":102,"x_max":1013,"o":"m 655 342 l 659 341 l 804 734 l 1013 734 l 709 0 l 518 0 l 487 365 l 483 366 l 304 0 l 114 0 l 102 734 l 311 734 l 300 340 l 304 339 l 487 734 l 629 734 l 655 342 z "},"x":{"ha":675,"x_min":-43,"x_max":740,"o":"m 371 519 l 375 518 l 486 734 l 740 734 l 487 371 l 629 0 l 375 0 l 331 222 l 327 222 l 210 0 l -43 0 l 218 371 l 80 734 l 332 734 l 371 519 z "},"y":{"ha":675,"x_min":-54,"x_max":767,"o":"m 338 337 l 342 336 l 526 734 l 767 734 l 330 -109 q 219 -244 281 -191 q 48 -296 158 -296 q 2 -292 21 -296 q -54 -279 -16 -288 l 7 -115 q 18 -118 14 -117 q 29 -119 22 -119 q 103 -103 75 -119 q 147 -56 132 -86 l 172 -9 l 87 734 l 328 734 l 338 337 z "},"z":{"ha":675,"x_min":-14,"x_max":711,"o":"m 302 180 l 303 176 l 604 176 l 569 0 l -14 0 l 12 127 l 394 554 l 393 557 l 110 557 l 145 734 l 711 734 l 687 610 l 302 180 z "},"{":{"ha":427,"x_min":35,"x_max":503,"o":"m 267 -244 q 110 -125 149 -207 q 89 72 70 -44 l 111 210 q 103 309 121 275 q 35 342 85 342 l 44 402 l 59 496 q 137 532 106 496 q 178 630 168 567 l 200 768 q 284 967 219 888 q 480 1083 349 1046 l 503 964 q 433 894 457 944 q 396 768 408 844 l 374 630 q 324 502 362 556 q 220 418 286 448 q 296 331 274 385 q 307 210 317 277 l 285 72 q 280 -56 272 -7 q 329 -124 288 -104 l 267 -244 z "},"|":{"ha":342,"x_min":35,"x_max":345,"o":"m 157 -183 l 35 -183 l 222 987 l 345 987 l 157 -183 z "},"}":{"ha":427,"x_min":-36,"x_max":432,"o":"m -36 -124 q 33 -55 9 -104 q 71 72 58 -5 l 92 210 q 142 337 104 283 q 248 422 181 391 q 171 507 193 453 q 160 630 149 562 l 182 768 q 185 896 194 847 q 138 964 177 944 l 199 1083 q 356 965 317 1046 q 377 768 395 884 l 355 630 q 362 530 344 564 q 432 496 381 496 l 414 385 l 414 385 l 408 342 q 328 307 359 342 q 288 210 297 271 l 266 72 q 182 -127 246 -48 q -14 -244 117 -207 l -36 -124 z "},"~":{"ha":818,"x_min":60,"x_max":791,"o":"m 791 522 q 704 323 771 398 q 547 249 636 249 q 455 270 497 249 q 373 337 412 291 q 332 378 349 366 q 290 391 315 391 q 241 356 265 391 q 210 275 218 322 l 60 295 q 146 493 79 418 q 303 567 214 567 q 397 545 351 567 q 479 479 442 522 q 518 438 500 450 q 559 426 536 426 q 608 460 584 426 q 641 543 633 494 l 791 522 z "}," ":{"ha":330,"x_min":0,"x_max":0,"o":""},"¡":{"ha":405,"x_min":-18,"x_max":406,"o":"m 210 -254 l -18 -254 l 110 384 l 338 384 l 210 -254 m 368 542 l 143 542 l 181 734 l 406 734 l 368 542 z "},"¢":{"ha":774,"x_min":50,"x_max":719,"o":"m 368 162 q 429 187 407 162 q 459 261 451 212 l 666 261 l 667 257 q 578 76 652 147 q 397 -10 505 5 l 366 -166 l 233 -166 l 265 -6 q 101 119 152 20 q 73 359 50 218 l 75 374 q 189 631 100 532 q 415 745 277 730 l 446 894 l 578 894 l 547 736 q 676 637 634 711 q 702 453 719 564 l 490 453 q 485 540 498 509 q 432 571 473 571 q 347 517 378 571 q 301 374 315 463 l 299 359 q 297 212 283 262 q 368 162 310 162 z "},"£":{"ha":785,"x_min":52,"x_max":863,"o":"m 420 390 l 415 355 q 374 258 404 303 q 295 176 343 212 l 726 176 l 691 0 l 52 0 l 87 176 l 94 176 q 147 235 123 184 q 182 341 171 285 l 190 390 l 90 390 l 125 566 l 219 566 l 239 692 q 363 924 270 846 q 594 1002 457 1002 q 795 922 728 1002 q 836 717 863 842 l 834 713 l 612 713 q 608 800 624 775 q 558 825 591 825 q 504 790 529 825 q 467 692 479 755 l 448 566 l 644 566 l 609 390 l 420 390 z "},"¤":{"ha":883,"x_min":3,"x_max":937,"o":"m 627 67 q 509 7 571 28 q 382 -14 446 -14 q 271 9 323 -14 q 178 73 218 31 l 77 -18 l 3 80 l 111 176 q 84 288 90 228 q 92 412 79 347 q 136 548 106 485 q 208 663 165 612 l 139 760 l 252 857 l 319 764 q 432 818 372 800 q 553 837 491 837 q 659 816 608 837 q 751 756 710 795 l 863 858 l 937 760 l 821 654 q 849 540 843 602 q 842 412 855 479 q 801 282 828 343 q 736 172 774 222 l 802 80 l 688 -18 l 627 67 m 216 412 q 244 198 189 279 q 409 117 300 117 q 601 203 507 117 q 720 412 694 290 q 689 626 745 545 q 526 707 633 707 q 333 621 427 707 q 216 412 239 534 z "},"¥":{"ha":803,"x_min":62,"x_max":932,"o":"m 465 613 l 469 612 l 687 987 l 932 987 l 606 503 l 734 503 l 707 361 l 528 361 l 514 293 l 692 293 l 665 151 l 486 151 l 456 0 l 230 0 l 260 151 l 62 151 l 90 293 l 288 293 l 302 361 l 104 361 l 132 503 l 285 503 l 153 987 l 398 987 l 465 613 z "},"¦":{"ha":343,"x_min":-18,"x_max":411,"o":"m -18 -183 l 90 356 l 285 356 l 177 -183 l -18 -183 m 309 473 l 113 473 l 216 987 l 411 987 l 309 473 z "},"§":{"ha":831,"x_min":-27,"x_max":861,"o":"m 772 339 q 726 229 759 275 q 642 155 692 184 q 689 73 677 120 q 688 -41 701 25 q 558 -236 661 -172 q 296 -300 456 -300 q 63 -233 153 -300 q 5 -21 -27 -166 l 6 -17 l 227 -17 q 244 -102 214 -81 q 332 -123 273 -123 q 418 -101 383 -123 q 460 -42 452 -79 q 440 21 468 -1 q 325 74 413 43 q 115 180 178 117 q 76 358 53 243 q 122 467 88 421 q 209 543 155 513 q 159 625 172 577 q 160 739 146 673 q 290 934 185 866 q 553 1002 395 1002 q 781 925 702 1002 q 831 717 861 849 l 829 713 l 609 713 q 596 795 619 765 q 518 825 574 825 q 430 801 464 825 q 388 741 395 777 q 403 674 378 695 q 522 624 428 653 q 733 518 671 582 q 772 339 795 454 m 411 442 q 378 453 393 448 q 350 463 363 458 q 322 429 333 448 q 307 385 311 409 q 319 312 296 334 q 435 255 342 289 q 413 261 342 283 q 496 235 484 239 q 527 269 515 250 q 545 313 539 289 q 526 384 553 358 q 411 442 498 409 z "},"¨":{"ha":726,"x_min":184,"x_max":724,"o":"m 702 849 l 511 849 l 534 987 l 724 987 l 702 849 m 375 849 l 184 849 l 207 987 l 397 987 l 375 849 z "},"©":{"ha":1018,"x_min":52,"x_max":1016,"o":"m 718 404 l 719 400 q 642 243 705 294 q 477 191 578 191 q 329 264 379 191 q 298 454 279 337 l 311 534 q 400 726 330 656 q 574 797 471 797 q 719 742 670 797 q 750 587 768 688 l 749 584 l 650 584 q 638 677 661 650 q 559 705 615 705 q 464 658 503 705 q 413 535 425 611 l 400 454 q 410 328 387 373 q 492 283 433 283 q 578 311 545 283 q 621 404 610 340 l 718 404 m 167 494 q 224 190 136 309 q 467 71 311 71 q 743 194 614 71 q 902 494 873 317 q 844 798 931 680 q 602 916 757 916 q 325 793 454 916 q 167 494 195 671 m 87 494 q 274 859 122 716 q 616 1001 427 1001 q 905 853 794 1001 q 983 494 1016 705 q 794 129 947 272 q 454 -14 642 -14 q 163 134 274 -14 q 87 494 52 282 z "},"ª":{"ha":577,"x_min":123,"x_max":602,"o":"m 416 479 q 414 509 414 493 q 416 543 414 526 q 349 490 388 511 q 262 469 311 469 q 158 512 193 469 q 137 624 123 554 q 213 742 153 703 q 378 781 273 781 l 461 781 l 468 815 q 464 881 477 860 q 416 901 452 901 q 353 883 379 901 q 321 834 327 865 l 214 843 l 212 847 q 284 960 223 918 q 436 1002 345 1002 q 559 952 516 1002 q 584 814 602 903 l 541 602 q 532 537 534 566 q 533 479 530 509 l 416 479 m 311 567 q 377 587 339 567 q 431 631 415 608 l 445 701 l 363 701 q 290 679 321 701 q 254 627 259 656 q 261 581 247 595 q 311 567 275 567 z "},"«":{"ha":679,"x_min":44,"x_max":680,"o":"m 210 350 l 298 79 l 162 79 l 44 344 l 45 348 l 47 357 l 271 621 l 407 621 l 210 350 m 483 350 l 572 79 l 435 79 l 317 344 l 318 348 l 320 357 l 544 621 l 680 621 l 483 350 z "},"¬":{"ha":717,"x_min":111,"x_max":663,"o":"m 640 430 l 604 254 l 471 254 l 507 430 l 111 430 l 134 546 l 663 546 l 652 494 l 652 494 l 640 430 z "},"­":{"ha":603,"x_min":113,"x_max":534,"o":"m 498 337 l 113 337 l 149 514 l 534 514 l 498 337 z "},"®":{"ha":1018,"x_min":53,"x_max":1017,"o":"m 87 494 q 275 859 123 716 q 616 1001 427 1001 q 906 853 795 1001 q 983 494 1017 705 q 794 129 947 272 q 454 -14 642 -14 q 163 134 274 -14 q 87 494 53 282 m 168 494 q 224 190 137 309 q 467 71 312 71 q 743 194 614 71 q 902 494 873 317 q 844 798 931 680 q 602 916 757 916 q 325 793 454 916 q 168 494 195 671 m 437 443 l 401 214 l 301 214 l 393 791 l 573 791 q 714 744 665 791 q 751 612 764 696 q 722 543 744 572 q 663 495 701 515 q 705 436 694 473 q 707 349 715 399 l 701 311 q 695 261 696 283 q 699 225 694 239 l 697 214 l 595 214 q 594 257 591 229 q 602 312 597 286 l 608 349 q 599 421 616 399 q 534 443 582 443 l 437 443 m 452 534 l 529 534 q 609 554 574 534 q 651 612 645 575 q 639 682 659 663 q 558 701 618 701 l 479 701 l 452 534 z "},"¯":{"ha":690,"x_min":201,"x_max":687,"o":"m 669 871 l 201 871 l 219 989 l 687 989 l 669 871 z "},"°":{"ha":521,"x_min":170,"x_max":555,"o":"m 185 812 q 265 948 202 895 q 404 1002 328 1002 q 513 945 471 1002 q 540 812 555 888 q 462 676 523 728 q 328 624 401 624 q 214 679 258 624 q 185 812 170 734 m 288 812 q 298 751 280 774 q 349 728 316 728 q 404 752 377 728 q 438 812 431 776 q 430 874 446 850 q 382 899 414 899 q 323 873 353 899 q 288 812 294 848 z "},"±":{"ha":704,"x_min":27,"x_max":695,"o":"m 503 674 l 695 674 l 666 490 l 473 490 l 434 241 l 238 241 l 277 490 l 88 490 l 117 674 l 307 674 l 344 904 l 540 904 l 503 674 m 553 1 l 27 1 l 62 180 l 588 180 l 553 1 z "},"²":{"ha":549,"x_min":109,"x_max":602,"o":"m 514 452 l 109 452 l 131 566 l 361 733 q 415 785 402 764 q 435 835 429 806 q 430 875 439 860 q 394 890 421 890 q 349 871 368 890 q 324 820 330 851 l 179 820 l 178 824 q 257 953 190 903 q 422 1003 323 1003 q 556 958 511 1003 q 587 834 602 913 q 530 731 574 773 q 386 619 486 690 l 326 570 l 328 566 l 536 566 l 514 452 z "},"³":{"ha":541,"x_min":104,"x_max":608,"o":"m 293 772 l 356 772 q 410 788 389 772 q 437 833 431 804 q 431 874 442 859 q 392 890 420 890 q 347 876 365 890 q 326 843 329 861 l 180 843 l 178 847 q 254 963 190 923 q 409 1002 319 1002 q 554 961 501 1002 q 593 847 608 920 q 557 777 585 807 q 486 730 528 746 q 544 681 526 713 q 553 604 562 648 q 473 484 536 523 q 309 444 410 444 q 159 489 215 444 q 123 610 104 534 l 125 614 l 272 614 q 279 571 266 585 q 329 557 293 557 q 377 572 355 557 q 404 615 398 587 q 393 664 410 647 q 338 682 376 682 l 275 682 l 281 712 l 288 745 l 293 772 z "},"´":{"ha":499,"x_min":151,"x_max":538,"o":"m 305 1002 l 536 1002 l 538 998 l 332 822 l 153 822 l 151 825 l 305 1002 z "},"µ":{"ha":844,"x_min":-29,"x_max":827,"o":"m 400 734 l 314 302 q 315 191 298 217 q 383 165 332 165 q 448 181 418 165 q 500 227 477 197 l 602 734 l 827 734 l 681 0 l 468 0 l 471 27 q 408 -4 441 6 q 337 -14 374 -14 q 293 -8 314 -14 q 255 7 273 -3 l 197 -282 l -29 -282 l 174 734 l 400 734 z "},"¶":{"ha":717,"x_min":88,"x_max":767,"o":"m 342 0 l 413 353 l 363 353 q 157 442 225 353 q 116 670 88 532 q 243 903 145 819 q 490 987 340 987 l 767 987 l 570 0 l 342 0 z "},"·":{"ha":430,"x_min":118,"x_max":380,"o":"m 342 366 l 118 366 l 157 558 l 380 558 l 342 366 z "},"¸":{"ha":370,"x_min":-27,"x_max":254,"o":"m 191 7 l 176 -35 q 234 -70 213 -42 q 244 -152 254 -98 q 159 -276 227 -234 q -24 -317 90 -319 l -27 -315 l -7 -194 q 29 -181 14 -194 q 50 -142 45 -168 q 39 -105 55 -115 q -20 -92 24 -95 l 19 7 l 191 7 z "},"¹":{"ha":377,"x_min":186,"x_max":448,"o":"m 338 451 l 186 451 l 271 871 l 192 871 l 215 986 l 448 1002 l 338 451 z "},"º":{"ha":600,"x_min":138,"x_max":633,"o":"m 173 774 q 266 941 195 881 q 438 1002 336 1002 q 583 937 532 1002 q 614 774 633 873 l 598 695 q 506 528 576 588 q 333 469 435 469 q 188 533 239 469 q 157 695 138 597 l 173 774 m 273 695 q 281 601 261 634 q 353 568 300 568 q 435 603 399 568 q 482 695 471 639 l 498 774 q 490 868 509 834 q 418 901 470 901 q 335 865 371 901 q 289 774 300 829 l 273 695 z "},"»":{"ha":679,"x_min":-3,"x_max":642,"o":"m 243 644 l 360 380 l 359 376 l 359 376 l 357 367 l 134 102 l -3 102 l 195 373 l 106 644 l 243 644 m 524 644 l 642 380 l 640 376 l 641 376 l 639 367 l 416 102 l 279 102 l 476 373 l 387 644 l 524 644 z "},"¼":{"ha":911,"x_min":96,"x_max":894,"o":"m 321 450 l 169 450 l 253 870 l 174 870 l 197 985 l 431 1001 l 321 450 m 189 79 l 96 133 l 699 905 l 792 851 l 189 79 m 826 205 l 878 205 l 856 91 l 804 91 l 785 0 l 632 0 l 650 91 l 395 91 l 403 184 l 741 543 l 894 543 l 826 205 m 563 208 l 564 205 l 673 205 l 704 360 l 700 361 l 691 351 l 563 208 z "},"½":{"ha":937,"x_min":88,"x_max":935,"o":"m 182 79 l 88 133 l 691 905 l 785 851 l 182 79 m 305 450 l 153 450 l 237 870 l 159 870 l 182 985 l 415 1001 l 305 450 m 847 0 l 441 0 l 464 113 l 694 281 q 748 333 735 312 q 768 382 762 354 q 763 423 772 408 q 727 438 754 438 q 682 418 701 438 q 657 368 663 399 l 512 368 l 511 372 q 590 501 523 451 q 755 551 656 551 q 889 506 844 551 q 920 382 935 460 q 863 279 907 321 q 719 167 819 237 l 659 117 l 661 113 l 869 113 l 847 0 z "},"¾":{"ha":1057,"x_min":87,"x_max":1009,"o":"m 336 79 l 242 133 l 845 905 l 939 851 l 336 79 m 941 205 l 994 205 l 971 91 l 919 91 l 901 0 l 747 0 l 766 91 l 511 91 l 518 184 l 856 543 l 1009 543 l 941 205 m 678 208 l 680 205 l 788 205 l 819 360 l 815 361 l 806 351 l 678 208 m 276 773 l 339 773 q 393 789 372 773 q 420 834 414 805 q 414 875 425 859 q 375 890 404 890 q 330 876 348 890 q 309 844 312 862 l 163 844 l 161 848 q 237 963 173 924 q 392 1003 302 1003 q 537 962 484 1003 q 576 848 591 921 q 540 777 568 808 q 469 730 511 747 q 527 681 509 713 q 536 605 545 649 q 456 484 519 524 q 292 445 393 445 q 142 490 198 445 q 106 611 87 534 l 108 615 l 255 615 q 262 572 249 585 q 312 558 276 558 q 360 573 338 558 q 387 616 381 587 q 376 665 393 648 q 321 682 359 682 l 258 682 l 264 713 l 271 746 l 276 773 z "},"¿":{"ha":673,"x_min":-41,"x_max":627,"o":"m 526 452 l 528 448 q 469 310 510 356 q 332 201 428 263 q 253 130 285 172 q 212 33 222 87 q 219 -59 199 -27 q 290 -92 239 -92 q 359 -63 326 -92 q 406 19 393 -35 l 626 19 l 627 15 q 498 -197 600 -126 q 255 -268 397 -268 q 35 -185 111 -268 q -15 33 -41 -102 q 62 191 3 123 q 205 301 122 258 q 272 362 251 329 q 304 452 293 395 l 526 452 m 363 734 l 587 734 l 550 551 l 326 551 l 363 734 z "},"À":{"ha":830,"x_min":-51,"x_max":779,"o":"m 538 192 l 265 192 l 176 0 l -51 0 l 439 987 l 682 987 l 779 0 l 551 0 l 538 192 m 347 368 l 526 368 l 505 699 l 500 699 l 347 368 m 688 1057 l 505 1057 l 353 1234 l 354 1238 l 585 1238 l 688 1057 z "},"Á":{"ha":830,"x_min":-51,"x_max":842,"o":"m 538 192 l 265 192 l 176 0 l -51 0 l 439 987 l 682 987 l 779 0 l 551 0 l 538 192 m 347 368 l 526 368 l 505 699 l 500 699 l 347 368 m 609 1239 l 840 1239 l 842 1235 l 635 1059 l 456 1059 l 455 1062 l 609 1239 z "},"Â":{"ha":830,"x_min":-51,"x_max":834,"o":"m 538 192 l 265 192 l 176 0 l -51 0 l 439 987 l 682 987 l 779 0 l 551 0 l 538 192 m 347 368 l 526 368 l 505 699 l 500 699 l 347 368 m 834 1091 l 831 1076 l 654 1076 l 588 1162 l 487 1076 l 313 1076 l 317 1094 l 544 1257 l 671 1257 l 834 1091 z "},"Ã":{"ha":830,"x_min":-51,"x_max":850,"o":"m 538 192 l 265 192 l 176 0 l -51 0 l 439 987 l 682 987 l 779 0 l 551 0 l 538 192 m 347 368 l 526 368 l 505 699 l 500 699 l 347 368 m 850 1262 q 794 1149 839 1195 q 690 1104 749 1104 q 592 1133 649 1104 q 502 1161 535 1161 q 466 1139 483 1161 q 444 1086 448 1117 l 331 1120 q 387 1232 342 1186 q 490 1278 431 1278 q 584 1250 523 1278 q 677 1222 644 1222 q 714 1244 696 1222 q 737 1297 732 1265 l 850 1262 z "},"Ä":{"ha":830,"x_min":-51,"x_max":853,"o":"m 538 192 l 265 192 l 176 0 l -51 0 l 439 987 l 682 987 l 779 0 l 551 0 l 538 192 m 347 368 l 526 368 l 505 699 l 500 699 l 347 368 m 831 1086 l 640 1086 l 663 1224 l 853 1224 l 831 1086 m 504 1086 l 313 1086 l 336 1224 l 526 1224 l 504 1086 z "},"Å":{"ha":830,"x_min":-51,"x_max":779,"o":"m 538 192 l 265 192 l 176 0 l -51 0 l 439 987 l 682 987 l 779 0 l 551 0 l 538 192 m 347 368 l 526 368 l 505 699 l 500 699 l 347 368 m 454 1181 q 512 1275 465 1239 q 619 1312 559 1312 q 707 1273 673 1312 q 730 1181 741 1235 q 672 1087 718 1121 q 568 1053 627 1053 q 477 1089 512 1053 q 454 1181 443 1126 m 534 1181 q 541 1134 528 1150 q 581 1117 553 1117 q 624 1135 604 1117 q 650 1181 644 1152 q 644 1229 656 1212 q 606 1246 632 1246 q 560 1227 581 1246 q 534 1181 539 1209 z "},"Æ":{"ha":1227,"x_min":-45,"x_max":1276,"o":"m 1117 0 l 545 0 l 581 223 l 354 223 l 216 0 l -45 0 l 608 987 l 1276 987 l 1240 808 l 900 808 l 866 594 l 1146 594 l 1110 415 l 837 415 l 799 179 l 1153 179 l 1117 0 m 610 406 l 658 705 l 654 706 l 468 406 l 610 406 z "},"Ç":{"ha":836,"x_min":36,"x_max":888,"o":"m 804 347 l 806 342 q 665 76 765 166 q 396 -14 566 -14 q 134 101 233 -14 q 71 391 36 216 l 113 597 q 263 896 151 791 q 539 1002 374 1002 q 798 904 707 1002 q 866 639 888 806 l 865 635 l 643 635 q 631 778 659 730 q 519 825 602 825 q 408 763 456 825 q 339 598 359 700 l 298 391 q 304 221 275 281 q 409 162 333 162 q 520 208 478 162 q 584 347 562 253 l 804 347 m 446 7 l 431 -35 q 489 -70 469 -42 q 500 -152 510 -98 q 414 -276 483 -234 q 232 -317 346 -319 l 229 -315 l 248 -194 q 285 -181 269 -194 q 306 -142 300 -168 q 295 -105 311 -115 q 235 -92 279 -95 l 275 7 l 446 7 z "},"È":{"ha":741,"x_min":14,"x_max":857,"o":"m 678 422 l 325 422 l 276 176 l 693 176 l 658 0 l 14 0 l 211 987 l 857 987 l 821 811 l 403 811 l 360 599 l 713 599 l 678 422 m 650 1057 l 467 1057 l 315 1234 l 316 1238 l 547 1238 l 650 1057 z "},"É":{"ha":741,"x_min":14,"x_max":857,"o":"m 678 422 l 325 422 l 276 176 l 693 176 l 658 0 l 14 0 l 211 987 l 857 987 l 821 811 l 403 811 l 360 599 l 713 599 l 678 422 m 571 1239 l 802 1239 l 804 1235 l 597 1059 l 418 1059 l 417 1062 l 571 1239 z "},"Ê":{"ha":741,"x_min":14,"x_max":857,"o":"m 678 422 l 325 422 l 276 176 l 693 176 l 658 0 l 14 0 l 211 987 l 857 987 l 821 811 l 403 811 l 360 599 l 713 599 l 678 422 m 796 1091 l 793 1076 l 616 1076 l 550 1162 l 449 1076 l 275 1076 l 279 1094 l 506 1257 l 633 1257 l 796 1091 z "},"Ë":{"ha":741,"x_min":14,"x_max":857,"o":"m 678 422 l 325 422 l 276 176 l 693 176 l 658 0 l 14 0 l 211 987 l 857 987 l 821 811 l 403 811 l 360 599 l 713 599 l 678 422 m 793 1086 l 602 1086 l 625 1224 l 815 1224 l 793 1086 m 466 1086 l 275 1086 l 298 1224 l 488 1224 l 466 1086 z "},"Ì":{"ha":396,"x_min":27,"x_max":473,"o":"m 253 0 l 27 0 l 224 987 l 450 987 l 253 0 m 473 1057 l 290 1057 l 138 1234 l 140 1238 l 371 1238 l 473 1057 z "},"Í":{"ha":396,"x_min":27,"x_max":626,"o":"m 253 0 l 27 0 l 224 987 l 450 987 l 253 0 m 393 1239 l 625 1239 l 626 1235 l 420 1059 l 241 1059 l 239 1062 l 393 1239 z "},"Î":{"ha":396,"x_min":27,"x_max":620,"o":"m 253 0 l 27 0 l 224 987 l 450 987 l 253 0 m 620 1091 l 616 1076 l 440 1076 l 374 1162 l 273 1076 l 99 1076 l 103 1094 l 330 1257 l 456 1257 l 620 1091 z "},"Ï":{"ha":396,"x_min":27,"x_max":639,"o":"m 253 0 l 27 0 l 224 987 l 450 987 l 253 0 m 616 1086 l 426 1086 l 448 1224 l 639 1224 l 616 1086 m 290 1086 l 99 1086 l 121 1224 l 312 1224 l 290 1086 z "},"Ð":{"ha":871,"x_min":34,"x_max":902,"o":"m 544 987 q 800 868 698 987 q 867 576 902 749 l 831 398 q 677 103 793 206 q 397 0 561 0 l 34 0 l 121 439 l 47 439 l 73 568 l 147 568 l 231 987 l 544 987 m 485 439 l 349 439 l 296 176 l 416 176 q 536 235 490 176 q 604 398 583 293 l 640 577 q 620 748 661 684 q 493 811 578 811 l 423 811 l 374 568 l 511 568 l 485 439 z "},"Ñ":{"ha":918,"x_min":14,"x_max":985,"o":"m 788 0 l 562 0 l 366 606 l 362 606 l 241 0 l 14 0 l 211 987 l 438 987 l 633 381 l 637 382 l 759 987 l 985 987 l 788 0 m 895 1262 q 839 1149 884 1195 q 736 1104 794 1104 q 637 1133 694 1104 q 547 1161 581 1161 q 511 1139 528 1161 q 489 1086 494 1117 l 376 1120 q 432 1232 387 1186 q 535 1278 477 1278 q 629 1250 568 1278 q 723 1222 690 1222 q 759 1244 741 1222 q 783 1297 777 1265 l 895 1262 z "},"Ò":{"ha":892,"x_min":40,"x_max":932,"o":"m 862 405 q 702 97 823 209 q 405 -14 581 -14 q 140 107 239 -14 q 75 405 40 228 l 111 583 q 269 890 151 779 q 562 1002 387 1002 q 830 880 728 1002 q 898 583 932 758 l 862 405 m 672 584 q 652 759 694 692 q 527 825 610 825 q 406 760 453 825 q 337 584 359 694 l 301 405 q 317 228 279 294 q 440 162 355 162 q 564 229 513 162 q 636 405 614 296 l 672 584 m 724 1072 l 541 1072 l 389 1249 l 391 1252 l 622 1252 l 724 1072 z "},"Ó":{"ha":892,"x_min":40,"x_max":932,"o":"m 862 405 q 702 97 823 209 q 405 -14 581 -14 q 140 107 239 -14 q 75 405 40 228 l 111 583 q 269 890 151 779 q 562 1002 387 1002 q 830 880 728 1002 q 898 583 932 758 l 862 405 m 672 584 q 652 759 694 692 q 527 825 610 825 q 406 760 453 825 q 337 584 359 694 l 301 405 q 317 228 279 294 q 440 162 355 162 q 564 229 513 162 q 636 405 614 296 l 672 584 m 646 1253 l 877 1253 l 878 1249 l 672 1073 l 493 1073 l 492 1076 l 646 1253 z "},"Ô":{"ha":892,"x_min":40,"x_max":932,"o":"m 862 405 q 702 97 823 209 q 405 -14 581 -14 q 140 107 239 -14 q 75 405 40 228 l 111 583 q 269 890 151 779 q 562 1002 387 1002 q 830 880 728 1002 q 898 583 932 758 l 862 405 m 672 584 q 652 759 694 692 q 527 825 610 825 q 406 760 453 825 q 337 584 359 694 l 301 405 q 317 228 279 294 q 440 162 355 162 q 564 229 513 162 q 636 405 614 296 l 672 584 m 871 1105 l 867 1090 l 691 1090 l 625 1176 l 524 1090 l 350 1090 l 354 1108 l 581 1271 l 707 1271 l 871 1105 z "},"Õ":{"ha":892,"x_min":40,"x_max":932,"o":"m 862 405 q 702 97 823 209 q 405 -14 581 -14 q 140 107 239 -14 q 75 405 40 228 l 111 583 q 269 890 151 779 q 562 1002 387 1002 q 830 880 728 1002 q 898 583 932 758 l 862 405 m 672 584 q 652 759 694 692 q 527 825 610 825 q 406 760 453 825 q 337 584 359 694 l 301 405 q 317 228 279 294 q 440 162 355 162 q 564 229 513 162 q 636 405 614 296 l 672 584 m 886 1276 q 830 1164 876 1209 q 727 1118 785 1118 q 629 1147 686 1118 q 538 1175 572 1175 q 502 1153 519 1175 q 480 1101 485 1131 l 368 1135 q 423 1246 378 1200 q 526 1293 468 1293 q 620 1264 559 1293 q 714 1236 681 1236 q 750 1258 732 1236 q 774 1311 768 1280 l 886 1276 z "},"Ö":{"ha":892,"x_min":40,"x_max":932,"o":"m 862 405 q 702 97 823 209 q 405 -14 581 -14 q 140 107 239 -14 q 75 405 40 228 l 111 583 q 269 890 151 779 q 562 1002 387 1002 q 830 880 728 1002 q 898 583 932 758 l 862 405 m 672 584 q 652 759 694 692 q 527 825 610 825 q 406 760 453 825 q 337 584 359 694 l 301 405 q 317 228 279 294 q 440 162 355 162 q 564 229 513 162 q 636 405 614 296 l 672 584 m 867 1100 l 677 1100 l 699 1238 l 890 1238 l 867 1100 m 541 1100 l 350 1100 l 372 1238 l 563 1238 l 541 1100 z "},"×":{"ha":691,"x_min":28,"x_max":732,"o":"m 28 258 l 258 465 l 110 673 l 264 797 l 406 597 l 628 797 l 732 673 l 500 465 l 648 258 l 494 134 l 353 332 l 133 134 l 28 258 z "},"Ø":{"ha":903,"x_min":60,"x_max":963,"o":"m 867 405 q 699 98 829 211 q 392 -14 570 -14 q 303 -4 345 -14 q 227 28 262 7 l 159 -64 l 67 -64 l 167 72 q 83 216 107 130 q 81 405 60 302 l 117 583 q 285 889 155 776 q 593 1002 414 1002 q 706 983 653 1002 q 800 931 758 965 l 871 1029 l 963 1029 l 850 877 q 906 744 892 819 q 903 583 920 669 l 867 405 m 307 405 q 297 324 298 360 q 304 264 296 288 l 308 262 l 671 758 q 628 808 656 790 q 558 825 600 825 q 422 756 482 825 q 342 584 363 688 l 307 405 m 677 584 q 683 619 681 603 q 686 646 686 635 l 682 647 l 344 188 q 380 169 359 175 q 427 162 401 162 q 561 231 501 162 q 642 405 621 300 l 677 584 z "},"Ù":{"ha":903,"x_min":44,"x_max":975,"o":"m 975 987 l 845 340 q 688 73 809 160 q 392 -14 568 -14 q 137 80 229 -14 q 77 340 44 174 l 207 987 l 434 987 l 304 340 q 317 203 285 243 q 427 162 349 162 q 549 206 498 162 q 618 340 600 250 l 747 987 l 975 987 m 725 1057 l 542 1057 l 390 1234 l 391 1238 l 623 1238 l 725 1057 z "},"Ú":{"ha":903,"x_min":44,"x_max":975,"o":"m 975 987 l 845 340 q 688 73 809 160 q 392 -14 568 -14 q 137 80 229 -14 q 77 340 44 174 l 207 987 l 434 987 l 304 340 q 317 203 285 243 q 427 162 349 162 q 549 206 498 162 q 618 340 600 250 l 747 987 l 975 987 m 646 1239 l 878 1239 l 879 1235 l 673 1059 l 494 1059 l 492 1062 l 646 1239 z "},"Û":{"ha":903,"x_min":44,"x_max":975,"o":"m 975 987 l 845 340 q 688 73 809 160 q 392 -14 568 -14 q 137 80 229 -14 q 77 340 44 174 l 207 987 l 434 987 l 304 340 q 317 203 285 243 q 427 162 349 162 q 549 206 498 162 q 618 340 600 250 l 747 987 l 975 987 m 871 1091 l 868 1076 l 692 1076 l 625 1162 l 524 1076 l 351 1076 l 355 1094 l 581 1257 l 708 1257 l 871 1091 z "},"Ü":{"ha":903,"x_min":44,"x_max":975,"o":"m 975 987 l 845 340 q 688 73 809 160 q 392 -14 568 -14 q 137 80 229 -14 q 77 340 44 174 l 207 987 l 434 987 l 304 340 q 317 203 285 243 q 427 162 349 162 q 549 206 498 162 q 618 340 600 250 l 747 987 l 975 987 m 868 1086 l 677 1086 l 700 1224 l 890 1224 l 868 1086 m 541 1086 l 351 1086 l 373 1224 l 564 1224 l 541 1086 z "},"Ý":{"ha":837,"x_min":139,"x_max":978,"o":"m 473 572 l 477 571 l 732 987 l 978 987 l 541 349 l 471 0 l 245 0 l 317 361 l 139 987 l 384 987 l 473 572 m 621 1239 l 852 1239 l 853 1235 l 647 1059 l 468 1059 l 467 1062 l 621 1239 z "},"Þ":{"ha":808,"x_min":15,"x_max":845,"o":"m 439 987 l 404 812 l 522 812 q 763 725 680 812 q 819 500 845 637 q 679 270 788 351 q 397 189 570 189 l 279 189 l 242 0 l 15 0 l 212 987 l 439 987 m 370 637 l 315 365 l 432 365 q 537 404 494 365 q 591 499 579 442 q 578 599 603 562 q 486 636 554 636 l 371 636 l 370 637 z "},"ß":{"ha":852,"x_min":29,"x_max":833,"o":"m 256 0 l 29 0 l 180 754 q 313 995 212 918 q 574 1072 413 1072 q 761 1003 689 1072 q 810 814 833 934 q 753 679 794 738 q 703 571 713 621 q 762 444 696 538 q 808 256 827 350 q 693 48 779 111 q 448 -14 606 -14 q 355 -6 401 -14 q 288 18 309 3 l 361 192 q 412 171 381 179 q 486 162 443 162 q 546 185 518 162 q 581 247 573 208 q 523 382 591 296 q 474 561 455 467 q 530 694 488 633 q 582 805 572 755 q 569 870 589 843 q 515 897 549 897 q 450 856 482 897 q 406 750 418 815 l 256 0 z "},"à":{"ha":692,"x_min":-6,"x_max":699,"o":"m 391 1 q 382 40 386 19 q 378 83 379 60 q 294 12 340 38 q 189 -14 248 -14 q 46 47 98 -14 q 14 207 -6 109 q 122 379 37 323 q 366 435 207 435 l 436 435 l 447 487 q 444 561 456 538 q 392 584 431 584 q 342 565 361 584 q 315 507 322 546 l 96 508 l 95 512 q 207 683 113 619 q 440 747 300 747 q 630 679 560 747 q 674 486 699 610 l 619 209 q 606 98 606 146 q 615 0 606 51 l 391 1 m 292 149 q 343 162 317 149 q 388 194 369 174 l 412 313 l 343 313 q 275 286 301 313 q 242 219 250 259 q 249 168 235 186 q 292 149 263 149 m 574 839 l 391 839 l 239 1016 l 241 1019 l 472 1019 l 574 839 z "},"á":{"ha":692,"x_min":-6,"x_max":728,"o":"m 391 1 q 382 40 386 19 q 378 83 379 60 q 294 12 340 38 q 189 -14 248 -14 q 46 47 98 -14 q 14 207 -6 109 q 122 379 37 323 q 366 435 207 435 l 436 435 l 447 487 q 444 561 456 538 q 392 584 431 584 q 342 565 361 584 q 315 507 322 546 l 96 508 l 95 512 q 207 683 113 619 q 440 747 300 747 q 630 679 560 747 q 674 486 699 610 l 619 209 q 606 98 606 146 q 615 0 606 51 l 391 1 m 292 149 q 343 162 317 149 q 388 194 369 174 l 412 313 l 343 313 q 275 286 301 313 q 242 219 250 259 q 249 168 235 186 q 292 149 263 149 m 496 1021 l 727 1021 l 728 1017 l 522 840 l 343 840 l 342 844 l 496 1021 z "},"â":{"ha":692,"x_min":-6,"x_max":721,"o":"m 391 1 q 382 40 386 19 q 378 83 379 60 q 294 12 340 38 q 189 -14 248 -14 q 46 47 98 -14 q 14 207 -6 109 q 122 379 37 323 q 366 435 207 435 l 436 435 l 447 487 q 444 561 456 538 q 392 584 431 584 q 342 565 361 584 q 315 507 322 546 l 96 508 l 95 512 q 207 683 113 619 q 440 747 300 747 q 630 679 560 747 q 674 486 699 610 l 619 209 q 606 98 606 146 q 615 0 606 51 l 391 1 m 292 149 q 343 162 317 149 q 388 194 369 174 l 412 313 l 343 313 q 275 286 301 313 q 242 219 250 259 q 249 168 235 186 q 292 149 263 149 m 721 873 l 718 858 l 541 858 l 475 943 l 374 858 l 200 858 l 204 876 l 431 1038 l 557 1038 l 721 873 z "},"ã":{"ha":692,"x_min":-6,"x_max":736,"o":"m 391 1 q 382 40 386 19 q 378 83 379 60 q 294 12 340 38 q 189 -14 248 -14 q 46 47 98 -14 q 14 207 -6 109 q 122 379 37 323 q 366 435 207 435 l 436 435 l 447 487 q 444 561 456 538 q 392 584 431 584 q 342 565 361 584 q 315 507 322 546 l 96 508 l 95 512 q 207 683 113 619 q 440 747 300 747 q 630 679 560 747 q 674 486 699 610 l 619 209 q 606 98 606 146 q 615 0 606 51 l 391 1 m 292 149 q 343 162 317 149 q 388 194 369 174 l 412 313 l 343 313 q 275 286 301 313 q 242 219 250 259 q 249 168 235 186 q 292 149 263 149 m 736 1044 q 681 931 726 977 q 577 886 635 886 q 479 914 536 886 q 389 943 422 943 q 352 921 370 943 q 330 868 335 899 l 218 902 q 273 1014 229 968 q 376 1060 318 1060 q 470 1032 410 1060 q 564 1004 531 1004 q 601 1025 583 1004 q 624 1078 618 1047 l 736 1044 z "},"ä":{"ha":692,"x_min":-6,"x_max":740,"o":"m 391 1 q 382 40 386 19 q 378 83 379 60 q 294 12 340 38 q 189 -14 248 -14 q 46 47 98 -14 q 14 207 -6 109 q 122 379 37 323 q 366 435 207 435 l 436 435 l 447 487 q 444 561 456 538 q 392 584 431 584 q 342 565 361 584 q 315 507 322 546 l 96 508 l 95 512 q 207 683 113 619 q 440 747 300 747 q 630 679 560 747 q 674 486 699 610 l 619 209 q 606 98 606 146 q 615 0 606 51 l 391 1 m 292 149 q 343 162 317 149 q 388 194 369 174 l 412 313 l 343 313 q 275 286 301 313 q 242 219 250 259 q 249 168 235 186 q 292 149 263 149 m 718 867 l 527 867 l 549 1006 l 740 1006 l 718 867 m 391 867 l 200 867 l 222 1006 l 413 1006 l 391 867 z "},"å":{"ha":692,"x_min":-6,"x_max":699,"o":"m 391 1 q 382 40 386 19 q 378 83 379 60 q 294 12 340 38 q 189 -14 248 -14 q 46 47 98 -14 q 14 207 -6 109 q 122 379 37 323 q 366 435 207 435 l 436 435 l 447 487 q 444 561 456 538 q 392 584 431 584 q 342 565 361 584 q 315 507 322 546 l 96 508 l 95 512 q 207 683 113 619 q 440 747 300 747 q 630 679 560 747 q 674 486 699 610 l 619 209 q 606 98 606 146 q 615 0 606 51 l 391 1 m 292 149 q 343 162 317 149 q 388 194 369 174 l 412 313 l 343 313 q 275 286 301 313 q 242 219 250 259 q 249 168 235 186 q 292 149 263 149 m 341 962 q 399 1057 352 1021 q 506 1093 446 1093 q 594 1055 559 1093 q 617 962 628 1017 q 559 868 605 903 q 454 834 513 834 q 364 871 399 834 q 341 962 330 908 m 420 962 q 427 915 414 932 q 467 899 440 899 q 511 916 491 899 q 537 962 531 934 q 531 1010 543 994 q 493 1027 519 1027 q 447 1009 468 1027 q 420 962 426 991 z "},"æ":{"ha":1098,"x_min":-8,"x_max":1122,"o":"m 722 -14 q 591 11 648 -14 q 500 85 534 37 q 386 13 452 41 q 237 -14 319 -14 q 54 50 115 -14 q 13 220 -8 114 q 130 389 36 334 q 389 444 224 444 l 483 444 l 489 475 q 483 547 498 523 q 431 571 468 571 q 366 551 394 571 q 333 502 338 531 l 117 514 l 115 518 q 229 686 133 624 q 469 747 325 747 q 571 733 524 747 q 652 691 618 718 q 751 733 697 719 q 867 747 804 747 q 1058 656 993 747 q 1093 415 1122 565 l 1069 295 l 684 295 l 682 292 q 697 195 672 229 q 789 162 722 162 q 882 173 840 162 q 975 208 924 184 l 1001 68 q 875 9 952 33 q 722 -14 798 -14 m 311 143 q 373 159 337 143 q 433 198 408 176 l 453 294 q 453 298 453 296 q 454 306 453 300 l 363 306 q 281 279 316 306 q 239 217 245 252 q 248 161 231 179 q 311 143 266 143 m 832 571 q 756 537 785 571 q 712 441 727 503 l 714 438 l 877 438 l 880 456 q 879 542 892 513 q 832 571 867 571 z "},"ç":{"ha":667,"x_min":13,"x_max":689,"o":"m 334 162 q 395 187 373 162 q 425 261 417 212 l 631 261 l 633 257 q 525 59 615 132 q 307 -14 434 -14 q 84 91 156 -14 q 39 359 13 195 l 41 374 q 169 646 68 545 q 426 747 269 747 q 621 669 553 747 q 665 456 689 590 l 663 453 l 456 453 q 451 540 464 509 q 398 571 439 571 q 313 517 345 571 q 267 374 281 463 l 265 359 q 263 212 250 262 q 334 162 276 162 m 399 7 l 384 -35 q 442 -70 421 -42 q 452 -152 463 -98 q 367 -276 435 -234 q 184 -317 298 -319 l 181 -315 l 201 -194 q 237 -181 222 -194 q 258 -142 253 -168 q 248 -105 263 -115 q 188 -92 232 -95 l 227 7 l 399 7 z "},"è":{"ha":692,"x_min":27,"x_max":703,"o":"m 328 -14 q 104 88 181 -14 q 52 342 27 191 l 56 368 q 181 645 83 543 q 433 747 278 748 q 636 657 568 747 q 680 415 703 567 l 661 295 l 277 295 l 276 292 q 300 198 273 233 q 387 162 328 162 q 483 173 444 162 q 581 208 522 183 l 612 68 q 486 9 562 33 q 328 -14 410 -14 m 406 571 q 338 536 364 571 q 298 441 312 500 l 300 438 l 462 438 l 465 456 q 460 543 474 514 q 406 571 447 571 m 549 840 l 366 840 l 214 1017 l 216 1020 l 447 1020 l 549 840 z "},"é":{"ha":692,"x_min":27,"x_max":703,"o":"m 328 -14 q 104 88 181 -14 q 52 342 27 191 l 56 368 q 181 645 83 543 q 433 747 278 748 q 636 657 568 747 q 680 415 703 567 l 661 295 l 277 295 l 276 292 q 300 198 273 233 q 387 162 328 162 q 483 173 444 162 q 581 208 522 183 l 612 68 q 486 9 562 33 q 328 -14 410 -14 m 406 571 q 338 536 364 571 q 298 441 312 500 l 300 438 l 462 438 l 465 456 q 460 543 474 514 q 406 571 447 571 m 471 1021 l 702 1021 l 703 1017 l 497 841 l 318 841 l 317 844 l 471 1021 z "},"ê":{"ha":692,"x_min":27,"x_max":703,"o":"m 328 -14 q 104 88 181 -14 q 52 342 27 191 l 56 368 q 181 645 83 543 q 433 747 278 748 q 636 657 568 747 q 680 415 703 567 l 661 295 l 277 295 l 276 292 q 300 198 273 233 q 387 162 328 162 q 483 173 444 162 q 581 208 522 183 l 612 68 q 486 9 562 33 q 328 -14 410 -14 m 406 571 q 338 536 364 571 q 298 441 312 500 l 300 438 l 462 438 l 465 456 q 460 543 474 514 q 406 571 447 571 m 697 873 l 694 859 l 517 859 l 451 944 l 350 859 l 176 859 l 180 876 l 407 1039 l 534 1039 l 697 873 z "},"ë":{"ha":692,"x_min":27,"x_max":716,"o":"m 328 -14 q 104 88 181 -14 q 52 342 27 191 l 56 368 q 181 645 83 543 q 433 747 278 748 q 636 657 568 747 q 680 415 703 567 l 661 295 l 277 295 l 276 292 q 300 198 273 233 q 387 162 328 162 q 483 173 444 162 q 581 208 522 183 l 612 68 q 486 9 562 33 q 328 -14 410 -14 m 406 571 q 338 536 364 571 q 298 441 312 500 l 300 438 l 462 438 l 465 456 q 460 543 474 514 q 406 571 447 571 m 694 868 l 503 868 l 526 1006 l 716 1006 l 694 868 m 367 868 l 176 868 l 199 1006 l 389 1006 l 367 868 z "},"ì":{"ha":384,"x_min":20,"x_max":422,"o":"m 248 0 l 20 0 l 167 734 l 395 734 l 248 0 m 422 825 l 239 825 l 87 1002 l 88 1005 l 319 1005 l 422 825 z "},"í":{"ha":384,"x_min":20,"x_max":574,"o":"m 248 0 l 20 0 l 167 734 l 395 734 l 248 0 m 342 1006 l 573 1006 l 574 1002 l 368 826 l 189 826 l 188 829 l 342 1006 z "},"î":{"ha":384,"x_min":20,"x_max":568,"o":"m 248 0 l 20 0 l 167 734 l 395 734 l 248 0 m 568 860 l 565 845 l 389 845 l 322 930 l 221 845 l 47 845 l 52 863 l 278 1025 l 405 1025 l 568 860 z "},"ï":{"ha":384,"x_min":20,"x_max":587,"o":"m 248 0 l 20 0 l 167 734 l 395 734 l 248 0 m 565 853 l 374 853 l 397 991 l 587 991 l 565 853 m 238 853 l 47 853 l 70 991 l 260 991 l 238 853 z "},"ð":{"ha":782,"x_min":0,"x_max":820,"o":"m 710 869 q 785 686 766 791 q 780 458 804 582 l 772 416 q 605 100 731 214 q 319 -14 479 -14 q 85 82 171 -14 q 28 317 0 179 q 160 566 60 480 q 415 652 259 652 q 496 638 458 652 q 562 600 534 624 l 565 603 q 548 691 563 651 q 509 763 534 732 l 360 685 l 325 765 l 439 825 q 400 845 421 836 q 357 863 380 854 l 460 1029 q 562 991 515 1015 q 649 935 609 968 l 785 1006 l 820 926 l 710 869 m 357 162 q 470 234 418 162 q 545 416 523 306 l 550 441 q 504 475 534 463 q 429 488 473 488 q 317 442 363 488 q 255 317 271 396 q 268 203 240 245 q 357 162 295 162 z "},"ñ":{"ha":734,"x_min":-1,"x_max":760,"o":"m 347 639 q 444 719 390 691 q 558 747 498 747 q 696 676 651 747 q 712 455 742 605 l 621 0 l 395 0 l 486 456 q 482 547 499 523 q 420 571 465 571 q 372 560 395 571 q 330 529 349 549 l 224 0 l -1 0 l 145 734 l 358 734 l 347 639 m 760 1044 q 704 931 749 977 q 601 886 659 886 q 503 914 559 886 q 412 943 446 943 q 376 921 393 943 q 354 868 359 899 l 241 902 q 297 1014 252 968 q 400 1060 342 1060 q 494 1032 433 1060 q 588 1004 555 1004 q 624 1025 606 1004 q 648 1078 642 1047 l 760 1044 z "},"ò":{"ha":734,"x_min":18,"x_max":737,"o":"m 46 374 q 176 646 73 545 q 438 747 278 747 q 664 642 590 747 q 711 374 737 537 l 709 359 q 579 86 682 187 q 318 -14 477 -14 q 92 91 165 -14 q 44 359 18 195 l 46 374 m 271 359 q 270 213 254 263 q 346 162 285 162 q 435 215 401 162 q 483 359 468 269 l 485 374 q 485 519 500 467 q 410 571 470 571 q 320 516 354 571 q 273 374 286 462 l 271 359 m 572 839 l 389 839 l 237 1016 l 238 1019 l 469 1019 l 572 839 z "},"ó":{"ha":734,"x_min":18,"x_max":737,"o":"m 46 374 q 176 646 73 545 q 438 747 278 747 q 664 642 590 747 q 711 374 737 537 l 709 359 q 579 86 682 187 q 318 -14 477 -14 q 92 91 165 -14 q 44 359 18 195 l 46 374 m 271 359 q 270 213 254 263 q 346 162 285 162 q 435 215 401 162 q 483 359 468 269 l 485 374 q 485 519 500 467 q 410 571 470 571 q 320 516 354 571 q 273 374 286 462 l 271 359 m 493 1021 l 724 1021 l 726 1017 l 519 840 l 340 840 l 339 844 l 493 1021 z "},"ô":{"ha":734,"x_min":18,"x_max":737,"o":"m 46 374 q 176 646 73 545 q 438 747 278 747 q 664 642 590 747 q 711 374 737 537 l 709 359 q 579 86 682 187 q 318 -14 477 -14 q 92 91 165 -14 q 44 359 18 195 l 46 374 m 271 359 q 270 213 254 263 q 346 162 285 162 q 435 215 401 162 q 483 359 468 269 l 485 374 q 485 519 500 467 q 410 571 470 571 q 320 516 354 571 q 273 374 286 462 l 271 359 m 718 873 l 715 858 l 538 858 l 472 943 l 371 858 l 197 858 l 201 876 l 428 1038 l 555 1038 l 718 873 z "},"õ":{"ha":734,"x_min":18,"x_max":737,"o":"m 46 374 q 176 646 73 545 q 438 747 278 747 q 664 642 590 747 q 711 374 737 537 l 709 359 q 579 86 682 187 q 318 -14 477 -14 q 92 91 165 -14 q 44 359 18 195 l 46 374 m 271 359 q 270 213 254 263 q 346 162 285 162 q 435 215 401 162 q 483 359 468 269 l 485 374 q 485 519 500 467 q 410 571 470 571 q 320 516 354 571 q 273 374 286 462 l 271 359 m 734 1044 q 678 931 723 977 q 574 886 633 886 q 476 914 533 886 q 386 943 419 943 q 350 921 367 943 q 328 868 332 899 l 215 902 q 271 1014 226 968 q 374 1060 315 1060 q 468 1032 407 1060 q 562 1004 528 1004 q 598 1025 580 1004 q 621 1078 616 1047 l 734 1044 z "},"ö":{"ha":734,"x_min":18,"x_max":737,"o":"m 46 374 q 176 646 73 545 q 438 747 278 747 q 664 642 590 747 q 711 374 737 537 l 709 359 q 579 86 682 187 q 318 -14 477 -14 q 92 91 165 -14 q 44 359 18 195 l 46 374 m 271 359 q 270 213 254 263 q 346 162 285 162 q 435 215 401 162 q 483 359 468 269 l 485 374 q 485 519 500 467 q 410 571 470 571 q 320 516 354 571 q 273 374 286 462 l 271 359 m 715 867 l 524 867 l 547 1006 l 737 1006 l 715 867 m 388 867 l 197 867 l 220 1006 l 410 1006 l 388 867 z "},"÷":{"ha":743,"x_min":59,"x_max":752,"o":"m 720 382 l 59 382 l 92 547 l 752 547 l 720 382 m 556 652 l 331 652 l 364 818 l 589 818 l 556 652 m 448 107 l 222 107 l 256 274 l 481 274 l 448 107 z "},"ø":{"ha":735,"x_min":23,"x_max":743,"o":"m 46 374 q 176 646 73 545 q 438 747 278 747 q 502 742 471 747 q 559 725 532 736 l 626 827 l 743 827 l 641 670 q 707 543 689 619 q 711 374 726 466 l 709 359 q 579 86 682 187 q 318 -14 477 -14 q 259 -9 288 -14 q 206 4 231 -5 l 140 -98 l 23 -98 l 123 55 q 48 183 69 104 q 44 359 28 262 l 46 374 m 271 359 q 264 311 266 332 q 262 277 262 290 l 267 275 l 453 561 q 433 568 444 566 q 410 571 422 571 q 320 516 354 571 q 273 374 286 462 l 271 359 m 485 374 q 490 408 488 392 q 492 433 492 424 l 488 435 l 313 167 q 328 163 319 164 q 346 162 336 162 q 435 215 401 162 q 483 359 468 269 l 485 374 z "},"ù":{"ha":734,"x_min":24,"x_max":766,"o":"m 422 0 l 425 79 q 333 9 384 33 q 221 -14 281 -14 q 73 60 121 -14 q 54 286 24 135 l 144 734 l 370 734 l 280 285 q 280 191 267 219 q 332 162 294 162 q 387 172 361 162 q 434 201 412 182 l 540 734 l 766 734 l 620 0 l 422 0 m 593 825 l 410 825 l 258 1002 l 260 1005 l 491 1005 l 593 825 z "},"ú":{"ha":734,"x_min":24,"x_max":766,"o":"m 422 0 l 425 79 q 333 9 384 33 q 221 -14 281 -14 q 73 60 121 -14 q 54 286 24 135 l 144 734 l 370 734 l 280 285 q 280 191 267 219 q 332 162 294 162 q 387 172 361 162 q 434 201 412 182 l 540 734 l 766 734 l 620 0 l 422 0 m 515 1006 l 746 1006 l 747 1002 l 541 826 l 362 826 l 361 829 l 515 1006 z "},"û":{"ha":734,"x_min":24,"x_max":766,"o":"m 422 0 l 425 79 q 333 9 384 33 q 221 -14 281 -14 q 73 60 121 -14 q 54 286 24 135 l 144 734 l 370 734 l 280 285 q 280 191 267 219 q 332 162 294 162 q 387 172 361 162 q 434 201 412 182 l 540 734 l 766 734 l 620 0 l 422 0 m 740 860 l 736 845 l 560 845 l 494 930 l 393 845 l 219 845 l 223 863 l 450 1025 l 576 1025 l 740 860 z "},"ü":{"ha":734,"x_min":24,"x_max":766,"o":"m 422 0 l 425 79 q 333 9 384 33 q 221 -14 281 -14 q 73 60 121 -14 q 54 286 24 135 l 144 734 l 370 734 l 280 285 q 280 191 267 219 q 332 162 294 162 q 387 172 361 162 q 434 201 412 182 l 540 734 l 766 734 l 620 0 l 422 0 m 736 853 l 546 853 l 568 991 l 759 991 l 736 853 m 410 853 l 219 853 l 241 991 l 432 991 l 410 853 z "},"ý":{"ha":675,"x_min":-54,"x_max":767,"o":"m 338 337 l 342 336 l 526 734 l 767 734 l 330 -109 q 219 -244 281 -191 q 48 -296 158 -296 q 2 -292 21 -296 q -54 -279 -16 -288 l 7 -115 q 18 -118 14 -117 q 29 -119 22 -119 q 103 -103 75 -119 q 147 -56 132 -86 l 172 -9 l 87 734 l 328 734 l 338 337 m 486 1006 l 718 1006 l 719 1002 l 513 826 l 334 826 l 332 829 l 486 1006 z "},"þ":{"ha":733,"x_min":-54,"x_max":746,"o":"m 710 338 q 595 74 674 161 q 387 -14 515 -14 q 303 3 340 -14 q 239 53 266 20 l 229 0 l 229 0 l 172 -282 l -54 -282 l 2 0 l 13 56 l 149 734 l 214 1058 l 441 1058 l 366 683 q 435 730 398 713 q 512 747 472 747 q 688 633 631 747 q 713 352 746 519 l 710 338 m 487 352 q 496 512 507 454 q 435 571 486 571 q 378 552 406 571 q 329 501 351 534 l 267 187 q 297 168 277 174 q 350 162 317 162 q 433 207 400 162 q 484 338 467 252 l 487 352 z "},"ÿ":{"ha":675,"x_min":-54,"x_max":767,"o":"m 338 337 l 342 336 l 526 734 l 767 734 l 330 -109 q 219 -244 281 -191 q 48 -296 158 -296 q 2 -292 21 -296 q -54 -279 -16 -288 l 7 -115 q 18 -118 14 -117 q 29 -119 22 -119 q 103 -103 75 -119 q 147 -56 132 -86 l 172 -9 l 87 734 l 328 734 l 338 337 m 708 853 l 517 853 l 540 991 l 730 991 l 708 853 m 381 853 l 191 853 l 213 991 l 404 991 l 381 853 z "},"Ā":{"ha":830,"x_min":-51,"x_max":826,"o":"m 538 192 l 265 192 l 176 0 l -51 0 l 439 987 l 682 987 l 779 0 l 551 0 l 538 192 m 347 368 l 526 368 l 505 699 l 500 699 l 347 368 m 808 1086 l 340 1086 l 358 1203 l 826 1203 l 808 1086 z "},"ā":{"ha":692,"x_min":-6,"x_max":713,"o":"m 391 1 q 382 40 386 19 q 378 83 379 60 q 294 12 340 38 q 189 -14 248 -14 q 46 47 98 -14 q 14 207 -6 109 q 122 379 37 323 q 366 435 207 435 l 436 435 l 447 487 q 444 561 456 538 q 392 584 431 584 q 342 565 361 584 q 315 507 322 546 l 96 508 l 95 512 q 207 683 113 619 q 440 747 300 747 q 630 679 560 747 q 674 486 699 610 l 619 209 q 606 98 606 146 q 615 0 606 51 l 391 1 m 292 149 q 343 162 317 149 q 388 194 369 174 l 412 313 l 343 313 q 275 286 301 313 q 242 219 250 259 q 249 168 235 186 q 292 149 263 149 m 694 869 l 227 869 l 245 986 l 713 986 l 694 869 z "},"Ă":{"ha":830,"x_min":-51,"x_max":840,"o":"m 538 192 l 265 192 l 176 0 l -51 0 l 439 987 l 682 987 l 779 0 l 551 0 l 538 192 m 347 368 l 526 368 l 505 699 l 500 699 l 347 368 m 838 1294 l 840 1290 q 755 1141 827 1196 q 573 1086 682 1086 q 412 1143 469 1086 q 372 1290 355 1201 l 374 1294 l 537 1294 q 545 1241 532 1261 q 595 1221 559 1221 q 649 1242 629 1221 q 675 1294 670 1263 l 838 1294 z "},"ă":{"ha":692,"x_min":-6,"x_max":726,"o":"m 391 1 q 382 40 386 19 q 378 83 379 60 q 294 12 340 38 q 189 -14 248 -14 q 46 47 98 -14 q 14 207 -6 109 q 122 379 37 323 q 366 435 207 435 l 436 435 l 447 487 q 444 561 456 538 q 392 584 431 584 q 342 565 361 584 q 315 507 322 546 l 96 508 l 95 512 q 207 683 113 619 q 440 747 300 747 q 630 679 560 747 q 674 486 699 610 l 619 209 q 606 98 606 146 q 615 0 606 51 l 391 1 m 292 149 q 343 162 317 149 q 388 194 369 174 l 412 313 l 343 313 q 275 286 301 313 q 242 219 250 259 q 249 168 235 186 q 292 149 263 149 m 725 1076 l 726 1072 q 642 923 714 978 q 460 867 569 867 q 298 925 355 867 q 259 1072 241 983 l 261 1076 l 424 1076 q 432 1023 418 1042 q 481 1003 446 1003 q 536 1024 515 1003 q 562 1076 557 1044 l 725 1076 z "},"Ą":{"ha":830,"x_min":-51,"x_max":779,"o":"m 538 192 l 265 192 l 176 0 l -51 0 l 439 987 l 682 987 l 779 0 l 551 0 l 538 192 m 347 368 l 526 368 l 505 699 l 500 699 l 347 368 m 701 0 q 652 -58 667 -37 q 631 -111 637 -79 q 634 -138 628 -124 q 674 -151 641 -151 q 705 -148 690 -151 q 733 -139 720 -144 l 734 -253 q 677 -274 708 -266 q 608 -283 647 -283 q 495 -244 538 -283 q 465 -138 452 -205 q 509 -39 476 -83 q 602 41 541 5 l 701 0 z "},"ą":{"ha":692,"x_min":-6,"x_max":699,"o":"m 391 1 q 382 40 386 19 q 378 83 379 60 q 294 12 340 38 q 189 -14 248 -14 q 46 47 98 -14 q 14 207 -6 109 q 122 379 37 323 q 366 435 207 435 l 436 435 l 447 487 q 444 561 456 538 q 392 584 431 584 q 342 565 361 584 q 315 507 322 546 l 96 508 l 95 512 q 207 683 113 619 q 440 747 300 747 q 630 679 560 747 q 674 486 699 610 l 619 209 q 606 98 606 146 q 615 0 606 51 l 391 1 m 292 149 q 343 162 317 149 q 388 194 369 174 l 412 313 l 343 313 q 275 286 301 313 q 242 219 250 259 q 249 168 235 186 q 292 149 263 149 m 537 0 q 488 -58 503 -37 q 467 -111 473 -79 q 470 -138 464 -124 q 510 -151 477 -151 q 541 -148 526 -151 q 569 -139 555 -144 l 570 -253 q 513 -274 544 -266 q 444 -283 483 -283 q 331 -244 374 -283 q 300 -138 288 -205 q 345 -39 312 -83 q 438 41 377 5 l 537 0 z "},"Ć":{"ha":836,"x_min":36,"x_max":888,"o":"m 804 347 l 806 342 q 665 76 765 166 q 396 -14 566 -14 q 134 101 233 -14 q 71 391 36 216 l 113 597 q 263 896 151 791 q 539 1002 374 1002 q 798 904 707 1002 q 866 639 888 806 l 865 635 l 643 635 q 631 778 659 730 q 519 825 602 825 q 408 763 456 825 q 339 598 359 700 l 298 391 q 304 221 275 281 q 409 162 333 162 q 520 208 478 162 q 584 347 562 253 l 804 347 m 626 1253 l 857 1253 l 859 1249 l 652 1073 l 473 1073 l 472 1076 l 626 1253 z "},"ć":{"ha":667,"x_min":13,"x_max":696,"o":"m 334 162 q 395 187 373 162 q 425 261 417 212 l 631 261 l 633 257 q 525 59 615 132 q 307 -14 434 -14 q 84 91 156 -14 q 39 359 13 195 l 41 374 q 169 646 68 545 q 426 747 269 747 q 621 669 553 747 q 665 456 689 590 l 663 453 l 456 453 q 451 540 464 509 q 398 571 439 571 q 313 517 345 571 q 267 374 281 463 l 265 359 q 263 212 250 262 q 334 162 276 162 m 464 1021 l 695 1021 l 696 1017 l 490 840 l 311 840 l 310 844 l 464 1021 z "},"Ĉ":{"ha":836,"x_min":36,"x_max":888,"o":"m 804 347 l 806 342 q 665 76 765 166 q 396 -14 566 -14 q 134 101 233 -14 q 71 391 36 216 l 113 597 q 263 896 151 791 q 539 1002 374 1002 q 798 904 707 1002 q 866 639 888 806 l 865 635 l 643 635 q 631 778 659 730 q 519 825 602 825 q 408 763 456 825 q 339 598 359 700 l 298 391 q 304 221 275 281 q 409 162 333 162 q 520 208 478 162 q 584 347 562 253 l 804 347 m 851 1105 l 848 1090 l 671 1090 l 605 1176 l 504 1090 l 330 1090 l 334 1108 l 561 1271 l 688 1271 l 851 1105 z "},"ĉ":{"ha":667,"x_min":13,"x_max":690,"o":"m 334 162 q 395 187 373 162 q 425 261 417 212 l 631 261 l 633 257 q 525 59 615 132 q 307 -14 434 -14 q 84 91 156 -14 q 39 359 13 195 l 41 374 q 169 646 68 545 q 426 747 269 747 q 621 669 553 747 q 665 456 689 590 l 663 453 l 456 453 q 451 540 464 509 q 398 571 439 571 q 313 517 345 571 q 267 374 281 463 l 265 359 q 263 212 250 262 q 334 162 276 162 m 690 873 l 687 858 l 511 858 l 444 943 l 343 858 l 170 858 l 174 876 l 400 1038 l 527 1038 l 690 873 z "},"Ċ":{"ha":836,"x_min":36,"x_max":888,"o":"m 804 347 l 806 342 q 665 76 765 166 q 396 -14 566 -14 q 134 101 233 -14 q 71 391 36 216 l 113 597 q 263 896 151 791 q 539 1002 374 1002 q 798 904 707 1002 q 866 639 888 806 l 865 635 l 643 635 q 631 778 659 730 q 519 825 602 825 q 408 763 456 825 q 339 598 359 700 l 298 391 q 304 221 275 281 q 409 162 333 162 q 520 208 478 162 q 584 347 562 253 l 804 347 m 701 1101 l 470 1101 l 505 1277 l 736 1277 l 701 1101 z "},"ċ":{"ha":667,"x_min":13,"x_max":689,"o":"m 334 162 q 395 187 373 162 q 425 261 417 212 l 631 261 l 633 257 q 525 59 615 132 q 307 -14 434 -14 q 84 91 156 -14 q 39 359 13 195 l 41 374 q 169 646 68 545 q 426 747 269 747 q 621 669 553 747 q 665 456 689 590 l 663 453 l 456 453 q 451 540 464 509 q 398 571 439 571 q 313 517 345 571 q 267 374 281 463 l 265 359 q 263 212 250 262 q 334 162 276 162 m 539 868 l 308 868 l 343 1044 l 574 1044 l 539 868 z "},"Č":{"ha":836,"x_min":36,"x_max":893,"o":"m 804 347 l 806 342 q 665 76 765 166 q 396 -14 566 -14 q 134 101 233 -14 q 71 391 36 216 l 113 597 q 263 896 151 791 q 539 1002 374 1002 q 798 904 707 1002 q 866 639 888 806 l 865 635 l 643 635 q 631 778 659 730 q 519 825 602 825 q 408 763 456 825 q 339 598 359 700 l 298 391 q 304 221 275 281 q 409 162 333 162 q 520 208 478 162 q 584 347 562 253 l 804 347 m 610 1208 l 687 1287 l 893 1287 l 890 1276 l 667 1100 l 509 1100 l 356 1278 l 358 1287 l 566 1287 l 610 1208 z "},"č":{"ha":667,"x_min":13,"x_max":732,"o":"m 334 162 q 395 187 373 162 q 425 261 417 212 l 631 261 l 633 257 q 525 59 615 132 q 307 -14 434 -14 q 84 91 156 -14 q 39 359 13 195 l 41 374 q 169 646 68 545 q 426 747 269 747 q 621 669 553 747 q 665 456 689 590 l 663 453 l 456 453 q 451 540 464 509 q 398 571 439 571 q 313 517 345 571 q 267 374 281 463 l 265 359 q 263 212 250 262 q 334 162 276 162 m 450 976 l 526 1055 l 732 1055 l 730 1044 l 507 867 l 349 867 l 195 1045 l 197 1055 l 406 1055 l 450 976 z "},"Ď":{"ha":850,"x_min":14,"x_max":882,"o":"m 524 987 q 780 868 677 987 q 847 576 882 749 l 811 398 q 657 103 773 206 q 376 0 541 0 l 14 0 l 211 987 l 524 987 m 403 811 l 276 176 l 396 176 q 516 235 469 176 q 584 398 563 293 l 620 577 q 599 748 641 684 q 473 811 557 811 l 403 811 m 549 1194 l 625 1273 l 831 1273 l 829 1262 l 606 1086 l 448 1086 l 294 1263 l 296 1273 l 505 1273 l 549 1194 z "},"ď":{"ha":836,"x_min":15,"x_max":1048,"o":"m 50 379 q 167 655 86 562 q 378 747 248 747 q 459 727 422 747 q 524 670 496 707 l 601 1058 l 827 1058 l 616 0 l 420 0 l 421 74 q 339 8 382 31 q 250 -14 296 -14 q 74 95 132 -14 q 47 365 15 204 l 50 379 m 275 365 q 264 214 254 266 q 329 162 275 162 q 385 180 357 162 q 435 229 412 197 l 496 532 q 465 562 485 552 q 416 571 445 571 q 331 519 367 571 q 277 379 294 467 l 275 365 m 1025 941 l 905 782 l 817 782 l 889 948 l 911 1057 l 1048 1057 l 1025 941 z "},"Đ":{"ha":871,"x_min":34,"x_max":902,"o":"m 544 987 q 800 868 698 987 q 867 576 902 749 l 831 398 q 677 103 793 206 q 397 0 561 0 l 34 0 l 121 439 l 47 439 l 73 568 l 147 568 l 231 987 l 544 987 m 485 439 l 349 439 l 296 176 l 416 176 q 536 235 490 176 q 604 398 583 293 l 640 577 q 620 748 661 684 q 493 811 578 811 l 423 811 l 374 568 l 511 568 l 485 439 z "},"đ":{"ha":755,"x_min":15,"x_max":878,"o":"m 852 824 l 781 824 l 616 0 l 420 0 l 421 74 q 339 8 382 31 q 250 -14 296 -14 q 74 95 132 -14 q 47 365 15 204 l 50 379 q 167 655 86 562 q 378 747 248 747 q 459 727 422 747 q 524 670 496 707 l 554 824 l 414 824 l 440 954 l 580 954 l 601 1058 l 827 1058 l 806 954 l 878 954 l 852 824 m 275 365 q 264 214 254 266 q 329 162 275 162 q 385 180 357 162 q 435 229 412 197 l 496 532 q 465 562 485 552 q 416 571 445 571 q 331 519 367 571 q 277 379 294 467 l 275 365 z "},"Ē":{"ha":741,"x_min":14,"x_max":857,"o":"m 678 422 l 325 422 l 276 176 l 693 176 l 658 0 l 14 0 l 211 987 l 857 987 l 821 811 l 403 811 l 360 599 l 713 599 l 678 422 m 770 1086 l 302 1086 l 320 1203 l 788 1203 l 770 1086 z "},"ē":{"ha":692,"x_min":27,"x_max":703,"o":"m 328 -14 q 104 88 181 -14 q 52 342 27 191 l 56 368 q 181 645 83 543 q 433 747 278 748 q 636 657 568 747 q 680 415 703 567 l 661 295 l 277 295 l 276 292 q 300 198 273 233 q 387 162 328 162 q 483 173 444 162 q 581 208 522 183 l 612 68 q 486 9 562 33 q 328 -14 410 -14 m 406 571 q 338 536 364 571 q 298 441 312 500 l 300 438 l 462 438 l 465 456 q 460 543 474 514 q 406 571 447 571 m 669 869 l 201 869 l 220 987 l 688 987 l 669 869 z "},"Ĕ":{"ha":741,"x_min":14,"x_max":857,"o":"m 678 422 l 325 422 l 276 176 l 693 176 l 658 0 l 14 0 l 211 987 l 857 987 l 821 811 l 403 811 l 360 599 l 713 599 l 678 422 m 800 1294 l 802 1290 q 717 1141 789 1196 q 535 1086 644 1086 q 374 1143 431 1086 q 334 1290 317 1201 l 336 1294 l 499 1294 q 507 1241 494 1261 q 557 1221 521 1221 q 611 1242 591 1221 q 637 1294 632 1263 l 800 1294 z "},"ĕ":{"ha":692,"x_min":27,"x_max":703,"o":"m 328 -14 q 104 88 181 -14 q 52 342 27 191 l 56 368 q 181 645 83 543 q 433 747 278 748 q 636 657 568 747 q 680 415 703 567 l 661 295 l 277 295 l 276 292 q 300 198 273 233 q 387 162 328 162 q 483 173 444 162 q 581 208 522 183 l 612 68 q 486 9 562 33 q 328 -14 410 -14 m 406 571 q 338 536 364 571 q 298 441 312 500 l 300 438 l 462 438 l 465 456 q 460 543 474 514 q 406 571 447 571 m 700 1076 l 701 1072 q 616 923 689 979 q 435 868 544 868 q 273 926 330 868 q 234 1072 216 983 l 236 1076 l 399 1076 q 407 1023 393 1043 q 456 1004 420 1004 q 511 1024 490 1004 q 537 1076 532 1045 l 700 1076 z "},"Ė":{"ha":741,"x_min":14,"x_max":857,"o":"m 678 422 l 325 422 l 276 176 l 693 176 l 658 0 l 14 0 l 211 987 l 857 987 l 821 811 l 403 811 l 360 599 l 713 599 l 678 422 m 646 1086 l 415 1086 l 450 1263 l 682 1263 l 646 1086 z "},"ė":{"ha":692,"x_min":27,"x_max":703,"o":"m 328 -14 q 104 88 181 -14 q 52 342 27 191 l 56 368 q 181 645 83 543 q 433 747 278 748 q 636 657 568 747 q 680 415 703 567 l 661 295 l 277 295 l 276 292 q 300 198 273 233 q 387 162 328 162 q 483 173 444 162 q 581 208 522 183 l 612 68 q 486 9 562 33 q 328 -14 410 -14 m 406 571 q 338 536 364 571 q 298 441 312 500 l 300 438 l 462 438 l 465 456 q 460 543 474 514 q 406 571 447 571 m 546 869 l 315 869 l 350 1045 l 581 1045 l 546 869 z "},"Ę":{"ha":741,"x_min":14,"x_max":857,"o":"m 678 422 l 325 422 l 276 176 l 693 176 l 658 0 l 14 0 l 211 987 l 857 987 l 821 811 l 403 811 l 360 599 l 713 599 l 678 422 m 482 0 q 433 -58 448 -37 q 412 -111 418 -79 q 415 -138 409 -124 q 455 -151 422 -151 q 486 -148 471 -151 q 514 -139 500 -144 l 515 -253 q 458 -274 489 -266 q 389 -283 428 -283 q 276 -244 319 -283 q 245 -138 233 -205 q 290 -39 257 -83 q 383 41 322 5 l 482 0 z "},"ę":{"ha":692,"x_min":27,"x_max":703,"o":"m 328 -14 q 104 88 181 -14 q 52 342 27 191 l 56 368 q 181 645 83 543 q 433 747 278 748 q 636 657 568 747 q 680 415 703 567 l 661 295 l 277 295 l 276 292 q 300 198 273 233 q 387 162 328 162 q 483 173 444 162 q 581 208 522 183 l 612 68 q 486 9 562 33 q 328 -14 410 -14 m 406 571 q 338 536 364 571 q 298 441 312 500 l 300 438 l 462 438 l 465 456 q 460 543 474 514 q 406 571 447 571 m 513 22 q 465 -36 479 -14 q 444 -89 450 -57 q 447 -115 440 -102 q 486 -129 453 -129 q 517 -125 503 -129 q 545 -117 532 -121 l 546 -231 q 490 -252 520 -243 q 420 -260 459 -260 q 307 -221 350 -260 q 277 -115 264 -182 q 321 -17 288 -61 q 414 63 353 27 l 513 22 z "},"Ě":{"ha":741,"x_min":14,"x_max":857,"o":"m 678 422 l 325 422 l 276 176 l 693 176 l 658 0 l 14 0 l 211 987 l 857 987 l 821 811 l 403 811 l 360 599 l 713 599 l 678 422 m 555 1194 l 632 1273 l 838 1273 l 836 1262 l 612 1086 l 454 1086 l 301 1263 l 303 1273 l 511 1273 l 555 1194 z "},"ě":{"ha":692,"x_min":27,"x_max":738,"o":"m 328 -14 q 104 88 181 -14 q 52 342 27 191 l 56 368 q 181 645 83 543 q 433 747 278 748 q 636 657 568 747 q 680 415 703 567 l 661 295 l 277 295 l 276 292 q 300 198 273 233 q 387 162 328 162 q 483 173 444 162 q 581 208 522 183 l 612 68 q 486 9 562 33 q 328 -14 410 -14 m 406 571 q 338 536 364 571 q 298 441 312 500 l 300 438 l 462 438 l 465 456 q 460 543 474 514 q 406 571 447 571 m 455 977 l 532 1055 l 738 1055 l 735 1044 l 512 868 l 354 868 l 201 1046 l 203 1055 l 411 1055 l 455 977 z "},"Ĝ":{"ha":860,"x_min":40,"x_max":892,"o":"m 772 136 q 613 31 711 76 q 380 -14 515 -14 q 130 100 220 -14 q 75 391 40 214 l 117 597 q 279 895 155 787 q 570 1002 404 1002 q 815 911 738 1002 q 874 672 892 821 l 873 669 l 659 669 q 638 786 664 747 q 543 825 612 825 q 420 761 478 825 q 342 598 362 696 l 301 391 q 308 221 279 281 q 415 162 338 162 q 500 172 466 162 q 557 199 535 182 l 589 355 l 454 355 l 485 507 l 846 507 l 772 136 m 854 1105 l 850 1090 l 674 1090 l 608 1176 l 507 1090 l 333 1090 l 337 1108 l 564 1271 l 690 1271 l 854 1105 z "},"ĝ":{"ha":734,"x_min":-9,"x_max":762,"o":"m 51 379 q 168 655 87 562 q 377 747 248 747 q 469 723 428 747 q 535 656 509 699 l 564 734 l 762 734 l 621 28 q 479 -212 590 -128 q 203 -296 368 -296 q 95 -280 153 -296 q -9 -239 37 -264 l 62 -69 q 144 -101 103 -91 q 238 -112 184 -112 q 339 -73 296 -112 q 395 30 381 -35 l 398 48 q 327 2 364 18 q 250 -14 290 -14 q 74 95 132 -14 q 48 365 16 204 l 51 379 m 274 365 q 264 214 254 266 q 328 162 274 162 q 385 177 358 162 q 433 221 411 193 l 496 538 q 466 563 486 555 q 416 571 446 571 q 330 519 366 571 q 277 379 294 467 l 274 365 m 728 873 l 725 858 l 549 858 l 482 943 l 381 858 l 208 858 l 212 876 l 438 1038 l 565 1038 l 728 873 z "},"Ğ":{"ha":860,"x_min":40,"x_max":892,"o":"m 772 136 q 613 31 711 76 q 380 -14 515 -14 q 130 100 220 -14 q 75 391 40 214 l 117 597 q 279 895 155 787 q 570 1002 404 1002 q 815 911 738 1002 q 874 672 892 821 l 873 669 l 659 669 q 638 786 664 747 q 543 825 612 825 q 420 761 478 825 q 342 598 362 696 l 301 391 q 308 221 279 281 q 415 162 338 162 q 500 172 466 162 q 557 199 535 182 l 589 355 l 454 355 l 485 507 l 846 507 l 772 136 m 858 1308 l 859 1304 q 774 1155 847 1211 q 593 1100 702 1100 q 431 1158 488 1100 q 392 1304 374 1215 l 394 1308 l 557 1308 q 565 1255 551 1275 q 614 1236 578 1236 q 669 1256 648 1236 q 695 1308 690 1277 l 858 1308 z "},"ğ":{"ha":734,"x_min":-9,"x_max":762,"o":"m 51 379 q 168 655 87 562 q 377 747 248 747 q 469 723 428 747 q 535 656 509 699 l 564 734 l 762 734 l 621 28 q 479 -212 590 -128 q 203 -296 368 -296 q 95 -280 153 -296 q -9 -239 37 -264 l 62 -69 q 144 -101 103 -91 q 238 -112 184 -112 q 339 -73 296 -112 q 395 30 381 -35 l 398 48 q 327 2 364 18 q 250 -14 290 -14 q 74 95 132 -14 q 48 365 16 204 l 51 379 m 274 365 q 264 214 254 266 q 328 162 274 162 q 385 177 358 162 q 433 221 411 193 l 496 538 q 466 563 486 555 q 416 571 446 571 q 330 519 366 571 q 277 379 294 467 l 274 365 m 732 1076 l 734 1072 q 649 923 722 978 q 467 867 576 867 q 306 925 363 867 q 267 1072 249 983 l 269 1076 l 431 1076 q 439 1023 426 1042 q 489 1003 453 1003 q 544 1024 523 1003 q 570 1076 564 1044 l 732 1076 z "},"Ġ":{"ha":860,"x_min":40,"x_max":892,"o":"m 772 136 q 613 31 711 76 q 380 -14 515 -14 q 130 100 220 -14 q 75 391 40 214 l 117 597 q 279 895 155 787 q 570 1002 404 1002 q 815 911 738 1002 q 874 672 892 821 l 873 669 l 659 669 q 638 786 664 747 q 543 825 612 825 q 420 761 478 825 q 342 598 362 696 l 301 391 q 308 221 279 281 q 415 162 338 162 q 500 172 466 162 q 557 199 535 182 l 589 355 l 454 355 l 485 507 l 846 507 l 772 136 m 704 1101 l 473 1101 l 508 1277 l 739 1277 l 704 1101 z "},"ġ":{"ha":734,"x_min":-9,"x_max":762,"o":"m 51 379 q 168 655 87 562 q 377 747 248 747 q 469 723 428 747 q 535 656 509 699 l 564 734 l 762 734 l 621 28 q 479 -212 590 -128 q 203 -296 368 -296 q 95 -280 153 -296 q -9 -239 37 -264 l 62 -69 q 144 -101 103 -91 q 238 -112 184 -112 q 339 -73 296 -112 q 395 30 381 -35 l 398 48 q 327 2 364 18 q 250 -14 290 -14 q 74 95 132 -14 q 48 365 16 204 l 51 379 m 274 365 q 264 214 254 266 q 328 162 274 162 q 385 177 358 162 q 433 221 411 193 l 496 538 q 466 563 486 555 q 416 571 446 571 q 330 519 366 571 q 277 379 294 467 l 274 365 m 578 868 l 347 868 l 382 1044 l 614 1044 l 578 868 z "},"Ģ":{"ha":860,"x_min":40,"x_max":892,"o":"m 772 136 q 613 31 711 76 q 380 -14 515 -14 q 130 100 220 -14 q 75 391 40 214 l 117 597 q 279 895 155 787 q 570 1002 404 1002 q 815 911 738 1002 q 874 672 892 821 l 873 669 l 659 669 q 638 786 664 747 q 543 825 612 825 q 420 761 478 825 q 342 598 362 696 l 301 391 q 308 221 279 281 q 415 162 338 162 q 500 172 466 162 q 557 199 535 182 l 589 355 l 454 355 l 485 507 l 846 507 l 772 136 m 414 -178 l 294 -338 l 206 -338 l 279 -172 l 300 -62 l 437 -62 l 414 -178 z "},"ģ":{"ha":734,"x_min":-9,"x_max":762,"o":"m 51 379 q 168 655 87 562 q 377 747 248 747 q 469 723 428 747 q 535 656 509 699 l 564 734 l 762 734 l 621 28 q 479 -212 590 -128 q 203 -296 368 -296 q 95 -280 153 -296 q -9 -239 37 -264 l 62 -69 q 144 -101 103 -91 q 238 -112 184 -112 q 339 -73 296 -112 q 395 30 381 -35 l 398 48 q 327 2 364 18 q 250 -14 290 -14 q 74 95 132 -14 q 48 365 16 204 l 51 379 m 274 365 q 264 214 254 266 q 328 162 274 162 q 385 177 358 162 q 433 221 411 193 l 496 538 q 466 563 486 555 q 416 571 446 571 q 330 519 366 571 q 277 379 294 467 l 274 365 m 400 984 l 508 1164 l 635 1164 l 570 977 l 546 855 l 374 855 l 400 984 z "},"Ĥ":{"ha":918,"x_min":14,"x_max":985,"o":"m 788 0 l 562 0 l 642 397 l 320 397 l 241 0 l 14 0 l 211 987 l 438 987 l 355 574 l 677 574 l 760 987 l 985 987 l 788 0 m 881 1091 l 878 1076 l 701 1076 l 635 1162 l 534 1076 l 360 1076 l 364 1094 l 591 1257 l 718 1257 l 881 1091 z "},"ĥ":{"ha":734,"x_min":-4,"x_max":757,"o":"m 353 654 q 440 723 393 699 q 540 747 488 747 q 687 667 640 747 q 703 422 735 586 l 618 0 l 392 0 l 477 423 q 479 542 494 513 q 416 571 464 571 q 369 562 391 571 q 330 536 347 553 l 222 0 l -4 0 l 208 1058 l 434 1058 l 353 654 m 757 1093 l 753 1078 l 577 1078 l 511 1164 l 410 1078 l 236 1078 l 240 1096 l 467 1259 l 593 1259 l 757 1093 z "},"Ħ":{"ha":922,"x_min":16,"x_max":1025,"o":"m 954 823 l 1025 823 l 1000 699 l 930 699 l 790 0 l 564 0 l 644 397 l 322 397 l 243 0 l 16 0 l 155 699 l 91 699 l 116 823 l 180 823 l 213 987 l 440 987 l 407 823 l 728 823 l 762 987 l 987 987 l 954 823 m 357 574 l 679 574 l 704 699 l 382 699 l 357 574 z "},"ħ":{"ha":755,"x_min":16,"x_max":755,"o":"m 539 821 l 407 821 l 374 654 q 460 723 413 699 q 560 747 508 747 q 708 667 660 747 q 723 422 755 586 l 639 0 l 412 0 l 497 423 q 499 542 515 513 q 437 571 484 571 q 389 562 411 571 q 350 536 368 553 l 243 0 l 16 0 l 180 821 l 102 821 l 127 951 l 206 951 l 228 1058 l 454 1058 l 433 951 l 565 951 l 539 821 z "},"Ĩ":{"ha":396,"x_min":27,"x_max":635,"o":"m 253 0 l 27 0 l 224 987 l 450 987 l 253 0 m 635 1262 q 579 1149 625 1195 q 476 1104 534 1104 q 378 1133 435 1104 q 288 1161 321 1161 q 251 1139 269 1161 q 229 1086 234 1117 l 117 1120 q 172 1232 127 1186 q 275 1278 217 1278 q 369 1250 309 1278 q 463 1222 430 1222 q 499 1244 481 1222 q 523 1297 517 1265 l 635 1262 z "},"ĩ":{"ha":384,"x_min":20,"x_max":584,"o":"m 248 0 l 20 0 l 167 734 l 395 734 l 248 0 m 584 1029 q 528 917 573 962 q 425 871 483 871 q 326 900 383 871 q 236 928 269 928 q 200 906 217 928 q 178 854 182 884 l 65 888 q 121 1000 76 954 q 224 1046 165 1046 q 318 1018 257 1046 q 412 989 378 989 q 448 1011 430 989 q 471 1064 466 1033 l 584 1029 z "},"Ī":{"ha":396,"x_min":27,"x_max":612,"o":"m 253 0 l 27 0 l 224 987 l 450 987 l 253 0 m 593 1086 l 125 1086 l 144 1203 l 612 1203 l 593 1086 z "},"ī":{"ha":384,"x_min":20,"x_max":560,"o":"m 248 0 l 20 0 l 167 734 l 395 734 l 248 0 m 542 854 l 74 854 l 92 972 l 560 972 l 542 854 z "},"Ĭ":{"ha":396,"x_min":27,"x_max":625,"o":"m 253 0 l 27 0 l 224 987 l 450 987 l 253 0 m 624 1294 l 625 1290 q 541 1141 613 1196 q 359 1086 468 1086 q 197 1143 254 1086 q 158 1290 140 1201 l 160 1294 l 323 1294 q 331 1241 317 1261 q 380 1221 345 1221 q 435 1242 414 1221 q 461 1294 456 1263 l 624 1294 z "},"ĭ":{"ha":384,"x_min":20,"x_max":574,"o":"m 248 0 l 20 0 l 167 734 l 395 734 l 248 0 m 572 1061 l 574 1057 q 489 908 562 964 q 307 853 416 853 q 146 911 203 853 q 106 1057 89 968 l 109 1061 l 271 1061 q 279 1008 266 1028 q 329 989 293 989 q 384 1009 363 989 q 410 1061 404 1030 l 572 1061 z "},"Į":{"ha":396,"x_min":-73,"x_max":450,"o":"m 253 0 l 27 0 l 224 987 l 450 987 l 253 0 m 176 0 q 127 -58 142 -37 q 106 -111 113 -79 q 110 -138 103 -124 q 149 -151 116 -151 q 180 -148 165 -151 q 208 -139 195 -144 l 209 -253 q 153 -274 183 -266 q 83 -283 122 -283 q -30 -244 13 -283 q -60 -138 -73 -205 q -16 -39 -49 -83 q 77 41 16 5 l 176 0 z "},"į":{"ha":367,"x_min":-87,"x_max":451,"o":"m 239 0 l 12 0 l 159 734 l 386 734 l 239 0 m 420 904 l 193 904 l 224 1058 l 451 1058 l 420 904 m 163 0 q 114 -58 129 -37 q 93 -111 99 -79 q 96 -138 90 -124 q 136 -151 102 -151 q 166 -148 152 -151 q 195 -139 181 -144 l 195 -253 q 139 -274 170 -266 q 70 -283 109 -283 q -44 -244 -1 -283 q -74 -138 -87 -205 q -30 -39 -62 -83 q 64 41 3 5 l 163 0 z "},"İ":{"ha":396,"x_min":27,"x_max":504,"o":"m 253 0 l 27 0 l 224 987 l 450 987 l 253 0 m 469 1086 l 237 1086 l 273 1263 l 504 1263 l 469 1086 z "},"ı":{"ha":384,"x_min":20,"x_max":395,"o":"m 248 0 l 20 0 l 167 734 l 395 734 l 248 0 z "},"Ĳ":{"ha":1155,"x_min":27,"x_max":1223,"o":"m 253 0 l 27 0 l 224 987 l 450 987 l 253 0 m 998 987 l 1223 987 l 1088 310 q 949 68 1056 151 q 700 -14 842 -14 q 481 64 558 -14 q 437 292 405 143 l 439 296 l 661 296 q 667 191 645 220 q 735 162 690 162 q 810 201 772 162 q 862 310 848 241 l 998 987 z "},"ĳ":{"ha":724,"x_min":12,"x_max":817,"o":"m 239 0 l 12 0 l 159 734 l 386 734 l 239 0 m 420 904 l 193 904 l 224 1058 l 451 1058 l 420 904 m 755 734 l 607 -10 q 495 -227 577 -157 q 286 -296 413 -296 q 235 -294 260 -296 q 185 -285 210 -291 l 229 -112 q 259 -118 247 -116 q 291 -120 271 -120 q 346 -92 323 -120 q 380 -10 369 -63 l 528 734 l 755 734 m 787 905 l 559 905 l 589 1058 l 817 1058 l 787 905 z "},"Ĵ":{"ha":759,"x_min":9,"x_max":981,"o":"m 602 987 l 827 987 l 692 310 q 553 68 660 151 q 304 -14 446 -14 q 85 64 162 -14 q 41 292 9 143 l 43 296 l 264 296 q 271 191 249 220 q 339 162 294 162 q 414 201 376 162 q 466 310 452 241 l 602 987 m 981 1091 l 977 1076 l 801 1076 l 734 1162 l 633 1076 l 460 1076 l 464 1094 l 690 1257 l 817 1257 l 981 1091 z "},"ĵ":{"ha":396,"x_min":-166,"x_max":556,"o":"m 404 734 l 255 -10 q 143 -227 225 -157 q -66 -296 61 -296 q -117 -294 -92 -296 q -166 -285 -141 -291 l -122 -112 q -93 -118 -104 -116 q -62 -120 -81 -120 q -6 -92 -30 -120 q 29 -10 18 -63 l 178 734 l 404 734 m 556 860 l 553 845 l 376 845 l 310 930 l 209 845 l 35 845 l 39 863 l 266 1025 l 393 1025 l 556 860 z "},"Ķ":{"ha":844,"x_min":17,"x_max":959,"o":"m 393 392 l 322 392 l 244 0 l 17 0 l 214 987 l 441 987 l 363 597 l 433 597 l 660 987 l 959 987 l 603 500 l 772 0 l 511 0 l 393 392 m 387 -177 l 267 -336 l 178 -336 l 251 -170 l 273 -61 l 410 -61 l 387 -177 z "},"ķ":{"ha":720,"x_min":3,"x_max":790,"o":"m 317 292 l 288 292 l 229 0 l 3 0 l 214 1058 l 441 1058 l 322 465 l 347 465 l 534 734 l 788 734 l 790 730 l 520 404 l 680 0 l 422 0 l 317 292 m 343 -177 l 223 -336 l 135 -336 l 208 -170 l 229 -61 l 366 -61 l 343 -177 z "},"ĸ":{"ha":798,"x_min":18,"x_max":859,"o":"m 365 256 l 294 256 l 243 0 l 18 0 l 164 734 l 390 734 l 337 470 l 391 470 l 572 734 l 857 734 l 859 730 l 572 394 l 718 0 l 427 0 l 365 256 z "},"Ĺ":{"ha":709,"x_min":14,"x_max":666,"o":"m 276 176 l 666 176 l 631 0 l 14 0 l 211 987 l 438 987 l 276 176 m 384 1239 l 615 1239 l 616 1235 l 410 1059 l 231 1059 l 230 1062 l 384 1239 z "},"ĺ":{"ha":367,"x_min":12,"x_max":621,"o":"m 239 0 l 12 0 l 224 1058 l 451 1058 l 239 0 m 388 1283 l 619 1283 l 621 1279 l 414 1103 l 235 1103 l 234 1106 l 388 1283 z "},"Ļ":{"ha":709,"x_min":14,"x_max":666,"o":"m 276 176 l 666 176 l 631 0 l 14 0 l 211 987 l 438 987 l 276 176 m 350 -177 l 230 -336 l 142 -336 l 214 -170 l 236 -61 l 373 -61 l 350 -177 z "},"ļ":{"ha":367,"x_min":-52,"x_max":451,"o":"m 239 0 l 12 0 l 224 1058 l 451 1058 l 239 0 m 156 -177 l 36 -336 l -52 -336 l 20 -170 l 42 -61 l 179 -61 l 156 -177 z "},"Ľ":{"ha":709,"x_min":14,"x_max":722,"o":"m 276 176 l 666 176 l 631 0 l 14 0 l 211 987 l 438 987 l 276 176 m 699 874 l 578 715 l 490 715 l 563 881 l 585 990 l 722 990 l 699 874 z "},"ľ":{"ha":469,"x_min":12,"x_max":677,"o":"m 239 0 l 12 0 l 224 1058 l 451 1058 l 239 0 m 654 941 l 534 782 l 446 782 l 518 948 l 540 1057 l 677 1057 l 654 941 z "},"Ŀ":{"ha":709,"x_min":14,"x_max":666,"o":"m 276 176 l 666 176 l 631 0 l 14 0 l 211 987 l 438 987 l 276 176 m 620 460 l 389 460 l 424 636 l 655 636 l 620 460 z "},"ŀ":{"ha":516,"x_min":12,"x_max":635,"o":"m 239 0 l 12 0 l 224 1058 l 451 1058 l 239 0 m 600 413 l 368 413 l 404 589 l 635 589 l 600 413 z "},"Ł":{"ha":650,"x_min":8,"x_max":661,"o":"m 358 614 l 508 656 l 480 515 l 330 473 l 271 176 l 661 176 l 625 0 l 8 0 l 90 407 l 20 388 l 49 529 l 117 548 l 205 987 l 433 987 l 358 614 z "},"ł":{"ha":397,"x_min":24,"x_max":465,"o":"m 377 629 l 465 656 l 437 515 l 349 488 l 252 0 l 24 0 l 107 413 l 25 388 l 54 529 l 135 554 l 236 1058 l 463 1058 l 377 629 z "},"Ń":{"ha":918,"x_min":14,"x_max":985,"o":"m 788 0 l 562 0 l 366 606 l 362 606 l 241 0 l 14 0 l 211 987 l 438 987 l 633 381 l 637 382 l 759 987 l 985 987 l 788 0 m 654 1239 l 886 1239 l 887 1235 l 681 1059 l 502 1059 l 500 1062 l 654 1239 z "},"ń":{"ha":734,"x_min":-1,"x_max":752,"o":"m 347 639 q 444 719 390 691 q 558 747 498 747 q 696 676 651 747 q 712 455 742 605 l 621 0 l 395 0 l 486 456 q 482 547 499 523 q 420 571 465 571 q 372 560 395 571 q 330 529 349 549 l 224 0 l -1 0 l 145 734 l 358 734 l 347 639 m 519 1021 l 751 1021 l 752 1017 l 546 840 l 367 840 l 366 844 l 519 1021 z "},"Ņ":{"ha":918,"x_min":14,"x_max":985,"o":"m 788 0 l 562 0 l 366 606 l 362 606 l 241 0 l 14 0 l 211 987 l 438 987 l 633 381 l 637 382 l 759 987 l 985 987 l 788 0 m 430 -177 l 310 -336 l 222 -336 l 294 -170 l 316 -61 l 453 -61 l 430 -177 z "},"ņ":{"ha":734,"x_min":-1,"x_max":742,"o":"m 347 639 q 444 719 390 691 q 558 747 498 747 q 696 676 651 747 q 712 455 742 605 l 621 0 l 395 0 l 486 456 q 482 547 499 523 q 420 571 465 571 q 372 560 395 571 q 330 529 349 549 l 224 0 l -1 0 l 145 734 l 358 734 l 347 639 m 338 -177 l 218 -336 l 130 -336 l 203 -170 l 224 -61 l 361 -61 l 338 -177 z "},"Ň":{"ha":918,"x_min":14,"x_max":985,"o":"m 788 0 l 562 0 l 366 606 l 362 606 l 241 0 l 14 0 l 211 987 l 438 987 l 633 381 l 637 382 l 759 987 l 985 987 l 788 0 m 639 1194 l 715 1273 l 922 1273 l 919 1262 l 696 1086 l 538 1086 l 385 1263 l 387 1273 l 595 1273 l 639 1194 z "},"ň":{"ha":734,"x_min":-1,"x_max":787,"o":"m 347 639 q 444 719 390 691 q 558 747 498 747 q 696 676 651 747 q 712 455 742 605 l 621 0 l 395 0 l 486 456 q 482 547 499 523 q 420 571 465 571 q 372 560 395 571 q 330 529 349 549 l 224 0 l -1 0 l 145 734 l 358 734 l 347 639 m 504 976 l 581 1055 l 787 1055 l 784 1044 l 561 867 l 403 867 l 250 1045 l 252 1055 l 460 1055 l 504 976 z "},"ŉ":{"ha":734,"x_min":-1,"x_max":742,"o":"m 347 639 q 444 719 390 691 q 558 747 498 747 q 696 676 651 747 q 712 455 742 605 l 621 0 l 395 0 l 486 456 q 482 547 499 523 q 420 571 465 571 q 372 560 395 571 q 330 529 349 549 l 224 0 l -1 0 l 145 734 l 358 734 l 347 639 m 294 941 l 174 782 l 86 782 l 159 948 l 180 1057 l 317 1057 l 294 941 z "},"Ŋ":{"ha":921,"x_min":16,"x_max":987,"o":"m 987 987 l 787 -10 q 675 -227 758 -157 q 466 -296 593 -296 q 414 -294 439 -296 q 365 -285 390 -291 l 408 -112 q 438 -118 426 -116 q 470 -120 450 -120 q 525 -91 500 -120 q 561 -10 550 -62 l 563 0 l 366 597 l 361 597 l 242 0 l 16 0 l 213 987 l 439 987 l 637 391 l 641 391 l 760 987 l 987 987 z "},"ŋ":{"ha":734,"x_min":-1,"x_max":741,"o":"m 347 638 q 445 719 391 691 q 559 747 499 747 q 696 673 652 747 q 710 441 741 598 l 620 -10 q 508 -227 590 -157 q 299 -296 426 -296 q 248 -294 273 -296 q 199 -285 223 -291 l 243 -112 q 271 -118 260 -117 q 303 -120 282 -120 q 358 -92 334 -120 q 393 -10 382 -63 l 484 442 q 486 544 498 517 q 436 571 473 571 q 379 558 407 571 q 328 521 352 545 l 224 0 l -1 0 l 145 734 l 358 734 l 347 638 z "},"Ō":{"ha":892,"x_min":40,"x_max":932,"o":"m 862 405 q 702 97 823 209 q 405 -14 581 -14 q 140 107 239 -14 q 75 405 40 228 l 111 583 q 269 890 151 779 q 562 1002 387 1002 q 830 880 728 1002 q 898 583 932 758 l 862 405 m 672 584 q 652 759 694 692 q 527 825 610 825 q 406 760 453 825 q 337 584 359 694 l 301 405 q 317 228 279 294 q 440 162 355 162 q 564 229 513 162 q 636 405 614 296 l 672 584 m 844 1100 l 376 1100 l 395 1217 l 863 1217 l 844 1100 z "},"ō":{"ha":734,"x_min":18,"x_max":737,"o":"m 46 374 q 176 646 73 545 q 438 747 278 747 q 664 642 590 747 q 711 374 737 537 l 709 359 q 579 86 682 187 q 318 -14 477 -14 q 92 91 165 -14 q 44 359 18 195 l 46 374 m 271 359 q 270 213 254 263 q 346 162 285 162 q 435 215 401 162 q 483 359 468 269 l 485 374 q 485 519 500 467 q 410 571 470 571 q 320 516 354 571 q 273 374 286 462 l 271 359 m 692 869 l 224 869 l 242 986 l 710 986 l 692 869 z "},"Ŏ":{"ha":892,"x_min":40,"x_max":932,"o":"m 862 405 q 702 97 823 209 q 405 -14 581 -14 q 140 107 239 -14 q 75 405 40 228 l 111 583 q 269 890 151 779 q 562 1002 387 1002 q 830 880 728 1002 q 898 583 932 758 l 862 405 m 672 584 q 652 759 694 692 q 527 825 610 825 q 406 760 453 825 q 337 584 359 694 l 301 405 q 317 228 279 294 q 440 162 355 162 q 564 229 513 162 q 636 405 614 296 l 672 584 m 875 1308 l 876 1304 q 791 1155 864 1211 q 610 1100 719 1100 q 448 1158 505 1100 q 409 1304 391 1215 l 411 1308 l 574 1308 q 582 1255 568 1275 q 631 1236 595 1236 q 686 1256 665 1236 q 712 1308 707 1277 l 875 1308 z "},"ŏ":{"ha":734,"x_min":18,"x_max":737,"o":"m 46 374 q 176 646 73 545 q 438 747 278 747 q 664 642 590 747 q 711 374 737 537 l 709 359 q 579 86 682 187 q 318 -14 477 -14 q 92 91 165 -14 q 44 359 18 195 l 46 374 m 271 359 q 270 213 254 263 q 346 162 285 162 q 435 215 401 162 q 483 359 468 269 l 485 374 q 485 519 500 467 q 410 571 470 571 q 320 516 354 571 q 273 374 286 462 l 271 359 m 722 1076 l 724 1072 q 639 923 711 978 q 457 867 566 867 q 296 925 353 867 q 256 1072 239 983 l 258 1076 l 421 1076 q 429 1023 416 1042 q 479 1003 443 1003 q 533 1024 513 1003 q 559 1076 554 1044 l 722 1076 z "},"Ő":{"ha":892,"x_min":40,"x_max":1019,"o":"m 862 405 q 702 97 823 209 q 405 -14 581 -14 q 140 107 239 -14 q 75 405 40 228 l 111 583 q 269 890 151 779 q 562 1002 387 1002 q 830 880 728 1002 q 898 583 932 758 l 862 405 m 672 584 q 652 759 694 692 q 527 825 610 825 q 406 760 453 825 q 337 584 359 694 l 301 405 q 317 228 279 294 q 440 162 355 162 q 564 229 513 162 q 636 405 614 296 l 672 584 m 818 1280 l 1018 1280 l 1019 1276 l 809 1100 l 634 1100 l 633 1104 l 818 1280 m 547 1280 l 750 1280 l 751 1276 l 564 1100 l 387 1100 l 386 1103 l 547 1280 z "},"ő":{"ha":734,"x_min":18,"x_max":867,"o":"m 46 374 q 176 646 73 545 q 438 747 278 747 q 664 642 590 747 q 711 374 737 537 l 709 359 q 579 86 682 187 q 318 -14 477 -14 q 92 91 165 -14 q 44 359 18 195 l 46 374 m 271 359 q 270 213 254 263 q 346 162 285 162 q 435 215 401 162 q 483 359 468 269 l 485 374 q 485 519 500 467 q 410 571 470 571 q 320 516 354 571 q 273 374 286 462 l 271 359 m 665 1048 l 865 1048 l 867 1044 l 656 867 l 481 867 l 480 871 l 665 1048 m 395 1048 l 597 1048 l 599 1044 l 412 867 l 235 867 l 233 871 l 395 1048 z "},"Œ":{"ha":1271,"x_min":46,"x_max":1369,"o":"m 1170 0 l 585 0 q 485 -11 526 -7 q 403 -14 444 -14 q 141 100 235 -14 q 81 391 46 214 l 123 597 q 291 895 161 788 q 604 1002 422 1002 q 690 998 644 1002 q 783 987 736 994 l 1369 987 l 1333 811 l 915 811 l 872 599 l 1225 599 l 1190 422 l 837 422 l 788 176 l 1205 176 l 1170 0 m 438 162 q 497 164 466 162 q 559 171 528 166 l 688 816 q 628 823 657 820 q 569 825 598 825 q 431 766 492 825 q 349 598 370 707 l 307 391 q 318 217 283 271 q 438 162 353 162 z "},"œ":{"ha":1166,"x_min":32,"x_max":1167,"o":"m 67 374 q 208 649 102 550 q 473 747 313 747 q 586 727 535 747 q 671 669 636 706 q 777 727 718 707 q 904 747 835 747 q 1101 656 1035 747 q 1137 415 1167 566 l 1113 295 l 731 295 l 729 292 q 750 197 724 232 q 836 162 776 162 q 931 173 890 162 q 1030 208 971 183 l 1055 68 q 927 9 1004 33 q 769 -14 850 -14 q 655 7 707 -14 q 569 67 604 28 q 457 6 519 27 q 322 -14 395 -14 q 103 91 174 -14 q 64 359 32 197 l 67 374 m 290 359 q 284 212 271 261 q 357 162 297 162 q 448 216 412 162 q 503 359 484 270 l 505 374 q 511 520 524 469 q 437 571 498 571 q 347 516 383 571 q 293 374 311 461 l 290 359 m 869 571 q 802 535 829 571 q 758 441 774 500 l 760 438 l 921 438 l 924 456 q 924 543 937 515 q 869 571 911 571 z "},"Ŕ":{"ha":860,"x_min":14,"x_max":886,"o":"m 317 378 l 241 0 l 14 0 l 211 987 l 569 987 q 803 907 720 987 q 859 691 886 826 q 794 555 842 608 q 665 469 747 502 q 768 380 741 441 q 779 235 795 319 l 766 172 q 759 83 758 132 q 783 14 760 35 l 780 0 l 547 0 q 528 73 526 21 q 541 174 531 125 l 553 233 q 543 343 568 309 q 454 378 519 378 l 317 378 m 352 555 l 485 555 q 579 587 538 555 q 631 677 619 619 q 618 776 643 741 q 534 811 593 811 l 404 811 l 352 555 m 602 1239 l 833 1239 l 834 1235 l 628 1059 l 449 1059 l 448 1062 l 602 1239 z "},"ŕ":{"ha":488,"x_min":3,"x_max":648,"o":"m 501 532 l 420 532 q 366 519 389 532 q 326 483 342 507 l 229 0 l 3 0 l 149 734 l 363 734 l 351 640 l 354 638 q 421 719 382 691 q 506 747 460 747 q 537 745 520 747 q 564 739 553 743 l 501 532 m 415 1021 l 646 1021 l 648 1017 l 441 840 l 262 840 l 261 844 l 415 1021 z "},"Ŗ":{"ha":860,"x_min":14,"x_max":886,"o":"m 317 378 l 241 0 l 14 0 l 211 987 l 569 987 q 803 907 720 987 q 859 691 886 826 q 794 555 842 608 q 665 469 747 502 q 768 380 741 441 q 779 235 795 319 l 766 172 q 759 83 758 132 q 783 14 760 35 l 780 0 l 547 0 q 528 73 526 21 q 541 174 531 125 l 553 233 q 543 343 568 309 q 454 378 519 378 l 317 378 m 352 555 l 485 555 q 579 587 538 555 q 631 677 619 619 q 618 776 643 741 q 534 811 593 811 l 404 811 l 352 555 m 377 -177 l 257 -336 l 169 -336 l 241 -170 l 263 -61 l 400 -61 l 377 -177 z "},"ŗ":{"ha":488,"x_min":-53,"x_max":564,"o":"m 501 532 l 420 532 q 366 519 389 532 q 326 483 342 507 l 229 0 l 3 0 l 149 734 l 363 734 l 351 640 l 354 638 q 421 719 382 691 q 506 747 460 747 q 537 745 520 747 q 564 739 553 743 l 501 532 m 155 -177 l 35 -336 l -53 -336 l 20 -170 l 41 -61 l 178 -61 l 155 -177 z "},"Ř":{"ha":860,"x_min":14,"x_max":886,"o":"m 317 378 l 241 0 l 14 0 l 211 987 l 569 987 q 803 907 720 987 q 859 691 886 826 q 794 555 842 608 q 665 469 747 502 q 768 380 741 441 q 779 235 795 319 l 766 172 q 759 83 758 132 q 783 14 760 35 l 780 0 l 547 0 q 528 73 526 21 q 541 174 531 125 l 553 233 q 543 343 568 309 q 454 378 519 378 l 317 378 m 352 555 l 485 555 q 579 587 538 555 q 631 677 619 619 q 618 776 643 741 q 534 811 593 811 l 404 811 l 352 555 m 586 1194 l 663 1273 l 869 1273 l 866 1262 l 643 1086 l 485 1086 l 332 1263 l 334 1273 l 542 1273 l 586 1194 z "},"ř":{"ha":488,"x_min":3,"x_max":684,"o":"m 501 532 l 420 532 q 366 519 389 532 q 326 483 342 507 l 229 0 l 3 0 l 149 734 l 363 734 l 351 640 l 354 638 q 421 719 382 691 q 506 747 460 747 q 537 745 520 747 q 564 739 553 743 l 501 532 m 401 976 l 477 1055 l 684 1055 l 681 1044 l 458 867 l 300 867 l 146 1045 l 149 1055 l 357 1055 l 401 976 z "},"Ś":{"ha":826,"x_min":33,"x_max":851,"o":"m 549 246 q 532 336 561 308 q 418 403 504 364 q 178 540 256 460 q 125 740 100 619 q 256 933 150 865 q 510 1002 362 1002 q 751 920 664 1002 q 808 699 838 839 l 806 695 l 585 695 q 566 790 597 755 q 475 825 534 825 q 396 801 433 825 q 353 741 359 776 q 374 659 341 685 q 519 588 406 633 q 733 456 665 536 q 775 248 801 376 q 645 52 749 117 q 391 -14 541 -14 q 137 60 241 -14 q 68 288 33 134 l 69 292 l 290 292 q 317 190 274 218 q 426 162 360 162 q 504 186 467 162 q 549 246 542 210 m 618 1253 l 850 1253 l 851 1249 l 645 1073 l 466 1073 l 465 1076 l 618 1253 z "},"ś":{"ha":669,"x_min":-2,"x_max":686,"o":"m 397 206 q 378 255 401 234 q 283 293 354 276 q 116 371 169 318 q 78 515 63 424 q 180 682 94 616 q 399 747 267 747 q 606 681 532 747 q 661 513 680 615 l 659 509 l 438 509 q 431 575 445 553 q 375 597 416 597 q 322 577 347 597 q 293 527 298 557 q 310 477 288 497 q 406 441 332 457 q 579 362 528 414 q 616 213 631 309 q 507 48 599 110 q 277 -14 416 -14 q 71 62 143 -14 q 16 231 -2 139 l 18 235 l 223 235 q 237 160 216 182 q 307 137 258 137 q 368 155 345 137 q 397 206 392 174 m 454 1021 l 685 1021 l 686 1017 l 480 840 l 301 840 l 300 844 l 454 1021 z "},"Ŝ":{"ha":826,"x_min":33,"x_max":844,"o":"m 549 246 q 532 336 561 308 q 418 403 504 364 q 178 540 256 460 q 125 740 100 619 q 256 933 150 865 q 510 1002 362 1002 q 751 920 664 1002 q 808 699 838 839 l 806 695 l 585 695 q 566 790 597 755 q 475 825 534 825 q 396 801 433 825 q 353 741 359 776 q 374 659 341 685 q 519 588 406 633 q 733 456 665 536 q 775 248 801 376 q 645 52 749 117 q 391 -14 541 -14 q 137 60 241 -14 q 68 288 33 134 l 69 292 l 290 292 q 317 190 274 218 q 426 162 360 162 q 504 186 467 162 q 549 246 542 210 m 844 1105 l 840 1090 l 664 1090 l 597 1176 l 496 1090 l 323 1090 l 327 1108 l 553 1271 l 680 1271 l 844 1105 z "},"ŝ":{"ha":669,"x_min":-2,"x_max":680,"o":"m 397 206 q 378 255 401 234 q 283 293 354 276 q 116 371 169 318 q 78 515 63 424 q 180 682 94 616 q 399 747 267 747 q 606 681 532 747 q 661 513 680 615 l 659 509 l 438 509 q 431 575 445 553 q 375 597 416 597 q 322 577 347 597 q 293 527 298 557 q 310 477 288 497 q 406 441 332 457 q 579 362 528 414 q 616 213 631 309 q 507 48 599 110 q 277 -14 416 -14 q 71 62 143 -14 q 16 231 -2 139 l 18 235 l 223 235 q 237 160 216 182 q 307 137 258 137 q 368 155 345 137 q 397 206 392 174 m 680 873 l 677 858 l 500 858 l 434 943 l 333 858 l 159 858 l 163 876 l 390 1038 l 517 1038 l 680 873 z "},"Ş":{"ha":826,"x_min":33,"x_max":838,"o":"m 549 246 q 532 336 561 308 q 418 403 504 364 q 178 540 256 460 q 125 740 100 619 q 256 933 150 865 q 510 1002 362 1002 q 751 920 664 1002 q 808 699 838 839 l 806 695 l 585 695 q 566 790 597 755 q 475 825 534 825 q 396 801 433 825 q 353 741 359 776 q 374 659 341 685 q 519 588 406 633 q 733 456 665 536 q 775 248 801 376 q 645 52 749 117 q 391 -14 541 -14 q 137 60 241 -14 q 68 288 33 134 l 69 292 l 290 292 q 317 190 274 218 q 426 162 360 162 q 504 186 467 162 q 549 246 542 210 m 467 1 l 452 -40 q 510 -76 490 -47 q 521 -157 531 -104 q 435 -282 504 -239 q 253 -323 367 -324 l 250 -321 l 269 -199 q 306 -186 290 -199 q 327 -147 321 -174 q 316 -110 332 -120 q 256 -98 300 -100 l 296 1 l 467 1 z "},"ş":{"ha":669,"x_min":-2,"x_max":680,"o":"m 397 206 q 378 255 401 234 q 283 293 354 276 q 116 371 169 318 q 78 515 63 424 q 180 682 94 616 q 399 747 267 747 q 606 681 532 747 q 661 513 680 615 l 659 509 l 438 509 q 431 575 445 553 q 375 597 416 597 q 322 577 347 597 q 293 527 298 557 q 310 477 288 497 q 406 441 332 457 q 579 362 528 414 q 616 213 631 309 q 507 48 599 110 q 277 -14 416 -14 q 71 62 143 -14 q 16 231 -2 139 l 18 235 l 223 235 q 237 160 216 182 q 307 137 258 137 q 368 155 345 137 q 397 206 392 174 m 367 1 l 352 -40 q 410 -76 389 -47 q 420 -157 431 -104 q 335 -282 404 -239 q 153 -323 267 -324 l 149 -321 l 169 -199 q 205 -186 190 -199 q 227 -147 221 -174 q 216 -110 231 -120 q 156 -98 200 -100 l 195 1 l 367 1 z "},"Š":{"ha":826,"x_min":33,"x_max":886,"o":"m 549 246 q 532 336 561 308 q 418 403 504 364 q 178 540 256 460 q 125 740 100 619 q 256 933 150 865 q 510 1002 362 1002 q 751 920 664 1002 q 808 699 838 839 l 806 695 l 585 695 q 566 790 597 755 q 475 825 534 825 q 396 801 433 825 q 353 741 359 776 q 374 659 341 685 q 519 588 406 633 q 733 456 665 536 q 775 248 801 376 q 645 52 749 117 q 391 -14 541 -14 q 137 60 241 -14 q 68 288 33 134 l 69 292 l 290 292 q 317 190 274 218 q 426 162 360 162 q 504 186 467 162 q 549 246 542 210 m 603 1208 l 680 1287 l 886 1287 l 883 1276 l 660 1100 l 502 1100 l 349 1278 l 351 1287 l 559 1287 l 603 1208 z "},"š":{"ha":669,"x_min":-2,"x_max":722,"o":"m 397 206 q 378 255 401 234 q 283 293 354 276 q 116 371 169 318 q 78 515 63 424 q 180 682 94 616 q 399 747 267 747 q 606 681 532 747 q 661 513 680 615 l 659 509 l 438 509 q 431 575 445 553 q 375 597 416 597 q 322 577 347 597 q 293 527 298 557 q 310 477 288 497 q 406 441 332 457 q 579 362 528 414 q 616 213 631 309 q 507 48 599 110 q 277 -14 416 -14 q 71 62 143 -14 q 16 231 -2 139 l 18 235 l 223 235 q 237 160 216 182 q 307 137 258 137 q 368 155 345 137 q 397 206 392 174 m 439 976 l 516 1055 l 722 1055 l 720 1044 l 496 867 l 338 867 l 185 1045 l 187 1055 l 395 1055 l 439 976 z "},"Ţ":{"ha":730,"x_min":123,"x_max":854,"o":"m 819 811 l 583 811 l 421 0 l 194 0 l 356 811 l 123 811 l 158 987 l 854 987 l 819 811 m 338 -177 l 218 -336 l 130 -336 l 203 -170 l 224 -61 l 361 -61 l 338 -177 z "},"ţ":{"ha":479,"x_min":35,"x_max":526,"o":"m 451 916 l 414 734 l 526 734 l 495 575 l 382 575 l 315 239 q 318 181 307 197 q 353 165 328 165 q 384 166 372 165 q 414 172 395 168 l 396 2 q 329 -11 358 -7 q 259 -14 299 -14 q 110 47 157 -14 q 90 237 63 109 l 157 575 l 64 575 l 95 734 l 189 734 l 225 916 l 451 916 m 243 -177 l 123 -336 l 35 -336 l 108 -170 l 130 -61 l 267 -61 l 243 -177 z "},"Ť":{"ha":730,"x_min":123,"x_max":854,"o":"m 819 811 l 583 811 l 421 0 l 194 0 l 356 811 l 123 811 l 158 987 l 854 987 l 819 811 m 547 1194 l 624 1273 l 830 1273 l 827 1262 l 604 1086 l 446 1086 l 293 1263 l 295 1273 l 503 1273 l 547 1194 z "},"ť":{"ha":507,"x_min":63,"x_max":732,"o":"m 451 916 l 414 734 l 526 734 l 495 575 l 382 575 l 315 239 q 318 181 307 197 q 353 165 328 165 q 384 166 372 165 q 414 172 395 168 l 396 2 q 329 -11 358 -7 q 259 -14 299 -14 q 110 47 157 -14 q 90 237 63 109 l 157 575 l 64 575 l 95 734 l 189 734 l 225 916 l 451 916 m 709 962 l 589 802 l 501 802 l 574 968 l 595 1078 l 732 1078 l 709 962 z "},"Ŧ":{"ha":730,"x_min":123,"x_max":854,"o":"m 633 490 l 519 490 l 421 0 l 194 0 l 292 490 l 195 490 l 221 620 l 317 620 l 356 811 l 123 811 l 158 987 l 854 987 l 819 811 l 583 811 l 545 620 l 659 620 l 633 490 z "},"ŧ":{"ha":479,"x_min":9,"x_max":526,"o":"m 451 916 l 414 734 l 526 734 l 495 575 l 382 575 l 362 473 l 472 473 l 446 344 l 336 344 l 315 239 q 318 181 307 197 q 353 165 328 165 q 384 166 372 165 q 414 172 395 168 l 396 2 q 329 -11 358 -7 q 259 -14 299 -14 q 110 47 157 -14 q 90 237 63 109 l 111 344 l 9 344 l 35 473 l 136 473 l 157 575 l 64 575 l 95 734 l 189 734 l 225 916 l 451 916 z "},"Ũ":{"ha":903,"x_min":44,"x_max":975,"o":"m 975 987 l 845 340 q 688 73 809 160 q 392 -14 568 -14 q 137 80 229 -14 q 77 340 44 174 l 207 987 l 434 987 l 304 340 q 317 203 285 243 q 427 162 349 162 q 549 206 498 162 q 618 340 600 250 l 747 987 l 975 987 m 887 1262 q 831 1149 876 1195 q 728 1104 786 1104 q 629 1133 686 1104 q 539 1161 572 1161 q 503 1139 520 1161 q 481 1086 486 1117 l 368 1120 q 424 1232 379 1186 q 527 1278 469 1278 q 621 1250 560 1278 q 715 1222 682 1222 q 751 1244 733 1222 q 774 1297 769 1265 l 887 1262 z "},"ũ":{"ha":734,"x_min":24,"x_max":766,"o":"m 422 0 l 425 79 q 333 9 384 33 q 221 -14 281 -14 q 73 60 121 -14 q 54 286 24 135 l 144 734 l 370 734 l 280 285 q 280 191 267 219 q 332 162 294 162 q 387 172 361 162 q 434 201 412 182 l 540 734 l 766 734 l 620 0 l 422 0 m 755 1029 q 700 917 745 962 q 596 871 654 871 q 498 900 555 871 q 408 928 441 928 q 371 906 389 928 q 349 854 354 884 l 237 888 q 292 1000 248 954 q 395 1046 337 1046 q 489 1018 429 1046 q 583 989 550 989 q 620 1011 602 989 q 643 1064 637 1033 l 755 1029 z "},"Ū":{"ha":903,"x_min":44,"x_max":975,"o":"m 975 987 l 845 340 q 688 73 809 160 q 392 -14 568 -14 q 137 80 229 -14 q 77 340 44 174 l 207 987 l 434 987 l 304 340 q 317 203 285 243 q 427 162 349 162 q 549 206 498 162 q 618 340 600 250 l 747 987 l 975 987 m 845 1086 l 377 1086 l 395 1203 l 863 1203 l 845 1086 z "},"ū":{"ha":734,"x_min":24,"x_max":766,"o":"m 422 0 l 425 79 q 333 9 384 33 q 221 -14 281 -14 q 73 60 121 -14 q 54 286 24 135 l 144 734 l 370 734 l 280 285 q 280 191 267 219 q 332 162 294 162 q 387 172 361 162 q 434 201 412 182 l 540 734 l 766 734 l 620 0 l 422 0 m 713 854 l 245 854 l 264 972 l 732 972 l 713 854 z "},"Ŭ":{"ha":903,"x_min":44,"x_max":975,"o":"m 975 987 l 845 340 q 688 73 809 160 q 392 -14 568 -14 q 137 80 229 -14 q 77 340 44 174 l 207 987 l 434 987 l 304 340 q 317 203 285 243 q 427 162 349 162 q 549 206 498 162 q 618 340 600 250 l 747 987 l 975 987 m 876 1294 l 877 1290 q 792 1141 865 1196 q 610 1086 720 1086 q 449 1143 506 1086 q 410 1290 392 1201 l 412 1294 l 574 1294 q 583 1241 569 1261 q 632 1221 596 1221 q 687 1242 666 1221 q 713 1294 707 1263 l 876 1294 z "},"ŭ":{"ha":734,"x_min":24,"x_max":766,"o":"m 422 0 l 425 79 q 333 9 384 33 q 221 -14 281 -14 q 73 60 121 -14 q 54 286 24 135 l 144 734 l 370 734 l 280 285 q 280 191 267 219 q 332 162 294 162 q 387 172 361 162 q 434 201 412 182 l 540 734 l 766 734 l 620 0 l 422 0 m 744 1061 l 745 1057 q 661 908 733 964 q 479 853 588 853 q 317 911 374 853 q 278 1057 260 968 l 280 1061 l 443 1061 q 451 1008 437 1028 q 500 989 465 989 q 555 1009 534 989 q 581 1061 576 1030 l 744 1061 z "},"Ů":{"ha":903,"x_min":44,"x_max":975,"o":"m 975 987 l 845 340 q 688 73 809 160 q 392 -14 568 -14 q 137 80 229 -14 q 77 340 44 174 l 207 987 l 434 987 l 304 340 q 317 203 285 243 q 427 162 349 162 q 549 206 498 162 q 618 340 600 250 l 747 987 l 975 987 m 492 1181 q 549 1275 503 1239 q 656 1312 596 1312 q 744 1273 710 1312 q 768 1181 779 1235 q 710 1087 755 1121 q 605 1053 664 1053 q 515 1089 549 1053 q 492 1181 480 1126 m 571 1181 q 578 1134 565 1150 q 618 1117 591 1117 q 662 1135 642 1117 q 688 1181 682 1152 q 681 1229 693 1212 q 644 1246 669 1246 q 597 1227 618 1246 q 571 1181 576 1209 z "},"ů":{"ha":734,"x_min":24,"x_max":766,"o":"m 422 0 l 425 79 q 333 9 384 33 q 221 -14 281 -14 q 73 60 121 -14 q 54 286 24 135 l 144 734 l 370 734 l 280 285 q 280 191 267 219 q 332 162 294 162 q 387 172 361 162 q 434 201 412 182 l 540 734 l 766 734 l 620 0 l 422 0 m 360 948 q 418 1043 371 1006 q 525 1079 465 1079 q 613 1041 578 1079 q 636 948 647 1002 q 578 854 624 888 q 473 820 532 820 q 383 857 418 820 q 360 948 349 894 m 439 948 q 446 901 433 918 q 486 884 459 884 q 530 902 510 884 q 556 948 550 920 q 550 996 562 979 q 512 1013 538 1013 q 466 995 487 1013 q 439 948 445 977 z "},"Ű":{"ha":903,"x_min":44,"x_max":1020,"o":"m 975 987 l 845 340 q 688 73 809 160 q 392 -14 568 -14 q 137 80 229 -14 q 77 340 44 174 l 207 987 l 434 987 l 304 340 q 317 203 285 243 q 427 162 349 162 q 549 206 498 162 q 618 340 600 250 l 747 987 l 975 987 m 819 1266 l 1019 1266 l 1020 1262 l 810 1086 l 635 1086 l 633 1090 l 819 1266 m 548 1266 l 751 1266 l 752 1262 l 565 1086 l 388 1086 l 387 1089 l 548 1266 z "},"ű":{"ha":734,"x_min":24,"x_max":888,"o":"m 422 0 l 425 79 q 333 9 384 33 q 221 -14 281 -14 q 73 60 121 -14 q 54 286 24 135 l 144 734 l 370 734 l 280 285 q 280 191 267 219 q 332 162 294 162 q 387 172 361 162 q 434 201 412 182 l 540 734 l 766 734 l 620 0 l 422 0 m 687 1034 l 887 1034 l 888 1029 l 678 853 l 503 853 l 502 857 l 687 1034 m 416 1034 l 619 1034 l 621 1029 l 433 853 l 256 853 l 255 857 l 416 1034 z "},"Ų":{"ha":903,"x_min":44,"x_max":975,"o":"m 975 987 l 845 340 q 688 73 809 160 q 392 -14 568 -14 q 137 80 229 -14 q 77 340 44 174 l 207 987 l 434 987 l 304 340 q 317 203 285 243 q 427 162 349 162 q 549 206 498 162 q 618 340 600 250 l 747 987 l 975 987 m 563 0 q 514 -58 529 -37 q 493 -111 499 -79 q 496 -138 490 -124 q 536 -151 503 -151 q 567 -148 552 -151 q 595 -139 581 -144 l 595 -253 q 539 -274 570 -266 q 470 -283 509 -283 q 356 -244 399 -283 q 326 -138 313 -205 q 370 -39 338 -83 q 464 41 403 5 l 563 0 z "},"ų":{"ha":734,"x_min":24,"x_max":766,"o":"m 422 0 l 425 79 q 333 9 384 33 q 221 -14 281 -14 q 73 60 121 -14 q 54 286 24 135 l 144 734 l 370 734 l 280 285 q 280 191 267 219 q 332 162 294 162 q 387 172 361 162 q 434 201 412 182 l 540 734 l 766 734 l 620 0 l 422 0 m 541 0 q 492 -58 507 -37 q 471 -111 477 -79 q 474 -138 468 -124 q 514 -151 481 -151 q 545 -148 530 -151 q 573 -139 559 -144 l 574 -253 q 517 -274 548 -266 q 448 -283 487 -283 q 335 -244 378 -283 q 304 -138 292 -205 q 349 -39 316 -83 q 442 41 381 5 l 541 0 z "},"Ŵ":{"ha":1152,"x_min":118,"x_max":1255,"o":"m 821 372 l 825 372 l 1037 987 l 1255 987 l 890 0 l 677 0 l 623 578 l 618 578 l 381 0 l 168 0 l 118 987 l 338 987 l 353 374 l 357 373 l 608 987 l 765 987 l 821 372 m 964 1091 l 961 1076 l 785 1076 l 718 1162 l 617 1076 l 444 1076 l 448 1094 l 674 1257 l 801 1257 l 964 1091 z "},"ŵ":{"ha":941,"x_min":102,"x_max":1013,"o":"m 655 342 l 659 341 l 804 734 l 1013 734 l 709 0 l 518 0 l 487 365 l 483 366 l 304 0 l 114 0 l 102 734 l 311 734 l 300 340 l 304 339 l 487 734 l 629 734 l 655 342 m 844 860 l 841 845 l 665 845 l 598 930 l 497 845 l 323 845 l 328 863 l 554 1025 l 681 1025 l 844 860 z "},"Ŷ":{"ha":837,"x_min":139,"x_max":978,"o":"m 473 572 l 477 571 l 732 987 l 978 987 l 541 349 l 471 0 l 245 0 l 317 361 l 139 987 l 384 987 l 473 572 m 846 1091 l 842 1076 l 666 1076 l 600 1162 l 498 1076 l 325 1076 l 329 1094 l 555 1257 l 682 1257 l 846 1091 z "},"ŷ":{"ha":675,"x_min":-54,"x_max":767,"o":"m 338 337 l 342 336 l 526 734 l 767 734 l 330 -109 q 219 -244 281 -191 q 48 -296 158 -296 q 2 -292 21 -296 q -54 -279 -16 -288 l 7 -115 q 18 -118 14 -117 q 29 -119 22 -119 q 103 -103 75 -119 q 147 -56 132 -86 l 172 -9 l 87 734 l 328 734 l 338 337 m 711 860 l 708 845 l 532 845 l 465 930 l 364 845 l 191 845 l 195 863 l 421 1025 l 548 1025 l 711 860 z "},"Ÿ":{"ha":837,"x_min":139,"x_max":978,"o":"m 473 572 l 477 571 l 732 987 l 978 987 l 541 349 l 471 0 l 245 0 l 317 361 l 139 987 l 384 987 l 473 572 m 842 1086 l 652 1086 l 674 1224 l 865 1224 l 842 1086 m 515 1086 l 325 1086 l 347 1224 l 538 1224 l 515 1086 z "},"Ź":{"ha":760,"x_min":-3,"x_max":808,"o":"m 297 176 l 688 176 l 653 0 l 6 0 l -3 103 l 485 811 l 155 811 l 190 987 l 807 987 l 787 888 l 297 176 m 576 1241 l 807 1241 l 808 1237 l 602 1061 l 423 1061 l 422 1064 l 576 1241 z "},"ź":{"ha":675,"x_min":-14,"x_max":717,"o":"m 302 180 l 303 176 l 604 176 l 569 0 l -14 0 l 12 127 l 394 554 l 393 557 l 110 557 l 145 734 l 711 734 l 687 610 l 302 180 m 484 1006 l 715 1006 l 717 1002 l 511 826 l 332 826 l 330 829 l 484 1006 z "},"Ż":{"ha":760,"x_min":-3,"x_max":807,"o":"m 297 176 l 688 176 l 653 0 l 6 0 l -3 103 l 485 811 l 155 811 l 190 987 l 807 987 l 787 888 l 297 176 m 651 1088 l 420 1088 l 455 1265 l 686 1265 l 651 1088 z "},"ż":{"ha":675,"x_min":-14,"x_max":711,"o":"m 302 180 l 303 176 l 604 176 l 569 0 l -14 0 l 12 127 l 394 554 l 393 557 l 110 557 l 145 734 l 711 734 l 687 610 l 302 180 m 559 854 l 328 854 l 363 1030 l 595 1030 l 559 854 z "},"Ž":{"ha":760,"x_min":-3,"x_max":843,"o":"m 297 176 l 688 176 l 653 0 l 6 0 l -3 103 l 485 811 l 155 811 l 190 987 l 807 987 l 787 888 l 297 176 m 560 1196 l 637 1275 l 843 1275 l 840 1264 l 617 1088 l 459 1088 l 306 1265 l 308 1275 l 516 1275 l 560 1196 z "},"ž":{"ha":675,"x_min":-14,"x_max":751,"o":"m 302 180 l 303 176 l 604 176 l 569 0 l -14 0 l 12 127 l 394 554 l 393 557 l 110 557 l 145 734 l 711 734 l 687 610 l 302 180 m 469 962 l 545 1040 l 751 1040 l 749 1029 l 526 853 l 368 853 l 214 1031 l 216 1040 l 425 1040 l 469 962 z "},"ſ":{"ha":352,"x_min":1,"x_max":597,"o":"m 1 0 l 163 810 q 273 1008 190 944 q 492 1072 357 1072 q 541 1068 515 1072 q 597 1058 568 1064 l 547 889 q 517 894 530 892 q 486 896 505 896 q 424 873 450 896 q 390 810 397 850 l 228 0 l 1 0 z "},"ƒ":{"ha":490,"x_min":-129,"x_max":612,"o":"m 508 575 l 377 575 l 282 -10 q 178 -224 259 -153 q -28 -296 98 -296 q -79 -294 -56 -296 q -129 -285 -102 -291 l -92 -112 q -62 -118 -74 -116 q -31 -120 -51 -120 q 23 -92 1 -120 q 56 -10 46 -64 l 149 575 l 52 575 l 77 734 l 174 734 l 186 810 q 289 1007 207 941 q 506 1072 372 1072 q 555 1068 530 1072 q 612 1058 581 1065 l 568 889 q 538 894 551 892 q 505 896 525 896 q 445 873 469 896 q 414 810 420 850 l 402 734 l 533 734 l 508 575 z "},"Ơ":{"ha":922,"x_min":45,"x_max":1158,"o":"m 867 405 q 699 98 828 211 q 391 -14 569 -14 q 136 106 227 -14 q 80 405 45 227 l 116 583 q 284 889 155 776 q 593 1002 414 1002 q 740 968 673 1002 q 850 876 807 935 q 952 953 911 900 q 1009 1082 994 1006 l 1158 1082 q 1067 861 1131 947 q 907 737 1004 775 q 911 662 912 701 q 903 583 910 623 l 867 405 m 677 584 q 669 761 699 696 q 557 825 639 825 q 422 756 481 825 q 342 584 362 688 l 306 405 q 313 227 283 291 q 427 162 344 162 q 560 231 500 162 q 641 405 620 300 l 677 584 z "},"ơ":{"ha":766,"x_min":16,"x_max":913,"o":"m 45 374 q 174 646 72 545 q 437 747 277 747 q 564 722 508 747 q 656 651 619 697 q 722 727 694 679 q 762 839 749 775 l 913 839 q 838 656 890 728 q 705 550 785 585 q 716 466 715 511 q 710 374 718 421 l 708 359 q 578 86 680 187 q 317 -14 475 -14 q 90 91 164 -14 q 43 359 16 195 l 45 374 m 269 359 q 268 213 253 263 q 345 162 283 162 q 433 215 400 162 q 481 359 467 269 l 484 374 q 484 519 498 467 q 409 571 469 571 q 319 516 353 571 q 271 374 285 462 l 269 359 z "},"Ư":{"ha":942,"x_min":44,"x_max":1229,"o":"m 975 987 l 951 868 l 954 867 q 1033 936 1004 879 q 1084 1096 1063 994 l 1227 1096 l 1229 1093 q 1124 827 1195 915 q 922 723 1053 739 l 845 340 q 688 73 809 160 q 392 -14 568 -14 q 137 80 229 -14 q 77 340 44 174 l 207 987 l 434 987 l 304 340 q 317 203 285 243 q 427 162 349 162 q 549 206 498 162 q 618 340 600 250 l 747 987 l 975 987 z "},"ư":{"ha":787,"x_min":24,"x_max":972,"o":"m 971 801 l 972 798 q 891 615 951 680 q 726 530 832 550 l 620 0 l 422 0 l 425 79 q 333 9 384 33 q 221 -14 281 -14 q 73 60 121 -14 q 54 286 24 135 l 144 734 l 370 734 l 280 285 q 280 191 267 219 q 332 162 294 162 q 387 172 361 162 q 434 201 412 182 l 540 734 l 766 734 l 752 666 l 756 665 q 807 711 787 676 q 840 801 828 746 l 971 801 z "},"ǰ":{"ha":396,"x_min":-166,"x_max":598,"o":"m 404 734 l 255 -10 q 143 -227 225 -157 q -66 -296 61 -296 q -117 -294 -92 -296 q -166 -285 -141 -291 l -122 -112 q -93 -118 -104 -116 q -62 -120 -81 -120 q -6 -92 -30 -120 q 29 -10 18 -63 l 178 734 l 404 734 m 315 962 l 392 1040 l 598 1040 l 595 1029 l 372 853 l 214 853 l 61 1031 l 63 1040 l 271 1040 l 315 962 z "},"Ǻ":{"ha":830,"x_min":-51,"x_max":901,"o":"m 538 192 l 265 192 l 176 0 l -51 0 l 439 987 l 682 987 l 779 0 l 551 0 l 538 192 m 347 368 l 526 368 l 505 699 l 500 699 l 347 368 m 711 1471 l 899 1471 l 901 1467 l 686 1318 l 551 1318 l 550 1322 l 711 1471 m 445 1154 q 503 1248 456 1212 q 611 1284 550 1284 q 700 1246 665 1284 q 724 1154 734 1208 q 665 1059 711 1094 q 559 1025 619 1025 q 468 1062 503 1025 q 445 1154 433 1099 m 528 1154 q 534 1108 522 1124 q 573 1093 547 1093 q 615 1109 596 1093 q 641 1154 635 1126 q 634 1200 646 1183 q 597 1216 623 1216 q 553 1198 574 1216 q 528 1154 533 1181 z "},"ǻ":{"ha":692,"x_min":-6,"x_max":787,"o":"m 391 1 q 382 40 386 19 q 378 83 379 60 q 294 12 340 38 q 189 -14 248 -14 q 46 47 98 -14 q 14 207 -6 109 q 122 379 37 323 q 366 435 207 435 l 436 435 l 447 487 q 444 561 456 538 q 392 584 431 584 q 342 565 361 584 q 315 507 322 546 l 96 508 l 95 512 q 207 683 113 619 q 440 747 300 747 q 630 679 560 747 q 674 486 699 610 l 619 209 q 606 98 606 146 q 615 0 606 51 l 391 1 m 292 149 q 343 162 317 149 q 388 194 369 174 l 412 313 l 343 313 q 275 286 301 313 q 242 219 250 259 q 249 168 235 186 q 292 149 263 149 m 598 1253 l 786 1253 l 787 1249 l 573 1099 l 438 1099 l 437 1103 l 598 1253 m 332 935 q 390 1030 342 994 q 498 1066 437 1066 q 587 1028 552 1066 q 610 935 621 989 q 552 841 598 876 q 446 806 506 806 q 355 843 390 806 q 332 935 320 880 m 414 935 q 421 890 408 906 q 460 874 434 874 q 502 891 483 874 q 528 935 522 908 q 521 981 533 965 q 484 998 509 998 q 440 980 460 998 q 414 935 420 962 z "},"Ǽ":{"ha":1227,"x_min":-45,"x_max":1276,"o":"m 1117 0 l 545 0 l 581 223 l 354 223 l 216 0 l -45 0 l 608 987 l 1276 987 l 1240 808 l 900 808 l 866 594 l 1146 594 l 1110 415 l 837 415 l 799 179 l 1153 179 l 1117 0 m 610 406 l 658 705 l 654 706 l 468 406 l 610 406 m 786 1239 l 1017 1239 l 1019 1235 l 812 1059 l 633 1059 l 632 1062 l 786 1239 z "},"ǽ":{"ha":1098,"x_min":-8,"x_max":1122,"o":"m 722 -14 q 591 11 648 -14 q 500 85 534 37 q 386 13 452 41 q 237 -14 319 -14 q 54 50 115 -14 q 13 220 -8 114 q 130 389 36 334 q 389 444 224 444 l 483 444 l 489 475 q 483 547 498 523 q 431 571 468 571 q 366 551 394 571 q 333 502 338 531 l 117 514 l 115 518 q 229 686 133 624 q 469 747 325 747 q 571 733 524 747 q 652 691 618 718 q 751 733 697 719 q 867 747 804 747 q 1058 656 993 747 q 1093 415 1122 565 l 1069 295 l 684 295 l 682 292 q 697 195 672 229 q 789 162 722 162 q 882 173 840 162 q 975 208 924 184 l 1001 68 q 875 9 952 33 q 722 -14 798 -14 m 311 143 q 373 159 337 143 q 433 198 408 176 l 453 294 q 453 298 453 296 q 454 306 453 300 l 363 306 q 281 279 316 306 q 239 217 245 252 q 248 161 231 179 q 311 143 266 143 m 832 571 q 756 537 785 571 q 712 441 727 503 l 714 438 l 877 438 l 880 456 q 879 542 892 513 q 832 571 867 571 m 701 1021 l 932 1021 l 933 1017 l 727 841 l 548 841 l 547 844 l 701 1021 z "},"Ǿ":{"ha":903,"x_min":60,"x_max":963,"o":"m 867 405 q 699 98 829 211 q 392 -14 570 -14 q 303 -4 345 -14 q 227 28 262 7 l 159 -64 l 67 -64 l 167 72 q 83 216 107 130 q 81 405 60 302 l 117 583 q 285 889 155 776 q 593 1002 414 1002 q 706 983 653 1002 q 800 931 758 965 l 871 1029 l 963 1029 l 850 877 q 906 744 892 819 q 903 583 920 669 l 867 405 m 307 405 q 297 324 298 360 q 304 264 296 288 l 308 262 l 671 758 q 628 808 656 790 q 558 825 600 825 q 422 756 482 825 q 342 584 363 688 l 307 405 m 677 584 q 683 619 681 603 q 686 646 686 635 l 682 647 l 344 188 q 380 169 359 175 q 427 162 401 162 q 561 231 501 162 q 642 405 621 300 l 677 584 m 663 1281 l 895 1281 l 896 1277 l 690 1101 l 511 1101 l 509 1104 l 663 1281 z "},"ǿ":{"ha":735,"x_min":23,"x_max":743,"o":"m 46 374 q 176 646 73 545 q 438 747 278 747 q 502 742 471 747 q 559 725 532 736 l 626 827 l 743 827 l 641 670 q 707 543 689 619 q 711 374 726 466 l 709 359 q 579 86 682 187 q 318 -14 477 -14 q 259 -9 288 -14 q 206 4 231 -5 l 140 -98 l 23 -98 l 123 55 q 48 183 69 104 q 44 359 28 262 l 46 374 m 271 359 q 264 311 266 332 q 262 277 262 290 l 267 275 l 453 561 q 433 568 444 566 q 410 571 422 571 q 320 516 354 571 q 273 374 286 462 l 271 359 m 485 374 q 490 408 488 392 q 492 433 492 424 l 488 435 l 313 167 q 328 163 319 164 q 346 162 336 162 q 435 215 401 162 q 483 359 468 269 l 485 374 m 496 1017 l 728 1017 l 729 1013 l 523 836 l 344 836 l 342 840 l 496 1017 z "},"Ș":{"ha":826,"x_min":33,"x_max":838,"o":"m 549 246 q 532 336 561 308 q 418 403 504 364 q 178 540 256 460 q 125 740 100 619 q 256 933 150 865 q 510 1002 362 1002 q 751 920 664 1002 q 808 699 838 839 l 806 695 l 585 695 q 566 790 597 755 q 475 825 534 825 q 396 801 433 825 q 353 741 359 776 q 374 659 341 685 q 519 588 406 633 q 733 456 665 536 q 775 248 801 376 q 645 52 749 117 q 391 -14 541 -14 q 137 60 241 -14 q 68 288 33 134 l 69 292 l 290 292 q 317 190 274 218 q 426 162 360 162 q 504 186 467 162 q 549 246 542 210 m 406 -177 l 286 -336 l 197 -336 l 270 -170 l 292 -61 l 429 -61 l 406 -177 z "},"ș":{"ha":669,"x_min":-2,"x_max":680,"o":"m 397 206 q 378 255 401 234 q 283 293 354 276 q 116 371 169 318 q 78 515 63 424 q 180 682 94 616 q 399 747 267 747 q 606 681 532 747 q 661 513 680 615 l 659 509 l 438 509 q 431 575 445 553 q 375 597 416 597 q 322 577 347 597 q 293 527 298 557 q 310 477 288 497 q 406 441 332 457 q 579 362 528 414 q 616 213 631 309 q 507 48 599 110 q 277 -14 416 -14 q 71 62 143 -14 q 16 231 -2 139 l 18 235 l 223 235 q 237 160 216 182 q 307 137 258 137 q 368 155 345 137 q 397 206 392 174 m 305 -177 l 185 -336 l 97 -336 l 170 -170 l 191 -61 l 328 -61 l 305 -177 z "},"Ț":{"ha":730,"x_min":123,"x_max":854,"o":"m 819 811 l 583 811 l 421 0 l 194 0 l 356 811 l 123 811 l 158 987 l 854 987 l 819 811 m 400 14 l 385 -28 q 443 -63 422 -35 q 454 -145 464 -92 q 368 -270 437 -227 q 186 -311 300 -312 l 182 -309 l 202 -187 q 239 -174 223 -187 q 260 -135 254 -161 q 249 -98 264 -108 q 189 -85 233 -88 l 229 14 l 400 14 z "},"ț":{"ha":479,"x_min":63,"x_max":526,"o":"m 451 916 l 414 734 l 526 734 l 495 575 l 382 575 l 315 239 q 318 181 307 197 q 353 165 328 165 q 384 166 372 165 q 414 172 395 168 l 396 2 q 329 -11 358 -7 q 259 -14 299 -14 q 110 47 157 -14 q 90 237 63 109 l 157 575 l 64 575 l 95 734 l 189 734 l 225 916 l 451 916 m 305 7 l 290 -35 q 348 -70 328 -42 q 359 -152 369 -98 q 273 -276 342 -234 q 91 -317 205 -319 l 87 -315 l 107 -194 q 144 -181 128 -194 q 165 -142 159 -168 q 154 -105 170 -115 q 94 -92 138 -95 l 134 7 l 305 7 z "},"ȷ":{"ha":396,"x_min":-166,"x_max":404,"o":"m 404 734 l 255 -10 q 143 -227 225 -157 q -66 -296 61 -296 q -117 -294 -92 -296 q -166 -285 -141 -291 l -122 -112 q -93 -118 -104 -116 q -62 -120 -81 -120 q -6 -92 -30 -120 q 29 -10 18 -63 l 178 734 l 404 734 z "},"ə":{"ha":692,"x_min":20,"x_max":711,"o":"m 418 749 q 636 645 561 749 q 682 392 711 542 l 676 366 q 539 87 640 187 q 283 -13 439 -14 q 85 78 151 -13 q 50 319 20 168 l 75 439 l 456 439 l 458 443 q 437 537 463 501 q 352 572 411 572 q 256 562 296 572 q 157 527 216 551 l 132 667 q 259 725 182 701 q 418 749 336 749 m 318 163 q 385 198 357 163 q 429 293 412 233 l 428 296 l 266 296 l 262 279 q 263 191 250 218 q 318 163 275 163 z "},"ʼ":{"ha":262,"x_min":110,"x_max":401,"o":"m 374 926 l 220 689 l 110 689 l 195 927 l 221 1058 l 401 1058 l 374 926 z "},"ˆ":{"ha":669,"x_min":189,"x_max":710,"o":"m 710 864 l 707 849 l 530 849 l 464 935 l 363 849 l 189 849 l 193 867 l 420 1029 l 547 1029 l 710 864 z "},"ˇ":{"ha":639,"x_min":198,"x_max":735,"o":"m 452 958 l 529 1036 l 735 1036 l 732 1025 l 509 849 l 351 849 l 198 1027 l 200 1036 l 408 1036 l 452 958 z "},"˘":{"ha":595,"x_min":157,"x_max":642,"o":"m 640 987 l 642 983 q 557 834 629 890 q 375 779 484 779 q 214 837 271 779 q 174 983 157 895 l 176 987 l 339 987 q 347 935 334 954 q 397 915 361 915 q 451 936 431 915 q 477 987 472 956 l 640 987 z "},"˙":{"ha":437,"x_min":197,"x_max":463,"o":"m 428 824 l 197 824 l 232 1000 l 463 1000 l 428 824 z "},"˚":{"ha":433,"x_min":187,"x_max":486,"o":"m 199 878 q 256 972 210 936 q 363 1008 303 1008 q 451 970 417 1008 q 475 878 486 932 q 417 784 463 818 q 312 749 371 749 q 222 786 256 749 q 199 878 187 823 m 278 878 q 285 830 272 847 q 325 814 298 814 q 369 831 349 814 q 395 878 389 849 q 388 926 400 909 q 351 943 376 943 q 304 924 326 943 q 278 878 283 906 z "},"˛":{"ha":422,"x_min":-39,"x_max":243,"o":"m 210 0 q 161 -58 176 -37 q 140 -111 146 -79 q 143 -138 137 -124 q 183 -151 150 -151 q 214 -148 199 -151 q 242 -139 229 -144 l 243 -253 q 186 -274 217 -266 q 117 -283 156 -283 q 4 -244 47 -283 q -26 -138 -39 -205 q 18 -39 -15 -83 q 111 41 50 5 l 210 0 z "},"˜":{"ha":637,"x_min":165,"x_max":684,"o":"m 684 1004 q 628 891 673 937 q 525 846 583 846 q 427 874 484 846 q 336 903 370 903 q 300 881 317 903 q 278 828 283 859 l 165 862 q 221 974 176 928 q 324 1020 266 1020 q 418 992 357 1020 q 512 964 479 964 q 548 985 530 964 q 572 1038 566 1007 l 684 1004 z "},"˝":{"ha":602,"x_min":221,"x_max":854,"o":"m 653 1029 l 853 1029 l 854 1025 l 644 849 l 469 849 l 468 853 l 653 1029 m 382 1029 l 585 1029 l 587 1025 l 399 849 l 222 849 l 221 852 l 382 1029 z "},"˳":{"ha":423,"x_min":-3,"x_max":267,"o":"m 6 -153 q 59 -67 16 -100 q 156 -35 101 -35 q 236 -69 205 -35 q 257 -153 267 -103 q 205 -237 246 -205 q 109 -268 163 -268 q 27 -234 58 -268 q 6 -153 -3 -201 m 88 -153 q 93 -187 83 -174 q 123 -200 102 -200 q 155 -186 140 -200 q 174 -153 170 -173 q 170 -116 178 -129 q 142 -104 161 -104 q 107 -117 123 -104 q 88 -153 92 -131 z "},"̀":{"ha":7,"x_min":-347,"x_max":-131,"o":"m -131 807 l -262 807 l -347 1006 l -179 1006 l -131 807 z "},"́":{"ha":7,"x_min":-431,"x_max":-139,"o":"m -305 1012 l -141 1012 l -139 1008 l -300 813 l -431 813 l -305 1012 z "},"̃":{"ha":7,"x_min":-508,"x_max":11,"o":"m 11 1004 q -45 891 0 937 q -149 846 -90 846 q -247 874 -190 846 q -337 903 -304 903 q -373 881 -356 903 q -395 828 -391 859 l -508 862 q -452 974 -497 928 q -349 1020 -408 1020 q -255 992 -316 1020 q -161 964 -195 964 q -125 985 -143 964 q -102 1038 -107 1007 l 11 1004 z "},"̉":{"ha":7,"x_min":-361,"x_max":-56,"o":"m -361 865 l -359 951 q -292 962 -313 953 q -267 994 -270 972 q -281 1028 -261 1018 q -338 1038 -300 1038 l -314 1137 q -117 1103 -179 1137 q -69 1003 -56 1070 q -109 937 -77 961 q -181 907 -141 913 l -190 865 l -361 865 z "},"̏":{"ha":7,"x_min":-527,"x_max":42,"o":"m -205 849 l -385 849 l -527 1029 l -321 1029 l -205 849 m 42 849 l -140 849 l -258 1029 l -50 1029 l 42 849 z "},"̣":{"ha":7,"x_min":-608,"x_max":-319,"o":"m -354 -245 l -608 -245 l -572 -69 l -319 -69 l -354 -245 z "},"΄":{"ha":511,"x_min":286,"x_max":589,"o":"m 385 1097 l 587 1097 l 589 1094 l 397 863 l 286 863 l 385 1097 z "},"΅":{"ha":751,"x_min":208,"x_max":783,"o":"m 755 849 l 571 849 l 599 987 l 783 987 l 755 849 m 393 849 l 208 849 l 236 987 l 420 987 l 393 849 m 524 1200 l 725 1200 l 726 1197 l 560 1006 l 461 1006 l 524 1200 z "},"Ά":{"ha":830,"x_min":-51,"x_max":779,"o":"m 538 192 l 265 192 l 176 0 l -51 0 l 439 987 l 682 987 l 779 0 l 551 0 l 538 192 m 347 368 l 526 368 l 505 699 l 500 699 l 347 368 m 233 1097 l 435 1097 l 437 1094 l 245 863 l 134 863 l 233 1097 z "},"·":{"ha":431,"x_min":118,"x_max":380,"o":"m 342 366 l 118 366 l 157 558 l 380 558 l 342 366 z "},"Έ":{"ha":809,"x_min":-7,"x_max":924,"o":"m 746 422 l 393 422 l 344 176 l 761 176 l 726 0 l 81 0 l 279 987 l 924 987 l 889 811 l 471 811 l 428 599 l 781 599 l 746 422 m 92 1099 l 295 1099 l 296 1095 l 105 864 l -7 864 l 92 1099 z "},"Ή":{"ha":985,"x_min":17,"x_max":1053,"o":"m 856 0 l 630 0 l 709 397 l 388 397 l 309 0 l 81 0 l 279 987 l 506 987 l 423 574 l 745 574 l 827 987 l 1053 987 l 856 0 m 116 1096 l 319 1096 l 320 1093 l 129 861 l 17 861 l 116 1096 z "},"Ί":{"ha":464,"x_min":24,"x_max":518,"o":"m 321 0 l 95 0 l 292 987 l 518 987 l 321 0 m 123 1099 l 326 1099 l 327 1095 l 136 864 l 24 864 l 123 1099 z "},"Ό":{"ha":905,"x_min":54,"x_max":946,"o":"m 876 405 q 715 97 836 209 q 418 -14 594 -14 q 153 107 253 -14 q 89 405 54 228 l 125 583 q 282 890 164 779 q 576 1002 400 1002 q 844 880 741 1002 q 911 583 946 758 l 876 405 m 686 584 q 666 759 707 692 q 541 825 624 825 q 419 760 467 825 q 351 584 372 694 l 315 405 q 331 228 292 294 q 454 162 369 162 q 577 229 526 162 q 650 405 628 296 l 686 584 m 178 1097 l 380 1097 l 382 1094 l 191 863 l 79 863 l 178 1097 z "},"Ύ":{"ha":905,"x_min":-26,"x_max":1046,"o":"m 541 572 l 545 571 l 800 987 l 1046 987 l 608 349 l 538 0 l 313 0 l 385 361 l 207 987 l 452 987 l 541 572 m 73 1097 l 275 1097 l 277 1094 l 85 863 l -26 863 l 73 1097 z "},"Ώ":{"ha":894,"x_min":41,"x_max":916,"o":"m 444 109 l 449 136 l 458 179 l 458 182 q 542 293 503 209 q 612 534 581 378 l 623 589 q 629 766 647 711 q 557 818 611 821 l 553 819 q 461 761 505 821 q 397 589 418 701 l 386 534 q 357 286 351 364 q 401 182 363 208 l 401 179 l 387 109 l 365 0 l 41 0 l 77 179 l 236 179 q 137 331 168 238 q 127 534 105 425 l 138 588 q 300 891 176 781 q 591 1002 423 1002 q 830 884 744 1002 q 880 588 916 766 l 869 534 q 780 327 846 418 q 625 179 713 236 l 782 179 l 746 0 l 422 0 l 444 109 m 167 1097 l 370 1097 l 371 1094 l 180 863 l 68 863 l 167 1097 z "},"ΐ":{"ha":444,"x_min":14,"x_max":588,"o":"m 383 733 l 284 237 q 283 178 275 193 q 320 163 292 163 q 349 164 338 163 q 386 172 359 165 l 367 2 q 307 -11 334 -7 q 243 -14 279 -14 q 84 50 137 -14 q 57 237 32 115 l 156 733 l 383 733 m 560 809 l 376 809 l 404 947 l 588 947 l 560 809 m 198 809 l 14 809 l 41 947 l 226 947 l 198 809 m 329 1160 l 530 1160 l 532 1157 l 366 966 l 267 966 l 329 1160 z "},"Α":{"ha":830,"x_min":-51,"x_max":779,"o":"m 538 192 l 265 192 l 176 0 l -51 0 l 439 987 l 682 987 l 779 0 l 551 0 l 538 192 m 347 368 l 526 368 l 505 699 l 500 699 l 347 368 z "},"Β":{"ha":840,"x_min":14,"x_max":871,"o":"m 14 0 l 211 987 l 532 987 q 783 918 694 987 q 845 716 871 848 q 789 588 829 642 q 677 507 748 534 q 780 429 754 488 q 791 292 806 370 q 657 70 760 139 q 379 0 554 0 l 14 0 m 326 424 l 276 176 l 414 176 q 514 206 475 176 q 566 294 553 235 q 558 393 578 362 q 476 424 538 424 l 326 424 m 355 576 l 452 576 q 559 607 517 577 q 613 690 601 636 q 598 784 626 758 q 496 811 570 811 l 403 811 l 355 576 z "},"Γ":{"ha":728,"x_min":14,"x_max":832,"o":"m 797 811 l 404 811 l 241 0 l 14 0 l 211 987 l 832 987 l 797 811 z "},"Δ":{"ha":968,"x_min":-45,"x_max":912,"o":"m 628 987 l 629 986 l 631 987 l 751 987 l 912 0 l -45 0 l 508 987 l 628 987 m 289 176 l 648 176 l 574 698 l 570 699 l 289 176 z "},"Ε":{"ha":741,"x_min":14,"x_max":857,"o":"m 678 422 l 325 422 l 276 176 l 693 176 l 658 0 l 14 0 l 211 987 l 857 987 l 821 811 l 403 811 l 360 599 l 713 599 l 678 422 z "},"Ζ":{"ha":760,"x_min":-3,"x_max":807,"o":"m 297 176 l 688 176 l 653 0 l 6 0 l -3 103 l 485 811 l 155 811 l 190 987 l 807 987 l 787 888 l 297 176 z "},"Η":{"ha":918,"x_min":14,"x_max":985,"o":"m 788 0 l 562 0 l 642 397 l 320 397 l 241 0 l 14 0 l 211 987 l 438 987 l 355 574 l 677 574 l 760 987 l 985 987 l 788 0 z "},"Θ":{"ha":903,"x_min":37,"x_max":929,"o":"m 570 399 l 384 399 l 419 575 l 605 575 l 570 399 m 859 405 q 698 97 819 209 q 401 -14 577 -14 q 136 107 236 -14 q 72 405 37 228 l 108 583 q 265 890 147 779 q 559 1002 383 1002 q 827 880 724 1002 q 895 583 929 758 l 859 405 m 669 584 q 649 759 690 692 q 524 825 607 825 q 402 760 450 825 q 334 584 355 694 l 298 405 q 314 228 275 294 q 437 162 352 162 q 560 229 509 162 q 633 405 611 296 l 669 584 z "},"Ι":{"ha":396,"x_min":27,"x_max":450,"o":"m 253 0 l 27 0 l 224 987 l 450 987 l 253 0 z "},"Κ":{"ha":844,"x_min":17,"x_max":959,"o":"m 393 392 l 322 392 l 244 0 l 17 0 l 214 987 l 441 987 l 363 597 l 433 597 l 660 987 l 959 987 l 603 500 l 772 0 l 511 0 l 393 392 z "},"Λ":{"ha":839,"x_min":-55,"x_max":779,"o":"m 184 0 l -55 0 l 438 987 l 681 987 l 779 0 l 541 0 l 520 720 l 519 774 l 515 774 l 493 722 l 184 0 z "},"Μ":{"ha":1131,"x_min":14,"x_max":1199,"o":"m 509 987 l 564 298 l 568 297 l 901 987 l 1199 987 l 1002 0 l 774 0 l 823 245 l 928 668 l 924 669 l 583 0 l 430 0 l 357 663 l 353 663 l 290 245 l 241 0 l 14 0 l 211 987 l 509 987 z "},"Ν":{"ha":918,"x_min":14,"x_max":985,"o":"m 788 0 l 562 0 l 366 606 l 362 606 l 241 0 l 14 0 l 211 987 l 438 987 l 633 381 l 637 382 l 759 987 l 985 987 l 788 0 z "},"Ξ":{"ha":739,"x_min":-2,"x_max":798,"o":"m 33 176 l 671 176 l 635 0 l -2 0 l 33 176 m 195 581 l 673 581 l 640 412 l 162 412 l 195 581 m 217 987 l 798 987 l 762 811 l 182 811 l 217 987 z "},"Ο":{"ha":892,"x_min":40,"x_max":932,"o":"m 862 405 q 702 97 823 209 q 405 -14 581 -14 q 140 107 239 -14 q 75 405 40 228 l 111 583 q 269 890 151 779 q 562 1002 387 1002 q 830 880 728 1002 q 898 583 932 758 l 862 405 m 672 584 q 652 759 694 692 q 527 825 610 825 q 406 760 453 825 q 337 584 359 694 l 301 405 q 317 228 279 294 q 440 162 355 162 q 564 229 513 162 q 636 405 614 296 l 672 584 z "},"Π":{"ha":917,"x_min":14,"x_max":985,"o":"m 788 0 l 562 0 l 724 811 l 403 811 l 241 0 l 14 0 l 211 987 l 985 987 l 788 0 z "},"Ρ":{"ha":860,"x_min":14,"x_max":913,"o":"m 308 338 l 241 0 l 14 0 l 211 987 l 590 987 q 828 896 744 987 q 884 663 913 805 q 741 423 853 508 q 460 338 629 338 l 308 338 m 343 515 l 496 515 q 601 556 557 515 q 658 661 645 598 q 646 771 671 730 q 555 811 621 811 l 403 811 l 343 515 z "},"Σ":{"ha":739,"x_min":-7,"x_max":838,"o":"m 593 496 l 330 180 l 331 176 l 684 176 l 648 0 l -7 0 l 13 103 l 355 500 l 170 886 l 190 987 l 838 987 l 803 811 l 456 811 l 595 505 l 593 496 z "},"Τ":{"ha":730,"x_min":123,"x_max":854,"o":"m 819 811 l 583 811 l 421 0 l 194 0 l 356 811 l 123 811 l 158 987 l 854 987 l 819 811 z "},"Υ":{"ha":837,"x_min":139,"x_max":978,"o":"m 473 572 l 477 571 l 732 987 l 978 987 l 541 349 l 471 0 l 245 0 l 317 361 l 139 987 l 384 987 l 473 572 z "},"Φ":{"ha":1036,"x_min":55,"x_max":1069,"o":"m 755 876 q 987 759 905 865 q 1037 488 1069 653 q 885 215 1002 311 q 602 112 769 119 l 580 0 l 353 0 l 376 112 q 139 222 222 120 q 87 486 55 325 q 242 768 124 668 q 528 876 359 868 l 551 987 l 777 987 l 755 876 m 309 486 q 319 354 291 397 q 411 308 348 310 l 415 309 l 488 675 l 484 677 q 375 623 425 673 q 309 486 326 573 m 816 488 q 807 629 834 582 q 719 678 781 675 l 715 677 l 642 311 l 645 309 q 751 360 703 313 q 816 488 799 407 z "},"Χ":{"ha":835,"x_min":-37,"x_max":926,"o":"m 469 660 l 473 659 l 665 987 l 926 987 l 589 498 l 789 0 l 514 0 l 425 334 l 420 335 l 224 0 l -37 0 l 308 498 l 127 987 l 387 987 l 469 660 z "},"Ψ":{"ha":968,"x_min":61,"x_max":1086,"o":"m 633 433 l 636 431 q 732 497 693 441 q 793 657 772 554 l 859 987 l 1086 987 l 1020 657 q 871 361 981 464 q 595 243 761 259 l 547 0 l 321 0 l 369 242 q 138 367 215 258 q 98 657 61 477 l 163 987 l 389 987 l 323 657 q 321 494 301 549 q 402 430 342 439 l 406 430 l 518 987 l 744 987 l 633 433 z "},"Ω":{"ha":880,"x_min":28,"x_max":902,"o":"m 430 109 l 435 136 l 444 179 l 445 182 q 528 293 489 209 q 599 534 567 378 l 610 589 q 615 766 633 711 q 543 818 597 821 l 539 819 q 448 761 491 821 q 383 589 405 701 l 372 534 q 343 286 338 364 q 388 182 349 208 l 387 179 l 373 109 l 351 0 l 28 0 l 64 179 l 222 179 q 123 331 155 238 q 114 534 92 425 l 124 588 q 286 891 163 781 q 577 1002 410 1002 q 816 884 730 1002 q 866 588 902 766 l 856 534 q 766 327 832 418 q 612 179 700 236 l 768 179 l 732 0 l 408 0 l 430 109 z "},"Ϊ":{"ha":396,"x_min":27,"x_max":639,"o":"m 253 0 l 27 0 l 224 987 l 450 987 l 253 0 m 616 1086 l 426 1086 l 448 1224 l 639 1224 l 616 1086 m 290 1086 l 99 1086 l 121 1224 l 312 1224 l 290 1086 z "},"Ϋ":{"ha":837,"x_min":139,"x_max":978,"o":"m 473 572 l 477 571 l 732 987 l 978 987 l 541 349 l 471 0 l 245 0 l 317 361 l 139 987 l 384 987 l 473 572 m 842 1086 l 652 1086 l 674 1224 l 865 1224 l 842 1086 m 515 1086 l 325 1086 l 347 1224 l 538 1224 l 515 1086 z "},"ά":{"ha":734,"x_min":18,"x_max":753,"o":"m 753 733 l 657 251 q 652 181 646 199 q 680 163 658 163 q 685 164 683 163 q 688 165 687 164 l 673 0 q 631 -11 650 -8 q 589 -14 613 -14 q 487 14 528 -14 q 429 99 445 43 q 344 15 390 44 q 244 -14 298 -14 q 72 88 125 -14 q 51 351 18 190 l 54 366 q 178 648 90 548 q 397 747 267 747 q 473 722 441 747 q 523 650 504 696 l 555 733 l 753 733 m 279 351 q 271 209 259 256 q 337 162 283 162 q 384 172 362 162 q 422 203 406 182 q 425 225 423 214 q 430 251 427 237 l 486 531 q 460 561 477 550 q 420 571 444 571 q 335 513 372 571 q 281 366 299 456 l 279 351 m 503 1044 l 705 1044 l 707 1040 l 515 809 l 404 809 l 503 1044 z "},"έ":{"ha":739,"x_min":24,"x_max":762,"o":"m 45 208 q 100 316 58 273 q 211 380 142 359 q 137 446 161 405 q 122 533 113 486 q 242 694 144 641 q 490 747 340 747 q 685 685 608 747 q 739 525 762 623 l 737 521 l 517 521 q 503 569 523 554 q 443 584 483 584 q 376 562 403 584 q 344 512 349 540 q 357 462 337 479 q 420 446 378 446 l 531 446 l 522 399 l 522 399 l 503 305 l 392 305 q 314 287 347 305 q 274 228 281 268 q 288 172 267 194 q 355 149 308 149 q 431 168 401 149 q 467 217 460 187 l 685 217 l 686 213 q 567 41 666 95 q 338 -14 467 -14 q 113 47 201 -14 q 45 208 24 107 m 496 1043 l 699 1043 l 700 1040 l 509 808 l 397 808 l 496 1043 z "},"ή":{"ha":734,"x_min":-1,"x_max":741,"o":"m 347 638 q 445 719 391 691 q 559 747 499 747 q 696 673 652 747 q 710 441 741 598 l 566 -282 l 339 -282 l 484 442 q 486 544 498 517 q 436 571 473 571 q 379 558 407 571 q 328 521 352 545 l 224 0 l -1 0 l 145 734 l 358 734 l 347 638 m 477 1044 l 680 1044 l 682 1040 l 490 809 l 378 809 l 477 1044 z "},"ί":{"ha":444,"x_min":32,"x_max":506,"o":"m 383 733 l 284 237 q 283 178 275 193 q 320 163 292 163 q 349 164 338 163 q 386 172 359 165 l 367 2 q 307 -11 334 -7 q 243 -14 279 -14 q 84 50 137 -14 q 57 237 32 115 l 156 733 l 383 733 m 302 1029 l 505 1029 l 506 1025 l 315 794 l 203 794 l 302 1029 z "},"ΰ":{"ha":734,"x_min":35,"x_max":777,"o":"m 377 734 l 294 319 q 293 195 276 228 q 350 162 309 162 q 434 227 397 162 q 490 384 471 292 q 508 558 505 470 q 504 734 511 646 l 713 734 q 733 576 731 665 q 715 384 735 488 q 584 86 675 187 q 321 -14 493 -14 q 108 70 180 -14 q 68 320 35 154 l 151 734 l 377 734 m 749 810 l 565 810 l 593 948 l 777 948 l 749 810 m 387 810 l 202 810 l 230 948 l 414 948 l 387 810 m 517 1161 l 719 1161 l 720 1158 l 554 967 l 455 967 l 517 1161 z "},"α":{"ha":734,"x_min":18,"x_max":753,"o":"m 753 733 l 657 251 q 652 181 646 199 q 680 163 658 163 q 685 164 683 163 q 688 165 687 164 l 673 0 q 631 -11 650 -8 q 589 -14 613 -14 q 487 14 528 -14 q 429 99 445 43 q 344 15 390 44 q 244 -14 298 -14 q 72 88 125 -14 q 51 351 18 190 l 54 366 q 178 648 90 548 q 397 747 267 747 q 473 722 441 747 q 523 650 504 696 l 555 733 l 753 733 m 279 351 q 271 209 259 256 q 337 162 283 162 q 384 172 362 162 q 422 203 406 182 q 425 225 423 214 q 430 251 427 237 l 486 531 q 460 561 477 550 q 420 571 444 571 q 335 513 372 571 q 281 366 299 456 l 279 351 z "},"β":{"ha":792,"x_min":-29,"x_max":834,"o":"m 550 1002 q 760 931 686 1002 q 809 734 834 861 q 750 602 793 659 q 642 513 706 545 q 741 422 710 484 q 755 277 772 361 q 640 57 725 128 q 419 -14 555 -14 q 337 -3 378 -14 q 260 33 295 9 l 197 -281 l -29 -281 l 165 690 q 302 921 195 840 q 550 1002 409 1002 m 399 425 l 414 497 l 431 581 l 463 581 q 536 615 507 581 q 579 713 566 648 q 573 794 589 763 q 515 825 557 825 q 439 789 473 825 q 392 690 404 752 l 291 185 q 335 168 309 174 q 395 162 361 162 q 481 197 442 162 q 530 281 519 231 q 523 392 546 359 q 441 425 500 425 l 399 425 z "},"γ":{"ha":675,"x_min":90,"x_max":758,"o":"m 520 734 l 758 734 l 393 0 l 390 0 l 334 -283 l 108 -283 l 164 0 l 163 0 l 90 734 l 329 734 l 326 302 l 323 235 l 328 234 l 353 302 l 520 734 z "},"δ":{"ha":734,"x_min":12,"x_max":775,"o":"m 775 987 l 740 811 l 519 811 q 674 620 608 740 q 716 374 741 500 l 713 359 q 572 84 677 182 q 307 -14 467 -14 q 85 83 159 -14 q 43 332 12 181 l 45 347 q 157 573 73 487 q 349 682 240 660 q 289 768 322 725 q 221 847 256 811 l 249 987 l 775 987 m 275 359 q 268 212 255 261 q 342 162 281 162 q 433 216 397 162 q 487 359 469 269 l 490 374 q 490 494 504 446 q 444 567 476 543 q 434 570 439 569 q 422 571 429 571 q 332 516 368 571 q 277 374 295 461 l 275 359 z "},"ε":{"ha":739,"x_min":24,"x_max":762,"o":"m 45 208 q 100 316 58 273 q 211 380 142 359 q 137 446 161 405 q 122 533 113 486 q 242 694 144 641 q 490 747 340 747 q 685 685 608 747 q 739 525 762 623 l 737 521 l 517 521 q 503 569 523 554 q 443 584 483 584 q 376 562 403 584 q 344 512 349 540 q 357 462 337 479 q 420 446 378 446 l 531 446 l 522 399 l 522 399 l 503 305 l 392 305 q 314 287 347 305 q 274 228 281 268 q 288 172 267 194 q 355 149 308 149 q 431 168 401 149 q 467 217 460 187 l 685 217 l 686 213 q 567 41 666 95 q 338 -14 467 -14 q 113 47 201 -14 q 45 208 24 107 z "},"ζ":{"ha":648,"x_min":22,"x_max":756,"o":"m 756 987 l 732 867 l 444 572 q 329 433 366 491 q 276 298 292 376 q 284 202 262 231 q 369 172 307 172 l 408 172 q 537 119 492 172 q 565 -25 583 66 q 471 -189 545 -116 q 279 -290 396 -262 l 239 -136 q 309 -98 283 -119 q 341 -47 334 -77 q 332 -12 346 -23 q 278 0 318 0 l 251 0 q 78 77 134 0 q 43 258 22 155 q 121 459 68 382 q 293 663 173 535 l 433 808 l 431 812 l 143 812 l 178 987 l 756 987 z "},"η":{"ha":734,"x_min":-1,"x_max":741,"o":"m 347 638 q 445 719 391 691 q 559 747 499 747 q 696 673 652 747 q 710 441 741 598 l 566 -282 l 339 -282 l 484 442 q 486 544 498 517 q 436 571 473 571 q 379 558 407 571 q 328 521 352 545 l 224 0 l -1 0 l 145 734 l 358 734 l 347 638 z "},"θ":{"ha":785,"x_min":52,"x_max":817,"o":"m 736 390 q 589 81 694 176 q 334 -14 485 -14 q 123 90 194 -14 q 91 390 52 193 l 132 597 q 278 906 174 810 q 535 1002 382 1002 q 745 898 674 1002 q 778 597 817 793 l 736 390 m 515 414 l 321 414 l 314 376 q 304 208 289 252 q 368 167 319 163 l 372 166 q 449 213 414 163 q 508 376 485 262 l 515 414 m 355 582 l 549 582 l 555 613 q 564 779 579 734 q 501 821 549 824 l 497 821 q 419 774 454 824 q 361 613 383 724 l 355 582 z "},"ι":{"ha":444,"x_min":32,"x_max":386,"o":"m 383 733 l 284 237 q 283 178 275 193 q 320 163 292 163 q 349 164 338 163 q 386 172 359 165 l 367 2 q 307 -11 334 -7 q 243 -14 279 -14 q 84 50 137 -14 q 57 237 32 115 l 156 733 l 383 733 z "},"κ":{"ha":798,"x_min":18,"x_max":859,"o":"m 365 256 l 294 256 l 243 0 l 18 0 l 164 734 l 390 734 l 337 470 l 391 470 l 572 734 l 857 734 l 859 730 l 572 394 l 718 0 l 427 0 l 365 256 z "},"λ":{"ha":680,"x_min":-63,"x_max":712,"o":"m 178 0 l -63 0 l 311 728 l 291 791 q 263 836 284 819 q 213 852 243 852 q 192 851 205 852 q 172 848 178 850 l 199 1012 q 257 1025 236 1021 q 308 1029 279 1029 q 457 974 411 1029 q 517 843 503 918 l 629 250 q 644 199 632 220 q 679 172 656 179 q 693 169 684 170 q 712 168 703 168 l 659 -3 q 603 -8 629 -7 q 547 -6 576 -9 q 429 75 463 3 q 387 233 395 147 l 363 430 l 359 430 l 352 410 l 178 0 z "},"μ":{"ha":844,"x_min":-29,"x_max":827,"o":"m 400 734 l 314 302 q 315 191 298 217 q 383 165 332 165 q 448 181 418 165 q 500 227 477 197 l 602 734 l 827 734 l 681 0 l 468 0 l 471 27 q 408 -4 441 6 q 337 -14 374 -14 q 293 -8 314 -14 q 255 7 273 -3 l 197 -282 l -29 -282 l 174 734 l 400 734 z "},"ν":{"ha":675,"x_min":71,"x_max":739,"o":"m 323 302 l 324 235 l 328 234 l 351 302 l 501 734 l 739 734 l 403 0 l 173 0 l 71 734 l 310 734 l 323 302 z "},"ξ":{"ha":720,"x_min":39,"x_max":785,"o":"m 785 987 l 749 804 l 577 804 q 485 782 520 804 q 441 721 449 760 q 452 649 431 674 q 527 624 472 624 l 626 624 l 613 560 l 589 440 l 498 440 q 363 400 418 440 q 295 288 309 360 q 307 200 283 231 q 386 170 331 170 l 487 170 q 623 119 576 170 q 652 -25 671 68 q 559 -201 629 -132 q 363 -304 490 -270 l 335 -173 q 401 -134 372 -157 q 438 -75 430 -111 q 430 -30 444 -45 q 378 -14 416 -14 l 333 -14 q 115 67 191 -14 q 68 290 39 149 q 144 443 86 382 q 298 532 202 503 q 220 590 244 553 q 207 677 196 626 q 244 754 216 723 q 319 801 273 785 l 317 804 l 196 804 l 233 987 l 785 987 z "},"ο":{"ha":734,"x_min":18,"x_max":737,"o":"m 46 374 q 176 646 73 545 q 438 747 278 747 q 664 642 590 747 q 711 374 737 537 l 709 359 q 579 86 682 187 q 318 -14 477 -14 q 92 91 165 -14 q 44 359 18 195 l 46 374 m 271 359 q 270 213 254 263 q 346 162 285 162 q 435 215 401 162 q 483 359 468 269 l 485 374 q 485 519 500 467 q 410 571 470 571 q 320 516 354 571 q 273 374 286 462 l 271 359 z "},"π":{"ha":887,"x_min":98,"x_max":905,"o":"m 872 570 l 765 570 l 699 238 q 698 179 690 194 q 735 163 707 163 q 764 165 753 163 q 801 172 774 166 l 782 3 q 722 -10 749 -6 q 658 -14 694 -14 q 499 51 552 -14 q 472 238 447 115 l 538 570 l 437 570 l 324 0 l 98 0 l 212 570 l 109 570 l 141 734 l 905 734 l 872 570 z "},"ρ":{"ha":734,"x_min":-54,"x_max":750,"o":"m 714 351 q 591 81 678 176 q 374 -14 504 -14 q 296 7 328 -14 q 243 68 263 28 l 173 -282 l -54 -282 l 81 393 q 218 652 114 557 q 484 747 323 747 q 685 640 621 747 q 717 366 750 533 l 714 351 m 490 366 q 497 517 509 464 q 435 566 486 570 l 431 567 q 355 515 390 570 q 303 369 321 460 l 302 368 l 303 368 l 270 202 q 301 172 280 182 q 353 162 321 162 q 436 213 402 162 q 488 351 469 263 l 490 366 z "},"ς":{"ha":652,"x_min":11,"x_max":703,"o":"m 446 747 q 636 668 569 747 q 676 453 703 589 l 465 453 q 463 540 475 509 q 410 571 450 571 q 323 517 357 571 q 271 374 289 463 l 269 359 q 274 224 249 262 q 378 172 298 186 q 546 103 499 151 q 574 -39 593 56 q 480 -203 555 -130 q 289 -304 406 -276 l 250 -151 q 319 -111 294 -132 q 351 -60 344 -91 q 338 -20 355 -34 q 278 3 320 -7 q 68 116 125 28 q 42 359 11 204 l 45 374 q 182 649 79 550 q 446 747 286 747 z "},"σ":{"ha":751,"x_min":14,"x_max":819,"o":"m 784 557 l 628 557 q 686 459 667 515 q 694 346 705 404 l 691 332 q 558 77 658 168 q 306 -14 458 -14 q 86 91 157 -14 q 47 359 14 197 l 50 374 q 188 638 83 543 q 454 734 293 734 q 819 734 454 733 l 784 557 m 273 359 q 267 212 253 261 q 341 162 280 162 q 419 216 387 162 q 470 359 452 269 l 473 374 q 480 510 490 463 q 419 557 471 557 q 328 506 365 557 q 275 374 292 454 l 273 359 z "},"τ":{"ha":688,"x_min":78,"x_max":760,"o":"m 726 559 l 513 559 l 402 0 l 176 0 l 287 559 l 78 559 l 113 734 l 760 734 l 726 559 z "},"υ":{"ha":734,"x_min":35,"x_max":735,"o":"m 377 734 l 294 319 q 293 195 276 228 q 350 162 309 162 q 434 227 397 162 q 490 384 471 292 q 508 558 505 470 q 504 734 511 646 l 713 734 q 733 576 731 665 q 715 384 735 488 q 584 86 675 187 q 321 -14 493 -14 q 108 70 180 -14 q 68 320 35 154 l 151 734 l 377 734 z "},"φ":{"ha":1004,"x_min":16,"x_max":1011,"o":"m 699 734 q 940 619 869 734 q 985 370 1011 504 q 850 112 953 211 q 551 -9 747 12 l 488 -324 l 260 -324 l 324 -4 q 84 141 153 26 q 47 412 16 256 q 106 591 68 514 q 197 734 144 667 l 397 734 q 321 568 353 647 q 273 412 290 488 q 272 257 253 313 q 358 184 290 201 l 362 184 l 472 734 l 699 734 m 589 182 l 593 181 q 702 245 661 197 q 758 370 743 294 q 752 506 774 456 q 667 552 730 555 l 663 551 l 589 182 z "},"χ":{"ha":685,"x_min":-92,"x_max":794,"o":"m 205 745 q 345 689 302 745 q 399 559 389 633 l 410 502 l 414 501 l 565 734 l 794 734 l 465 233 l 519 -35 q 534 -83 522 -62 q 569 -113 547 -104 q 583 -116 574 -115 q 602 -117 593 -117 l 557 -287 q 498 -293 530 -292 q 438 -290 467 -294 q 340 -211 368 -281 q 300 -52 311 -140 l 296 -31 l 292 -31 l 127 -282 l -92 -282 l 243 236 l 189 507 q 158 554 184 539 q 95 568 132 568 q 73 567 86 568 q 54 564 60 566 l 81 728 q 146 741 122 737 q 205 745 171 745 z "},"ψ":{"ha":1006,"x_min":22,"x_max":1013,"o":"m 700 734 l 591 189 l 595 187 q 706 266 663 208 q 767 412 749 325 q 781 569 781 489 q 771 734 781 648 l 972 734 q 1005 589 998 670 q 994 412 1013 507 q 852 126 958 237 q 551 -7 747 16 l 488 -324 l 262 -324 l 326 -4 q 96 122 171 22 q 57 398 22 222 l 124 734 l 351 734 l 283 396 q 285 248 264 298 q 359 184 307 197 l 363 184 l 473 734 l 700 734 z "},"ω":{"ha":1123,"x_min":23,"x_max":1121,"o":"m 436 734 q 345 560 382 648 q 286 384 307 472 q 273 223 266 282 q 326 168 279 163 l 330 166 q 397 205 363 162 q 450 340 431 248 l 500 591 l 743 591 l 692 340 q 688 202 672 241 q 744 167 705 163 l 748 167 q 822 228 789 163 q 874 384 856 292 q 886 559 889 471 q 863 734 883 647 l 1072 734 q 1112 577 1102 665 q 1100 384 1121 489 q 972 86 1061 187 q 717 -14 883 -14 q 603 21 651 -14 q 532 123 555 56 q 422 20 485 54 q 285 -14 359 -14 q 77 95 132 -14 q 60 384 23 203 q 125 578 82 495 q 228 734 168 661 l 436 734 z "},"ϊ":{"ha":444,"x_min":32,"x_max":588,"o":"m 383 733 l 284 237 q 283 178 275 193 q 320 163 292 163 q 349 164 338 163 q 386 172 359 165 l 367 2 q 307 -11 334 -7 q 243 -14 279 -14 q 84 50 137 -14 q 57 237 32 115 l 156 733 l 383 733 m 566 852 l 375 852 l 397 991 l 588 991 l 566 852 m 239 852 l 48 852 l 71 991 l 261 991 l 239 852 z "},"ϋ":{"ha":734,"x_min":35,"x_max":775,"o":"m 377 734 l 294 319 q 293 195 276 228 q 350 162 309 162 q 434 227 397 162 q 490 384 471 292 q 508 558 505 470 q 504 734 511 646 l 713 734 q 733 576 731 665 q 715 384 735 488 q 584 86 675 187 q 321 -14 493 -14 q 108 70 180 -14 q 68 320 35 154 l 151 734 l 377 734 m 753 853 l 562 853 l 585 991 l 775 991 l 753 853 m 426 853 l 235 853 l 258 991 l 448 991 l 426 853 z "},"ό":{"ha":734,"x_min":18,"x_max":737,"o":"m 46 374 q 176 646 73 545 q 438 747 278 747 q 664 642 590 747 q 711 374 737 537 l 709 359 q 579 86 682 187 q 318 -14 477 -14 q 92 91 165 -14 q 44 359 18 195 l 46 374 m 271 359 q 270 213 254 263 q 346 162 285 162 q 435 215 401 162 q 483 359 468 269 l 485 374 q 485 519 500 467 q 410 571 470 571 q 320 516 354 571 q 273 374 286 462 l 271 359 m 451 1044 l 654 1044 l 655 1040 l 464 809 l 352 809 l 451 1044 z "},"ύ":{"ha":734,"x_min":35,"x_max":735,"o":"m 377 734 l 294 319 q 293 195 276 228 q 350 162 309 162 q 434 227 397 162 q 490 384 471 292 q 508 558 505 470 q 504 734 511 646 l 713 734 q 733 576 731 665 q 715 384 735 488 q 584 86 675 187 q 321 -14 493 -14 q 108 70 180 -14 q 68 320 35 154 l 151 734 l 377 734 m 489 1029 l 692 1029 l 693 1026 l 502 795 l 390 795 l 489 1029 z "},"ώ":{"ha":1123,"x_min":23,"x_max":1121,"o":"m 436 734 q 345 560 382 648 q 286 384 307 472 q 273 223 266 282 q 326 168 279 163 l 330 166 q 397 205 363 162 q 450 340 431 248 l 500 591 l 743 591 l 692 340 q 688 202 672 241 q 744 167 705 163 l 748 167 q 822 228 789 163 q 874 384 856 292 q 886 559 889 471 q 863 734 883 647 l 1072 734 q 1112 577 1102 665 q 1100 384 1121 489 q 972 86 1061 187 q 717 -14 883 -14 q 603 21 651 -14 q 532 123 555 56 q 422 20 485 54 q 285 -14 359 -14 q 77 95 132 -14 q 60 384 23 203 q 125 578 82 495 q 228 734 168 661 l 436 734 m 669 1029 l 872 1029 l 873 1026 l 682 795 l 570 795 l 669 1029 z "},"ϑ":{"ha":938,"x_min":66,"x_max":981,"o":"m 462 170 q 572 220 522 170 q 642 356 623 270 q 469 447 535 369 q 425 632 403 525 l 441 717 q 556 928 469 855 q 763 1002 642 1002 q 925 924 870 1002 q 955 717 981 847 l 884 363 q 725 83 848 181 q 425 -14 602 -14 q 161 94 257 -14 q 98 363 66 203 l 195 849 l 437 850 l 340 363 q 354 220 321 271 q 462 170 386 170 m 635 631 q 636 557 626 587 q 671 523 646 528 l 675 524 l 720 745 q 723 790 726 777 q 709 800 720 803 l 705 801 q 677 788 691 803 q 659 745 663 772 l 635 631 z "},"ϒ":{"ha":808,"x_min":121,"x_max":951,"o":"m 600 803 q 727 963 665 917 q 890 1008 789 1008 q 923 1006 907 1008 q 951 998 939 1003 l 900 824 q 885 825 898 824 q 867 826 872 826 q 821 804 844 826 q 783 751 799 783 l 514 288 l 513 288 l 456 0 l 230 0 l 290 300 l 211 751 q 193 805 205 785 q 157 826 180 826 q 136 825 150 826 q 121 824 123 824 l 142 998 q 170 1006 154 1003 q 206 1008 186 1008 q 349 964 301 1008 q 414 810 397 920 l 446 556 l 444 499 l 448 498 l 469 556 l 600 803 z "},"ϖ":{"ha":1110,"x_min":23,"x_max":1205,"o":"m 1175 583 l 1097 583 q 1099 488 1101 538 q 1086 384 1097 438 q 961 86 1047 187 q 713 -14 874 -14 q 597 21 646 -14 q 526 125 549 57 q 415 20 478 54 q 276 -14 351 -14 q 75 95 127 -14 q 60 384 23 203 q 88 490 71 441 q 127 583 105 539 l 53 583 l 83 734 l 1205 734 l 1175 583 m 861 384 q 872 483 869 433 q 871 583 874 532 l 355 583 q 315 484 332 534 q 286 384 298 434 q 270 223 266 282 q 317 168 275 163 l 321 167 q 390 205 355 163 q 444 340 425 248 l 469 464 l 711 464 l 686 340 q 682 202 665 241 q 740 167 699 163 l 744 167 q 811 227 781 163 q 861 384 842 291 z "},"Ѐ":{"ha":741,"x_min":14,"x_max":857,"o":"m 678 422 l 325 422 l 276 176 l 693 176 l 658 0 l 14 0 l 211 987 l 857 987 l 821 811 l 403 811 l 360 599 l 713 599 l 678 422 m 650 1057 l 467 1057 l 315 1234 l 316 1238 l 547 1238 l 650 1057 z "},"Ё":{"ha":741,"x_min":14,"x_max":857,"o":"m 678 422 l 325 422 l 276 176 l 693 176 l 658 0 l 14 0 l 211 987 l 857 987 l 821 811 l 403 811 l 360 599 l 713 599 l 678 422 m 793 1086 l 602 1086 l 625 1224 l 815 1224 l 793 1086 m 466 1086 l 275 1086 l 298 1224 l 488 1224 l 466 1086 z "},"Ђ":{"ha":972,"x_min":121,"x_max":973,"o":"m 840 811 l 559 811 l 515 590 q 587 603 553 598 q 656 608 621 608 q 889 529 806 608 q 943 302 973 451 q 814 77 916 167 q 515 -11 711 -13 l 512 -9 l 544 152 q 665 193 629 152 q 714 288 701 233 q 702 390 726 349 q 621 431 677 431 q 550 429 583 431 q 481 422 517 427 l 397 0 l 171 0 l 333 811 l 121 811 l 157 987 l 875 987 l 840 811 z "},"Ѓ":{"ha":728,"x_min":14,"x_max":832,"o":"m 797 811 l 404 811 l 241 0 l 14 0 l 211 987 l 832 987 l 797 811 m 579 1239 l 810 1239 l 812 1235 l 606 1059 l 427 1059 l 425 1062 l 579 1239 z "},"Є":{"ha":785,"x_min":26,"x_max":878,"o":"m 794 347 l 796 343 q 655 77 755 167 q 386 -14 555 -14 q 124 101 222 -14 q 61 391 26 216 l 102 597 q 253 897 141 791 q 529 1002 364 1002 q 788 905 697 1002 q 856 640 878 807 l 854 636 l 633 636 q 621 779 649 731 q 509 826 592 826 q 398 763 446 826 q 329 599 349 701 l 326 583 l 571 583 l 536 406 l 290 406 l 288 391 q 294 222 265 281 q 399 163 323 163 q 510 208 468 163 q 574 347 552 254 l 794 347 z "},"Ѕ":{"ha":826,"x_min":33,"x_max":838,"o":"m 549 246 q 532 336 561 308 q 418 403 504 364 q 178 540 256 460 q 125 740 100 619 q 256 933 150 865 q 510 1002 362 1002 q 751 920 664 1002 q 808 699 838 839 l 806 695 l 585 695 q 566 790 597 755 q 475 825 534 825 q 396 801 433 825 q 353 741 359 776 q 374 659 341 685 q 519 588 406 633 q 733 456 665 536 q 775 248 801 376 q 645 52 749 117 q 391 -14 541 -14 q 137 60 241 -14 q 68 288 33 134 l 69 292 l 290 292 q 317 190 274 218 q 426 162 360 162 q 504 186 467 162 q 549 246 542 210 z "},"І":{"ha":396,"x_min":27,"x_max":450,"o":"m 253 0 l 27 0 l 224 987 l 450 987 l 253 0 z "},"Ї":{"ha":396,"x_min":27,"x_max":639,"o":"m 253 0 l 27 0 l 224 987 l 450 987 l 253 0 m 616 1086 l 426 1086 l 448 1224 l 639 1224 l 616 1086 m 290 1086 l 99 1086 l 121 1224 l 312 1224 l 290 1086 z "},"Ј":{"ha":759,"x_min":9,"x_max":827,"o":"m 602 987 l 827 987 l 692 310 q 553 68 660 151 q 304 -14 446 -14 q 85 64 162 -14 q 41 292 9 143 l 43 296 l 264 296 q 271 191 249 220 q 339 162 294 162 q 414 201 376 162 q 466 310 452 241 l 602 987 z "},"Љ":{"ha":1362,"x_min":-31,"x_max":1366,"o":"m 987 987 l 922 663 l 1037 663 q 1278 568 1191 663 q 1338 332 1366 473 q 1190 88 1306 176 q 905 0 1073 0 l 563 0 l 725 811 l 532 811 l 481 548 q 300 126 422 253 q -7 0 178 0 l -31 0 l 4 176 l 29 176 q 164 256 117 176 q 254 548 212 335 l 340 987 l 987 987 m 886 486 l 825 176 l 940 176 q 1050 222 1001 176 q 1112 333 1099 269 q 1097 443 1126 400 q 1002 486 1067 486 l 886 486 z "},"Њ":{"ha":1360,"x_min":14,"x_max":1364,"o":"m 356 574 l 675 574 l 758 987 l 985 987 l 920 663 l 1035 663 q 1277 568 1189 663 q 1337 332 1364 473 q 1188 88 1305 176 q 903 0 1071 0 l 561 0 l 640 397 l 321 397 l 241 0 l 14 0 l 211 987 l 439 987 l 356 574 m 884 486 l 823 176 l 938 176 q 1048 222 999 176 q 1110 333 1097 269 q 1095 443 1124 400 q 1000 486 1065 486 l 884 486 z "},"Ћ":{"ha":977,"x_min":121,"x_max":953,"o":"m 816 811 l 543 811 l 507 627 q 562 633 534 631 q 604 635 590 635 q 863 551 772 635 q 920 302 953 466 l 860 1 l 634 1 l 694 302 q 683 428 713 396 q 569 459 653 459 q 527 457 555 459 q 471 452 500 455 l 381 0 l 154 0 l 316 811 l 121 811 l 156 987 l 851 987 l 816 811 z "},"Ќ":{"ha":844,"x_min":17,"x_max":959,"o":"m 393 392 l 322 392 l 244 0 l 17 0 l 214 987 l 441 987 l 363 597 l 433 597 l 660 987 l 959 987 l 603 500 l 772 0 l 511 0 l 393 392 m 563 1239 l 794 1239 l 795 1235 l 589 1059 l 410 1059 l 409 1062 l 563 1239 z "},"Ѝ":{"ha":903,"x_min":3,"x_max":975,"o":"m 747 987 l 975 987 l 777 0 l 550 0 l 667 586 l 663 587 l 229 0 l 3 0 l 201 987 l 427 987 l 310 401 l 313 400 l 747 987 m 722 1057 l 538 1057 l 387 1234 l 388 1238 l 619 1238 l 722 1057 z "},"Ў":{"ha":824,"x_min":113,"x_max":954,"o":"m 487 566 l 491 565 l 720 987 l 954 987 l 492 201 q 356 42 428 99 q 181 -14 285 -14 q 142 -14 159 -14 q 113 -13 125 -14 l 145 165 q 165 163 151 163 q 189 162 179 162 q 270 184 238 162 q 326 254 302 207 l 339 281 l 337 281 l 149 987 l 390 987 l 487 566 m 837 1294 l 838 1290 q 753 1141 826 1196 q 572 1086 681 1086 q 410 1143 467 1086 q 371 1290 353 1201 l 373 1294 l 536 1294 q 544 1241 530 1261 q 593 1221 557 1221 q 648 1242 627 1221 q 674 1294 669 1263 l 837 1294 z "},"Џ":{"ha":904,"x_min":0,"x_max":972,"o":"m 197 987 l 424 987 l 262 176 l 583 176 l 745 987 l 972 987 l 774 0 l 511 0 l 463 -244 l 235 -244 l 284 0 l 0 0 l 197 987 z "},"А":{"ha":830,"x_min":-51,"x_max":779,"o":"m 538 192 l 265 192 l 176 0 l -51 0 l 439 987 l 682 987 l 779 0 l 551 0 l 538 192 m 347 368 l 526 368 l 505 699 l 500 699 l 347 368 z "},"Б":{"ha":813,"x_min":15,"x_max":833,"o":"m 798 811 l 405 811 l 371 642 l 486 642 q 730 554 642 642 q 790 325 818 465 q 643 85 759 170 q 358 0 527 0 l 15 0 l 212 987 l 833 987 l 798 811 m 336 466 l 278 176 l 393 176 q 503 220 454 176 q 564 326 551 263 q 548 429 577 391 q 451 466 518 466 l 336 466 z "},"В":{"ha":840,"x_min":14,"x_max":871,"o":"m 14 0 l 211 987 l 532 987 q 783 918 694 987 q 845 716 871 848 q 789 588 829 642 q 677 507 748 534 q 780 429 754 488 q 791 292 806 370 q 657 70 760 139 q 379 0 554 0 l 14 0 m 326 424 l 276 176 l 414 176 q 514 206 475 176 q 566 294 553 235 q 558 393 578 362 q 476 424 538 424 l 326 424 m 355 576 l 452 576 q 559 607 517 577 q 613 690 601 636 q 598 784 626 758 q 496 811 570 811 l 403 811 l 355 576 z "},"Г":{"ha":728,"x_min":14,"x_max":832,"o":"m 797 811 l 404 811 l 241 0 l 14 0 l 211 987 l 832 987 l 797 811 z "},"Д":{"ha":972,"x_min":-83,"x_max":1000,"o":"m 834 -243 l 629 -243 l 677 0 l 179 0 l 130 -243 l -83 -243 l -12 176 l 56 176 q 164 304 113 214 q 260 583 215 393 l 370 987 l 1000 987 l 838 176 l 939 176 l 834 -243 m 486 583 q 408 341 452 439 q 309 176 363 243 l 612 176 l 739 811 l 548 811 l 486 583 z "},"Е":{"ha":741,"x_min":14,"x_max":857,"o":"m 678 422 l 325 422 l 276 176 l 693 176 l 658 0 l 14 0 l 211 987 l 857 987 l 821 811 l 403 811 l 360 599 l 713 599 l 678 422 z "},"Ж":{"ha":1356,"x_min":-46,"x_max":1487,"o":"m 931 392 l 822 392 l 744 0 l 517 0 l 595 392 l 485 392 l 236 0 l -46 0 l 337 544 l 159 987 l 444 987 l 547 597 l 637 597 l 715 987 l 941 987 l 863 597 l 951 597 l 1202 987 l 1487 987 l 1139 545 l 1299 0 l 1017 0 l 931 392 z "},"З":{"ha":819,"x_min":12,"x_max":854,"o":"m 827 720 q 764 591 812 647 q 644 505 716 535 q 740 416 711 475 q 754 277 770 358 q 612 59 724 132 q 334 -14 499 -14 q 106 59 199 -14 q 43 270 12 133 l 45 274 l 266 274 q 284 192 256 222 q 370 162 313 162 q 472 196 427 162 q 528 281 517 231 q 519 389 543 359 q 432 419 496 419 l 315 419 l 326 473 l 336 522 l 338 533 l 349 589 l 466 589 q 553 623 518 589 q 601 715 589 656 q 586 795 610 764 q 502 825 561 825 q 416 796 456 825 q 368 719 377 767 l 149 719 l 147 723 q 280 929 170 857 q 537 1002 391 1002 q 771 927 688 1002 q 827 720 854 852 z "},"И":{"ha":903,"x_min":3,"x_max":975,"o":"m 747 987 l 975 987 l 777 0 l 550 0 l 667 586 l 663 587 l 229 0 l 3 0 l 201 987 l 427 987 l 310 401 l 313 400 l 747 987 z "},"Й":{"ha":903,"x_min":3,"x_max":975,"o":"m 747 987 l 975 987 l 777 0 l 550 0 l 667 586 l 663 587 l 229 0 l 3 0 l 201 987 l 427 987 l 310 401 l 313 400 l 747 987 m 872 1294 l 873 1290 q 789 1141 861 1196 q 607 1086 716 1086 q 446 1143 503 1086 q 406 1290 389 1201 l 408 1294 l 571 1294 q 579 1241 566 1261 q 629 1221 593 1221 q 683 1242 663 1221 q 709 1294 704 1263 l 872 1294 z "},"К":{"ha":844,"x_min":17,"x_max":959,"o":"m 393 392 l 322 392 l 244 0 l 17 0 l 214 987 l 441 987 l 363 597 l 433 597 l 660 987 l 959 987 l 603 500 l 772 0 l 511 0 l 393 392 z "},"Л":{"ha":919,"x_min":-30,"x_max":987,"o":"m 987 987 l 789 0 l 563 0 l 725 811 l 515 811 l 465 548 q 297 126 406 252 q 24 0 189 0 l -30 0 l 5 176 l 30 176 q 156 259 117 187 q 237 548 194 330 l 323 987 l 987 987 z "},"М":{"ha":1131,"x_min":14,"x_max":1199,"o":"m 509 987 l 564 298 l 568 297 l 901 987 l 1199 987 l 1002 0 l 774 0 l 823 245 l 928 668 l 924 669 l 583 0 l 430 0 l 357 663 l 353 663 l 290 245 l 241 0 l 14 0 l 211 987 l 509 987 z "},"Н":{"ha":918,"x_min":14,"x_max":985,"o":"m 788 0 l 562 0 l 642 397 l 320 397 l 241 0 l 14 0 l 211 987 l 438 987 l 355 574 l 677 574 l 760 987 l 985 987 l 788 0 z "},"О":{"ha":892,"x_min":40,"x_max":932,"o":"m 862 405 q 702 97 823 209 q 405 -14 581 -14 q 140 107 239 -14 q 75 405 40 228 l 111 583 q 269 890 151 779 q 562 1002 387 1002 q 830 880 728 1002 q 898 583 932 758 l 862 405 m 672 584 q 652 759 694 692 q 527 825 610 825 q 406 760 453 825 q 337 584 359 694 l 301 405 q 317 228 279 294 q 440 162 355 162 q 564 229 513 162 q 636 405 614 296 l 672 584 z "},"П":{"ha":917,"x_min":14,"x_max":985,"o":"m 788 0 l 562 0 l 724 811 l 403 811 l 241 0 l 14 0 l 211 987 l 985 987 l 788 0 z "},"Р":{"ha":860,"x_min":14,"x_max":913,"o":"m 308 338 l 241 0 l 14 0 l 211 987 l 590 987 q 828 896 744 987 q 884 663 913 805 q 741 423 853 508 q 460 338 629 338 l 308 338 m 343 515 l 496 515 q 601 556 557 515 q 658 661 645 598 q 646 771 671 730 q 555 811 621 811 l 403 811 l 343 515 z "},"С":{"ha":836,"x_min":36,"x_max":888,"o":"m 804 347 l 806 342 q 665 76 765 166 q 396 -14 566 -14 q 134 101 233 -14 q 71 391 36 216 l 113 597 q 263 896 151 791 q 539 1002 374 1002 q 798 904 707 1002 q 866 639 888 806 l 865 635 l 643 635 q 631 778 659 730 q 519 825 602 825 q 408 763 456 825 q 339 598 359 700 l 298 391 q 304 221 275 281 q 409 162 333 162 q 520 208 478 162 q 584 347 562 253 l 804 347 z "},"Т":{"ha":730,"x_min":123,"x_max":854,"o":"m 819 811 l 583 811 l 421 0 l 194 0 l 356 811 l 123 811 l 158 987 l 854 987 l 819 811 z "},"У":{"ha":824,"x_min":113,"x_max":954,"o":"m 487 566 l 491 565 l 720 987 l 954 987 l 492 201 q 356 42 428 99 q 181 -14 285 -14 q 142 -14 159 -14 q 113 -13 125 -14 l 145 165 q 165 163 151 163 q 189 162 179 162 q 270 184 238 162 q 326 254 302 207 l 339 281 l 337 281 l 149 987 l 390 987 l 487 566 z "},"Ф":{"ha":1101,"x_min":49,"x_max":1135,"o":"m 789 903 q 1044 785 953 900 q 1098 488 1135 671 q 932 190 1059 294 q 625 84 806 86 l 600 -41 l 374 -41 l 399 84 q 141 196 233 85 q 85 486 49 307 q 253 794 125 686 q 563 903 381 901 l 588 1028 l 814 1028 l 789 903 m 307 486 q 320 327 284 376 q 435 280 356 277 l 439 281 l 524 705 l 520 707 q 389 651 449 709 q 307 486 328 594 m 876 488 q 865 656 899 604 q 753 707 831 709 l 749 706 l 665 282 l 668 280 q 797 333 738 278 q 876 488 855 387 z "},"Х":{"ha":835,"x_min":-37,"x_max":926,"o":"m 469 660 l 473 659 l 665 987 l 926 987 l 589 498 l 789 0 l 514 0 l 425 334 l 420 335 l 224 0 l -37 0 l 308 498 l 127 987 l 387 987 l 469 660 z "},"Ц":{"ha":1006,"x_min":1,"x_max":972,"o":"m 198 987 l 424 987 l 262 176 l 583 176 l 745 987 l 972 987 l 809 175 l 951 175 l 854 -238 l 642 -238 l 689 0 l 1 0 l 198 987 z "},"Ч":{"ha":913,"x_min":132,"x_max":982,"o":"m 982 987 l 785 0 l 558 0 l 631 368 q 548 357 595 361 q 481 353 502 353 q 222 437 313 353 q 165 686 132 522 l 225 987 l 452 987 l 392 686 q 402 560 373 591 q 516 529 431 529 q 585 533 539 529 q 667 543 631 536 l 755 987 l 982 987 z "},"Ш":{"ha":1257,"x_min":12,"x_max":1329,"o":"m 435 987 l 273 176 l 495 176 l 657 987 l 884 987 l 722 176 l 940 176 l 1102 987 l 1329 987 l 1131 0 l 12 0 l 209 987 l 435 987 z "},"Щ":{"ha":1371,"x_min":12,"x_max":1329,"o":"m 435 987 l 273 176 l 495 176 l 657 987 l 884 987 l 722 176 l 940 176 l 1102 987 l 1329 987 l 1166 176 l 1313 176 l 1217 -237 l 1004 -237 l 1051 0 l 12 0 l 209 987 l 435 987 z "},"Ъ":{"ha":1012,"x_min":129,"x_max":1017,"o":"m 164 987 l 639 987 l 570 642 l 685 642 q 928 554 840 642 q 989 325 1017 465 q 842 85 958 170 q 557 0 726 0 l 214 0 l 376 811 l 129 811 l 164 987 m 534 466 l 477 176 l 592 176 q 702 220 653 176 q 763 326 750 263 q 746 429 776 391 q 650 466 717 466 l 534 466 z "},"Ы":{"ha":1139,"x_min":14,"x_max":1206,"o":"m 370 642 l 485 642 q 728 554 640 642 q 789 325 817 465 q 642 85 758 170 q 357 0 526 0 l 14 0 l 211 987 l 439 987 l 370 642 m 1009 0 l 783 0 l 981 987 l 1206 987 l 1009 0 m 334 466 l 277 176 l 392 176 q 502 220 453 176 q 563 326 550 263 q 546 429 576 391 q 450 466 517 466 l 334 466 z "},"Ь":{"ha":815,"x_min":15,"x_max":818,"o":"m 371 642 l 486 642 q 730 554 642 642 q 790 325 818 465 q 643 85 759 170 q 358 0 527 0 l 15 0 l 212 987 l 440 987 l 371 642 m 336 466 l 278 176 l 393 176 q 503 220 454 176 q 564 326 551 263 q 548 429 577 391 q 451 466 518 466 l 336 466 z "},"Э":{"ha":783,"x_min":-2,"x_max":821,"o":"m 102 655 l 101 659 q 239 921 134 839 q 517 1002 344 1002 q 745 889 669 1002 q 786 597 821 775 l 745 391 q 593 92 706 197 q 314 -14 479 -14 q 77 75 155 -14 q 33 329 -2 163 l 35 332 l 256 332 q 258 199 237 235 q 349 163 279 163 q 453 224 410 163 q 517 390 496 286 l 520 406 l 269 406 l 304 583 l 555 583 l 559 597 q 565 769 581 711 q 482 826 549 826 q 379 786 418 826 q 322 655 340 745 l 102 655 z "},"Ю":{"ha":1267,"x_min":20,"x_max":1275,"o":"m 1204 405 q 1044 97 1165 209 q 747 -14 923 -14 q 489 99 588 -14 q 414 380 389 212 l 321 380 l 245 0 l 20 0 l 217 987 l 443 987 l 357 557 l 448 557 l 454 583 q 611 890 493 779 q 905 1002 729 1002 q 1173 880 1070 1002 q 1240 583 1275 758 l 1204 405 m 1015 584 q 995 759 1036 692 q 869 825 953 825 q 748 760 795 825 q 680 584 701 694 l 644 405 q 660 228 621 294 q 783 162 698 162 q 906 229 855 162 q 979 405 957 296 l 1015 584 z "},"Я":{"ha":753,"x_min":-111,"x_max":835,"o":"m 136 0 l -111 0 l 165 429 q 92 530 111 469 q 92 682 73 591 q 233 907 120 827 q 500 987 347 987 l 835 987 l 637 0 l 410 0 l 479 351 l 363 351 l 136 0 m 572 811 l 465 811 q 367 778 403 811 q 315 668 330 744 q 327 556 301 599 q 409 514 352 514 l 512 514 l 572 811 z "},"а":{"ha":692,"x_min":-6,"x_max":699,"o":"m 391 1 q 382 40 386 19 q 378 83 379 60 q 294 12 340 38 q 189 -14 248 -14 q 46 47 98 -14 q 14 207 -6 109 q 122 379 37 323 q 366 435 207 435 l 436 435 l 447 487 q 444 561 456 538 q 392 584 431 584 q 342 565 361 584 q 315 507 322 546 l 96 508 l 95 512 q 207 683 113 619 q 440 747 300 747 q 630 679 560 747 q 674 486 699 610 l 619 209 q 606 98 606 146 q 615 0 606 51 l 391 1 m 292 149 q 343 162 317 149 q 388 194 369 174 l 412 313 l 343 313 q 275 286 301 313 q 242 219 250 259 q 249 168 235 186 q 292 149 263 149 z "},"б":{"ha":755,"x_min":32,"x_max":766,"o":"m 459 693 q 677 596 606 693 q 724 347 748 498 l 722 332 q 595 79 696 172 q 335 -14 494 -14 q 107 83 182 -14 q 56 332 32 180 l 58 340 l 73 433 q 225 820 115 687 q 478 981 335 952 q 556 1006 528 989 q 589 1058 583 1023 l 764 1058 l 766 1054 q 680 869 745 911 q 450 801 614 827 q 348 748 386 789 q 290 635 309 707 l 292 632 q 371 676 328 659 q 459 693 414 693 m 418 517 q 330 470 362 517 q 286 347 298 422 l 283 332 q 286 205 270 249 q 363 162 302 162 q 451 208 419 162 q 496 332 484 254 l 498 347 q 495 472 511 427 q 418 517 478 517 z "},"в":{"ha":734,"x_min":16,"x_max":732,"o":"m 16 0 l 163 734 l 460 734 q 661 681 590 734 q 712 528 732 628 q 660 434 701 473 q 553 375 619 395 q 668 314 635 358 q 690 210 702 270 q 586 50 668 99 q 358 0 503 0 l 16 0 m 303 299 l 278 175 l 393 175 q 444 190 425 175 q 469 235 463 205 q 465 284 475 269 q 418 299 456 299 l 303 299 m 332 440 l 410 440 q 456 454 439 440 q 479 495 473 467 q 473 545 486 532 q 425 559 460 559 l 355 559 l 332 440 z "},"г":{"ha":547,"x_min":-3,"x_max":631,"o":"m 595 557 l 335 557 l 224 0 l -3 0 l 144 734 l 631 734 l 595 557 z "},"д":{"ha":847,"x_min":-65,"x_max":817,"o":"m 59 178 q 176 317 146 252 q 229 503 207 382 l 273 734 l 817 734 l 706 176 l 812 176 l 718 -222 l 505 -222 l 550 0 l 194 0 l 149 -222 l -65 -222 l -4 178 l 59 178 m 454 503 q 394 318 430 399 q 312 177 358 237 l 481 177 l 557 557 l 465 557 l 454 503 z "},"е":{"ha":692,"x_min":27,"x_max":703,"o":"m 328 -14 q 104 88 181 -14 q 52 342 27 191 l 56 368 q 181 645 83 543 q 433 747 278 748 q 636 657 568 747 q 680 415 703 567 l 661 295 l 277 295 l 276 292 q 300 198 273 233 q 387 162 328 162 q 483 173 444 162 q 581 208 522 183 l 612 68 q 486 9 562 33 q 328 -14 410 -14 m 406 571 q 338 536 364 571 q 298 441 312 500 l 300 438 l 462 438 l 465 456 q 460 543 474 514 q 406 571 447 571 z "},"ж":{"ha":1185,"x_min":-37,"x_max":1257,"o":"m 778 256 l 703 256 l 652 0 l 425 0 l 476 256 l 404 256 l 254 0 l -37 0 l 236 395 l 113 734 l 403 734 l 462 470 l 519 470 l 572 734 l 798 734 l 745 470 l 806 470 l 969 734 l 1255 734 l 1257 730 l 1000 395 l 1116 0 l 825 0 l 778 256 z "},"з":{"ha":676,"x_min":3,"x_max":702,"o":"m 682 533 q 636 439 671 480 q 546 376 600 399 q 619 310 597 353 q 629 208 641 267 q 511 42 608 98 q 272 -14 414 -14 q 81 45 158 -14 q 28 213 3 104 l 30 217 l 251 217 q 260 167 244 184 q 320 149 275 149 q 379 172 357 149 q 408 228 401 195 q 401 291 416 273 q 346 309 386 309 l 258 309 l 266 350 l 284 442 l 372 442 q 424 461 403 442 q 452 512 446 480 q 450 564 458 545 q 406 584 441 584 q 351 568 374 584 q 322 521 328 551 l 103 521 l 102 525 q 209 690 119 633 q 424 747 299 747 q 628 690 553 747 q 682 533 702 633 z "},"и":{"ha":732,"x_min":-3,"x_max":768,"o":"m 541 734 l 768 734 l 621 0 l 394 0 l 469 374 l 465 376 l 224 0 l -3 0 l 144 734 l 371 734 l 296 360 l 300 359 l 541 734 z "},"й":{"ha":732,"x_min":-3,"x_max":768,"o":"m 541 734 l 768 734 l 621 0 l 394 0 l 469 374 l 465 376 l 224 0 l -3 0 l 144 734 l 371 734 l 296 360 l 300 359 l 541 734 m 745 1061 l 747 1057 q 662 908 734 964 q 480 853 589 853 q 319 911 376 853 q 279 1057 262 968 l 281 1061 l 444 1061 q 452 1008 439 1028 q 502 989 466 989 q 556 1009 536 989 q 583 1061 577 1030 l 745 1061 z "},"к":{"ha":755,"x_min":17,"x_max":831,"o":"m 351 256 l 294 256 l 243 0 l 17 0 l 163 734 l 390 734 l 337 470 l 394 470 l 543 734 l 831 734 l 573 395 l 704 0 l 397 0 l 351 256 z "},"л":{"ha":733,"x_min":-47,"x_max":767,"o":"m 767 734 l 621 0 l 394 0 l 505 557 l 390 557 l 363 421 q 231 95 317 191 q -21 0 146 0 l -47 0 l -18 177 l -1 177 q 81 227 55 177 q 136 421 107 277 l 199 734 l 767 734 z "},"м":{"ha":1003,"x_min":16,"x_max":1008,"o":"m 708 368 l 704 369 l 509 0 l 359 0 l 315 341 l 311 341 l 243 0 l 16 0 l 163 734 l 440 734 l 484 260 l 488 259 l 723 734 l 1008 734 l 861 0 l 635 0 l 708 368 z "},"н":{"ha":732,"x_min":-3,"x_max":765,"o":"m 618 0 l 391 0 l 446 272 l 277 272 l 223 0 l -3 0 l 144 734 l 370 734 l 312 448 l 480 448 l 538 734 l 765 734 l 618 0 z "},"о":{"ha":734,"x_min":18,"x_max":737,"o":"m 46 374 q 176 646 73 545 q 438 747 278 747 q 664 642 590 747 q 711 374 737 537 l 709 359 q 579 86 682 187 q 318 -14 477 -14 q 92 91 165 -14 q 44 359 18 195 l 46 374 m 271 359 q 270 213 254 263 q 346 162 285 162 q 435 215 401 162 q 483 359 468 269 l 485 374 q 485 519 500 467 q 410 571 470 571 q 320 516 354 571 q 273 374 286 462 l 271 359 z "},"п":{"ha":732,"x_min":-3,"x_max":768,"o":"m 621 0 l 393 0 l 505 557 l 334 557 l 223 0 l -3 0 l 144 734 l 768 734 l 621 0 z "},"р":{"ha":734,"x_min":-54,"x_max":747,"o":"m 711 338 q 595 74 675 161 q 387 -14 516 -14 q 303 3 341 -14 q 240 54 266 20 l 173 -282 l -54 -282 l 149 734 l 361 734 l 355 672 q 430 728 390 708 q 513 747 469 747 q 689 633 631 747 q 713 352 747 519 l 711 338 m 488 352 q 497 512 507 454 q 436 571 487 571 q 379 552 406 571 q 329 500 351 534 l 267 188 q 298 168 277 174 q 351 162 319 162 q 434 207 401 162 q 485 338 467 252 l 488 352 z "},"с":{"ha":667,"x_min":13,"x_max":689,"o":"m 334 162 q 395 187 373 162 q 425 261 417 212 l 631 261 l 633 257 q 525 59 615 132 q 307 -14 434 -14 q 84 91 156 -14 q 39 359 13 195 l 41 374 q 169 646 68 545 q 426 747 269 747 q 621 669 553 747 q 665 456 689 590 l 663 453 l 456 453 q 451 540 464 509 q 398 571 439 571 q 313 517 345 571 q 267 374 281 463 l 265 359 q 263 212 250 262 q 334 162 276 162 z "},"т":{"ha":688,"x_min":73,"x_max":754,"o":"m 720 559 l 508 559 l 397 0 l 170 0 l 281 559 l 73 559 l 107 734 l 754 734 l 720 559 z "},"у":{"ha":675,"x_min":-54,"x_max":767,"o":"m 338 337 l 342 336 l 526 734 l 767 734 l 330 -109 q 219 -244 281 -191 q 48 -296 158 -296 q 2 -292 21 -296 q -54 -279 -16 -288 l 7 -115 q 18 -118 14 -117 q 29 -119 22 -119 q 103 -103 75 -119 q 147 -56 132 -86 l 172 -9 l 87 734 l 328 734 l 338 337 z "},"ф":{"ha":955,"x_min":14,"x_max":970,"o":"m 49 366 q 170 648 85 548 q 380 747 256 747 q 418 743 400 747 q 453 730 437 738 l 519 1058 l 745 1058 l 680 733 q 718 744 698 740 q 758 747 737 747 q 921 640 871 747 q 937 366 970 533 l 935 351 q 814 81 899 176 q 607 -14 730 -14 q 568 -10 586 -14 q 533 1 549 -6 l 477 -282 l 251 -282 l 307 0 q 267 -11 288 -7 q 227 -14 247 -14 q 64 88 114 -14 q 46 351 14 190 l 49 366 m 273 351 q 262 209 253 256 q 320 162 272 162 q 331 162 326 162 q 340 163 335 162 l 421 570 q 411 571 415 570 q 402 571 406 571 q 327 513 360 571 q 275 366 293 455 l 273 351 m 710 366 q 720 517 729 464 q 666 571 711 571 q 657 571 661 571 q 647 570 653 570 l 566 163 q 574 162 570 162 q 586 162 578 162 q 659 213 628 162 q 707 351 689 263 l 710 366 z "},"х":{"ha":675,"x_min":-43,"x_max":740,"o":"m 371 519 l 375 518 l 486 734 l 740 734 l 487 371 l 629 0 l 375 0 l 331 222 l 327 222 l 210 0 l -43 0 l 218 371 l 80 734 l 332 734 l 371 519 z "},"ц":{"ha":809,"x_min":-3,"x_max":772,"o":"m 144 734 l 370 734 l 258 176 l 429 176 l 540 734 l 768 734 l 656 175 l 772 175 l 680 -218 l 467 -218 l 511 0 l -3 0 l 144 734 z "},"ч":{"ha":730,"x_min":65,"x_max":766,"o":"m 619 0 l 392 0 l 435 218 q 407 215 420 216 q 382 214 393 214 q 145 283 225 214 q 94 497 65 353 l 141 734 l 367 734 l 320 497 q 326 409 306 428 q 417 390 347 390 q 443 391 429 390 q 471 395 456 393 l 538 734 l 766 734 l 619 0 z "},"ш":{"ha":1091,"x_min":-3,"x_max":1114,"o":"m 370 734 l 258 176 l 404 176 l 515 734 l 742 734 l 631 176 l 776 176 l 887 734 l 1114 734 l 967 0 l -3 0 l 144 734 l 370 734 z "},"щ":{"ha":1233,"x_min":-1,"x_max":1166,"o":"m 371 734 l 260 176 l 405 176 l 516 734 l 743 734 l 632 176 l 777 176 l 888 734 l 1115 734 l 1003 175 l 1166 175 l 1074 -218 l 861 -218 l 904 0 l -1 0 l 145 734 l 371 734 z "},"ъ":{"ha":884,"x_min":79,"x_max":880,"o":"m 491 532 l 590 532 q 805 457 729 532 q 857 263 880 382 q 733 69 831 138 q 484 0 634 0 l 157 0 l 268 557 l 79 557 l 115 734 l 531 734 l 491 532 m 456 357 l 420 175 l 519 175 q 594 200 563 175 q 632 264 625 226 q 622 333 641 309 q 555 357 604 357 l 456 357 z "},"ы":{"ha":1120,"x_min":16,"x_max":1133,"o":"m 351 532 l 450 532 q 664 457 589 532 q 717 263 740 382 q 592 69 691 138 q 343 0 494 0 l 16 0 l 163 734 l 391 734 l 351 532 m 986 0 l 758 0 l 905 734 l 1133 734 l 986 0 m 315 357 l 279 175 l 378 175 q 453 200 422 175 q 492 264 484 226 q 482 333 500 309 q 414 357 463 357 l 315 357 z "},"ь":{"ha":740,"x_min":16,"x_max":740,"o":"m 351 532 l 450 532 q 664 457 589 532 q 717 263 740 382 q 592 69 691 138 q 343 0 494 0 l 16 0 l 163 734 l 391 734 l 351 532 m 315 357 l 279 175 l 378 175 q 453 200 422 175 q 492 264 484 226 q 482 333 500 309 q 414 357 463 357 l 315 357 z "},"э":{"ha":663,"x_min":-1,"x_max":692,"o":"m 372 571 q 310 546 334 571 q 277 473 286 520 l 71 473 l 69 477 q 184 676 92 604 q 408 747 277 747 q 623 642 554 747 q 660 374 692 536 l 657 359 q 519 84 622 182 q 257 -14 416 -14 q 66 65 132 -14 q 26 281 -1 144 l 239 281 q 239 193 227 223 q 292 162 250 162 q 368 200 337 162 q 414 302 398 239 l 413 306 l 283 306 l 308 430 l 443 430 q 437 535 452 499 q 372 571 422 571 z "},"ю":{"ha":1052,"x_min":20,"x_max":1055,"o":"m 340 463 l 385 463 q 523 671 427 595 q 756 747 618 747 q 982 642 908 747 q 1029 374 1055 537 l 1027 359 q 897 86 1000 187 q 636 -14 795 -14 q 427 68 502 -14 q 355 286 353 150 l 305 286 l 248 0 l 20 0 l 167 734 l 395 734 l 340 463 m 589 359 q 588 213 572 263 q 664 162 603 162 q 753 215 720 162 q 801 359 786 269 l 803 374 q 803 519 818 467 q 728 571 788 571 q 638 516 672 571 q 591 374 604 462 l 589 359 z "},"я":{"ha":739,"x_min":-32,"x_max":751,"o":"m 751 734 l 604 0 l 379 0 l 427 243 l 362 243 l 193 0 l -32 0 l 168 286 q 89 369 113 318 q 77 481 64 419 q 198 666 101 599 q 440 734 296 734 l 751 734 m 301 473 q 313 414 294 438 q 375 390 332 390 l 457 390 l 491 559 l 406 559 q 337 532 368 559 q 301 473 307 505 z "},"ѐ":{"ha":692,"x_min":27,"x_max":703,"o":"m 328 -14 q 104 88 181 -14 q 52 342 27 191 l 56 368 q 181 645 83 543 q 433 747 278 748 q 636 657 568 747 q 680 415 703 567 l 661 295 l 277 295 l 276 292 q 300 198 273 233 q 387 162 328 162 q 483 173 444 162 q 581 208 522 183 l 612 68 q 486 9 562 33 q 328 -14 410 -14 m 406 571 q 338 536 364 571 q 298 441 312 500 l 300 438 l 462 438 l 465 456 q 460 543 474 514 q 406 571 447 571 m 549 840 l 366 840 l 214 1017 l 216 1020 l 447 1020 l 549 840 z "},"ё":{"ha":692,"x_min":27,"x_max":716,"o":"m 328 -14 q 104 88 181 -14 q 52 342 27 191 l 56 368 q 181 645 83 543 q 433 747 278 748 q 636 657 568 747 q 680 415 703 567 l 661 295 l 277 295 l 276 292 q 300 198 273 233 q 387 162 328 162 q 483 173 444 162 q 581 208 522 183 l 612 68 q 486 9 562 33 q 328 -14 410 -14 m 406 571 q 338 536 364 571 q 298 441 312 500 l 300 438 l 462 438 l 465 456 q 460 543 474 514 q 406 571 447 571 m 694 868 l 503 868 l 526 1006 l 716 1006 l 694 868 m 367 868 l 176 868 l 199 1006 l 389 1006 l 367 868 z "},"ђ":{"ha":735,"x_min":-4,"x_max":735,"o":"m 514 803 l 383 803 l 353 654 q 440 723 393 699 q 540 747 488 747 q 687 667 640 747 q 703 422 735 586 l 683 323 l 684 323 l 617 -10 q 505 -226 587 -156 q 296 -296 423 -296 q 244 -294 269 -296 q 195 -285 220 -291 l 239 -112 q 269 -118 258 -117 q 300 -120 279 -120 q 355 -92 331 -120 q 390 -10 379 -63 l 392 0 l 456 323 l 477 423 q 479 542 494 513 q 416 571 464 571 q 369 562 391 571 q 330 536 347 553 l 222 0 l -4 0 l 157 803 l 77 803 l 102 932 l 182 932 l 208 1058 l 434 1058 l 409 932 l 540 932 l 514 803 z "},"ѓ":{"ha":547,"x_min":-3,"x_max":651,"o":"m 595 557 l 335 557 l 224 0 l -3 0 l 144 734 l 631 734 l 595 557 m 418 1006 l 650 1006 l 651 1002 l 445 826 l 266 826 l 264 829 l 418 1006 z "},"є":{"ha":664,"x_min":12,"x_max":688,"o":"m 333 162 q 394 187 372 162 q 424 261 416 212 l 630 261 l 631 257 q 523 59 614 132 q 305 -14 433 -14 q 83 91 155 -14 q 38 359 12 195 l 40 374 q 167 646 67 545 q 425 747 267 747 q 620 669 551 747 q 664 456 688 590 l 662 453 l 454 453 q 450 540 463 509 q 397 571 437 571 q 320 530 350 571 q 277 421 290 488 l 279 418 l 431 418 l 407 294 l 256 294 q 268 196 251 229 q 333 162 286 162 z "},"ѕ":{"ha":669,"x_min":-2,"x_max":680,"o":"m 397 206 q 378 255 401 234 q 283 293 354 276 q 116 371 169 318 q 78 515 63 424 q 180 682 94 616 q 399 747 267 747 q 606 681 532 747 q 661 513 680 615 l 659 509 l 438 509 q 431 575 445 553 q 375 597 416 597 q 322 577 347 597 q 293 527 298 557 q 310 477 288 497 q 406 441 332 457 q 579 362 528 414 q 616 213 631 309 q 507 48 599 110 q 277 -14 416 -14 q 71 62 143 -14 q 16 231 -2 139 l 18 235 l 223 235 q 237 160 216 182 q 307 137 258 137 q 368 155 345 137 q 397 206 392 174 z "},"і":{"ha":367,"x_min":12,"x_max":451,"o":"m 239 0 l 12 0 l 159 734 l 386 734 l 239 0 m 420 904 l 193 904 l 224 1058 l 451 1058 l 420 904 z "},"ї":{"ha":384,"x_min":20,"x_max":587,"o":"m 248 0 l 20 0 l 167 734 l 395 734 l 248 0 m 565 853 l 374 853 l 397 991 l 587 991 l 565 853 m 238 853 l 47 853 l 70 991 l 260 991 l 238 853 z "},"ј":{"ha":357,"x_min":-182,"x_max":450,"o":"m 389 734 l 240 -10 q 128 -227 210 -157 q -81 -296 46 -296 q -132 -294 -107 -296 q -182 -285 -157 -291 l -138 -112 q -108 -118 -120 -116 q -76 -120 -96 -120 q -21 -92 -44 -120 q 13 -10 2 -63 l 161 734 l 389 734 m 420 905 l 192 905 l 222 1058 l 450 1058 l 420 905 z "},"љ":{"ha":1125,"x_min":-47,"x_max":1119,"o":"m 772 734 l 729 519 l 828 519 q 1043 446 966 519 q 1097 260 1119 374 q 973 67 1071 135 q 724 0 875 0 l 397 0 l 509 557 l 406 557 l 378 421 q 241 97 333 194 q -21 0 149 0 l -47 0 l -17 177 l -1 177 q 86 239 46 177 q 151 421 126 300 l 213 734 l 772 734 m 694 343 l 661 175 l 760 175 q 834 199 804 175 q 871 261 864 223 q 860 322 879 300 q 793 343 842 343 l 694 343 z "},"њ":{"ha":1120,"x_min":-3,"x_max":1113,"o":"m 312 448 l 480 448 l 538 734 l 765 734 l 722 519 l 822 519 q 1037 446 960 519 q 1090 260 1113 374 q 967 67 1065 135 q 718 0 869 0 l 391 0 l 446 272 l 277 272 l 223 0 l -3 0 l 144 734 l 370 734 l 312 448 m 687 343 l 654 175 l 753 175 q 828 199 798 175 q 865 261 858 223 q 854 322 873 300 q 787 343 836 343 l 687 343 z "},"ћ":{"ha":735,"x_min":-4,"x_max":735,"o":"m 522 813 l 385 813 l 353 654 q 440 723 393 699 q 540 747 488 747 q 687 667 640 747 q 703 422 735 586 l 618 0 l 392 0 l 477 423 q 479 542 494 513 q 416 571 464 571 q 369 562 391 571 q 330 536 347 553 l 222 0 l -4 0 l 159 813 l 85 813 l 111 943 l 184 943 l 208 1058 l 434 1058 l 411 943 l 548 943 l 522 813 z "},"ќ":{"ha":755,"x_min":17,"x_max":831,"o":"m 351 256 l 294 256 l 243 0 l 17 0 l 163 734 l 390 734 l 337 470 l 394 470 l 543 734 l 831 734 l 573 395 l 704 0 l 397 0 l 351 256 m 525 1006 l 756 1006 l 758 1002 l 551 826 l 372 826 l 371 829 l 525 1006 z "},"ѝ":{"ha":732,"x_min":-3,"x_max":768,"o":"m 541 734 l 768 734 l 621 0 l 394 0 l 469 374 l 465 376 l 224 0 l -3 0 l 144 734 l 371 734 l 296 360 l 300 359 l 541 734 m 595 825 l 412 825 l 260 1002 l 261 1005 l 492 1005 l 595 825 z "},"ў":{"ha":675,"x_min":-54,"x_max":767,"o":"m 338 337 l 342 336 l 526 734 l 767 734 l 330 -109 q 219 -244 281 -191 q 48 -296 158 -296 q 2 -292 21 -296 q -54 -279 -16 -288 l 7 -115 q 18 -118 14 -117 q 29 -119 22 -119 q 103 -103 75 -119 q 147 -56 132 -86 l 172 -9 l 87 734 l 328 734 l 338 337 m 715 1061 l 717 1057 q 632 908 705 964 q 450 853 559 853 q 289 911 346 853 q 250 1057 232 968 l 252 1061 l 414 1061 q 422 1008 409 1028 q 472 989 436 989 q 527 1009 506 989 q 553 1061 547 1030 l 715 1061 z "},"џ":{"ha":732,"x_min":-3,"x_max":768,"o":"m 370 734 l 258 176 l 429 176 l 540 734 l 768 734 l 621 0 l 422 0 l 373 -244 l 146 -244 l 195 0 l -3 0 l 144 734 l 370 734 z "},"Ѡ":{"ha":1274,"x_min":42,"x_max":1336,"o":"m 1336 987 l 1204 327 q 1061 70 1168 153 q 798 -14 953 -14 q 681 12 733 -14 q 597 88 629 38 q 484 11 548 36 q 348 -14 420 -14 q 123 77 205 -14 q 74 327 42 168 l 206 987 l 433 987 l 300 327 q 305 200 283 237 q 383 162 327 162 q 471 203 434 162 q 526 327 509 243 l 658 987 l 884 987 l 752 327 q 756 200 734 237 q 833 162 777 162 q 923 203 885 162 q 977 327 960 243 l 1109 987 l 1336 987 z "},"ѡ":{"ha":1107,"x_min":30,"x_max":1162,"o":"m 1162 734 l 1080 327 q 947 70 1045 153 q 707 -14 848 -14 q 602 9 648 -14 q 529 78 556 33 q 426 8 484 31 q 302 -14 369 -14 q 100 76 171 -14 q 62 327 30 167 l 143 734 l 370 734 l 288 327 q 282 199 270 235 q 337 162 294 162 q 413 202 382 162 q 461 327 444 242 l 543 734 l 769 734 l 688 327 q 682 198 669 234 q 743 162 694 162 q 808 202 781 162 q 853 327 836 241 l 935 734 l 1162 734 z "},"Ѣ":{"ha":815,"x_min":15,"x_max":818,"o":"m 518 736 l 390 736 l 371 642 l 486 642 q 730 554 642 642 q 790 325 818 465 q 643 85 759 170 q 358 0 527 0 l 15 0 l 162 736 l 81 736 l 106 865 l 188 865 l 212 987 l 440 987 l 416 865 l 544 865 l 518 736 m 336 466 l 278 176 l 393 176 q 503 220 454 176 q 564 326 551 263 q 548 429 577 391 q 451 466 518 466 l 336 466 z "},"ѣ":{"ha":740,"x_min":17,"x_max":742,"o":"m 526 733 l 391 733 l 353 546 l 452 546 q 666 470 591 546 q 719 273 742 393 q 593 71 692 142 q 343 0 494 0 l 17 0 l 163 733 l 79 733 l 105 863 l 189 863 l 229 1059 l 456 1059 l 416 863 l 551 863 l 526 733 m 318 370 l 279 175 l 378 175 q 454 203 423 175 q 494 275 484 231 q 484 345 503 320 q 417 370 466 370 l 318 370 z "},"Ѥ":{"ha":1157,"x_min":2,"x_max":1229,"o":"m 345 589 l 451 589 l 453 597 q 603 897 492 791 q 880 1002 715 1002 q 1138 905 1048 1002 q 1206 640 1229 807 l 1205 636 l 983 636 q 971 779 1000 731 q 859 826 943 826 q 748 763 797 826 q 680 599 700 701 l 677 589 l 915 589 l 880 412 l 642 412 l 638 391 q 645 222 616 281 q 749 163 673 163 q 861 208 819 163 q 924 347 903 254 l 1145 347 l 1147 343 q 1006 77 1105 167 q 736 -14 906 -14 q 475 101 573 -14 q 412 391 376 216 l 416 412 l 310 412 l 228 0 l 2 0 l 199 987 l 425 987 l 345 589 z "},"ѥ":{"ha":989,"x_min":3,"x_max":1006,"o":"m 317 434 l 370 434 q 504 664 408 580 q 743 747 600 747 q 938 669 869 747 q 982 456 1006 590 l 980 453 l 772 453 q 768 540 781 509 q 715 571 755 571 q 642 534 671 571 q 600 437 614 498 l 601 434 l 762 434 l 736 304 l 575 304 q 585 198 569 235 q 651 162 602 162 q 712 187 690 162 q 742 261 734 212 l 948 261 l 949 257 q 841 59 932 132 q 623 -14 751 -14 q 414 74 486 -14 q 350 304 342 161 l 292 304 l 231 0 l 3 0 l 150 734 l 378 734 l 317 434 z "},"Ѧ":{"ha":899,"x_min":-52,"x_max":831,"o":"m 567 248 l 525 248 l 475 0 l 296 0 l 345 248 l 309 248 l 186 0 l -52 0 l 465 987 l 585 987 l 585 987 l 587 987 l 708 987 l 831 0 l 592 0 l 567 248 m 382 396 l 552 396 l 524 672 l 520 673 l 382 396 z "},"ѧ":{"ha":750,"x_min":-54,"x_max":679,"o":"m 437 178 l 404 178 l 369 0 l 245 0 l 280 178 l 260 178 l 177 0 l -54 0 l 337 734 l 583 734 l 679 0 l 449 0 l 437 178 m 322 312 l 428 312 l 420 431 l 418 518 l 414 519 l 378 431 l 322 312 z "},"Ѩ":{"ha":1261,"x_min":17,"x_max":1181,"o":"m 321 396 l 505 396 l 815 987 l 936 987 l 936 987 l 937 987 l 1059 987 l 1181 0 l 943 0 l 918 248 l 876 248 l 826 0 l 646 0 l 696 248 l 660 248 l 536 0 l 298 0 l 427 247 l 292 247 l 243 0 l 17 0 l 214 987 l 440 987 l 321 396 m 733 396 l 903 396 l 875 672 l 871 673 l 733 396 z "},"ѩ":{"ha":1074,"x_min":-1,"x_max":1004,"o":"m 289 311 l 437 311 l 663 734 l 908 734 l 1004 0 l 774 0 l 762 178 l 730 178 l 694 0 l 570 0 l 606 178 l 585 178 l 503 0 l 272 0 l 367 178 l 262 178 l 227 0 l -1 0 l 146 734 l 374 734 l 289 311 m 648 312 l 753 312 l 746 431 l 744 518 l 740 519 l 703 431 l 648 312 z "},"Ѫ":{"ha":1148,"x_min":3,"x_max":1150,"o":"m 827 539 q 1038 452 970 528 q 1075 224 1105 376 l 1030 0 l 804 0 l 849 224 q 840 334 865 306 q 743 362 815 362 l 713 362 l 642 0 l 415 0 l 487 362 l 435 362 q 328 331 368 362 q 273 224 288 300 l 229 0 l 3 0 l 47 224 q 180 468 82 398 q 451 541 278 538 l 307 987 l 1150 987 l 827 539 m 649 600 l 653 600 l 789 808 l 597 808 l 649 600 z "},"ѫ":{"ha":954,"x_min":-1,"x_max":928,"o":"m -1 0 l 24 129 q 125 336 52 271 q 321 414 199 401 l 214 734 l 928 734 l 690 412 q 841 324 794 393 q 864 129 888 254 l 838 0 l 612 0 l 638 129 q 639 223 652 198 q 588 246 627 248 l 584 245 l 535 0 l 309 0 l 358 245 l 354 247 q 290 222 316 250 q 250 129 263 195 l 224 0 l -1 0 m 512 454 l 516 453 l 602 597 l 484 597 l 512 454 z "},"Ѭ":{"ha":1540,"x_min":27,"x_max":1541,"o":"m 393 0 l 438 224 q 457 299 446 264 q 484 363 469 334 l 326 363 l 253 0 l 27 0 l 224 987 l 450 987 l 361 542 l 841 542 l 698 987 l 1541 987 l 1218 539 q 1428 452 1361 528 q 1466 224 1495 376 l 1421 0 l 1195 0 l 1240 224 q 1231 334 1256 306 q 1134 362 1206 362 l 1104 362 l 1032 0 l 806 0 l 878 362 l 825 362 q 719 331 759 362 q 664 224 679 300 l 619 0 l 393 0 m 1040 600 l 1044 600 l 1179 808 l 987 808 l 1040 600 z "},"ѭ":{"ha":1332,"x_min":20,"x_max":1306,"o":"m 377 0 l 403 129 q 421 200 410 168 q 447 260 432 233 l 300 260 l 248 0 l 20 0 l 167 734 l 395 734 l 332 418 l 699 418 l 592 734 l 1306 734 l 1069 412 q 1220 324 1173 393 q 1242 129 1267 254 l 1217 0 l 991 0 l 1017 129 q 1018 223 1030 198 q 966 246 1005 248 l 962 245 l 913 0 l 688 0 l 736 245 l 732 247 q 668 222 694 250 q 629 129 642 195 l 603 0 l 377 0 m 890 454 l 895 453 l 981 597 l 862 597 l 890 454 z "},"Ѯ":{"ha":668,"x_min":-109,"x_max":760,"o":"m 361 987 q 604 926 526 987 q 655 734 682 865 q 589 586 637 642 q 468 502 542 530 q 581 414 545 471 q 602 277 617 356 q 471 58 572 130 q 215 -14 370 -14 l 177 -14 q 131 -31 149 -14 q 109 -75 113 -47 q 119 -135 100 -114 q 172 -173 138 -155 l 91 -304 q -67 -214 -26 -282 q -89 -39 -109 -146 q 5 120 -66 70 q 189 170 76 170 l 235 170 q 326 199 286 170 q 374 274 365 228 q 358 379 389 346 q 254 413 328 413 l 162 413 l 174 473 l 186 533 l 199 597 l 298 597 q 380 628 347 597 q 424 707 414 659 q 410 781 433 758 q 324 804 386 804 l 178 804 l 215 987 l 361 987 m 477 1223 l 554 1301 l 760 1301 l 758 1291 l 534 1114 l 376 1114 l 223 1292 l 225 1301 l 433 1301 l 477 1223 z "},"ѯ":{"ha":676,"x_min":-80,"x_max":720,"o":"m 314 734 q 552 686 474 734 q 610 536 631 638 q 561 428 597 471 q 468 363 525 386 q 562 299 532 339 q 581 206 591 260 q 468 41 559 96 q 234 -14 377 -14 l 203 -14 q 145 -31 168 -14 q 118 -75 123 -47 q 125 -135 110 -114 q 167 -173 140 -155 l 89 -290 q -39 -195 1 -262 q -64 -39 -80 -129 q 18 98 -44 55 q 178 141 79 141 l 219 141 q 311 162 272 141 q 357 217 351 184 q 339 280 366 260 q 252 300 312 300 l 144 300 l 150 332 l 169 427 l 284 427 q 346 450 321 427 q 378 510 371 473 q 362 562 385 545 q 283 578 339 578 l 135 578 l 165 734 l 314 734 m 437 949 l 514 1028 l 720 1028 l 718 1017 l 494 841 l 336 841 l 183 1019 l 185 1028 l 393 1028 l 437 949 z "},"Ѱ":{"ha":968,"x_min":61,"x_max":1086,"o":"m 633 433 l 636 431 q 732 497 693 441 q 793 657 772 554 l 859 987 l 1086 987 l 1020 657 q 871 361 981 464 q 595 243 761 259 l 547 0 l 321 0 l 369 242 q 138 367 215 258 q 98 657 61 477 l 163 987 l 389 987 l 323 657 q 321 494 301 549 q 402 430 342 439 l 406 430 l 518 987 l 744 987 l 633 433 z "},"ѱ":{"ha":1006,"x_min":22,"x_max":1013,"o":"m 700 734 l 591 189 l 595 187 q 706 266 663 208 q 767 412 749 325 q 781 569 781 489 q 771 734 781 648 l 972 734 q 1005 589 998 670 q 994 412 1013 507 q 852 126 958 237 q 551 -7 747 16 l 488 -324 l 262 -324 l 326 -4 q 96 122 171 22 q 57 398 22 222 l 124 734 l 351 734 l 283 396 q 285 248 264 298 q 359 184 307 197 l 363 184 l 473 734 l 700 734 z "},"Ѳ":{"ha":903,"x_min":45,"x_max":939,"o":"m 867 405 q 699 98 829 211 q 392 -14 570 -14 q 137 106 228 -14 q 81 405 45 227 l 117 583 q 285 889 155 776 q 593 1002 414 1002 q 847 881 756 1002 q 903 583 939 760 l 867 405 m 648 435 l 313 435 l 307 405 q 314 227 283 291 q 427 162 345 162 q 561 231 501 162 q 642 405 621 300 l 648 435 m 338 564 l 673 564 l 677 584 q 670 761 700 696 q 558 825 640 825 q 422 756 482 825 q 342 584 363 688 l 338 564 z "},"ѳ":{"ha":733,"x_min":16,"x_max":736,"o":"m 45 374 q 174 646 72 545 q 437 747 277 747 q 662 642 589 747 q 710 374 736 537 l 708 359 q 578 86 680 187 q 317 -14 475 -14 q 90 91 164 -14 q 43 359 16 195 l 45 374 m 409 571 q 330 532 361 571 q 286 431 299 494 l 287 427 l 490 427 q 477 533 496 496 q 409 571 459 571 m 345 162 q 420 197 390 162 q 465 294 450 233 l 463 298 l 262 298 q 275 197 256 232 q 345 162 294 162 z "},"Ѵ":{"ha":847,"x_min":147,"x_max":973,"o":"m 417 268 l 416 240 l 420 239 l 431 265 l 642 752 q 775 937 701 874 q 949 1000 848 1000 l 973 1000 l 935 817 l 910 817 q 865 795 888 817 q 832 743 842 772 l 494 0 l 250 0 l 147 987 l 384 987 l 417 268 z "},"ѵ":{"ha":674,"x_min":90,"x_max":769,"o":"m 313 302 l 311 248 l 315 248 l 334 302 l 406 500 q 537 685 464 622 q 709 748 610 748 q 742 745 726 748 q 769 737 758 743 l 718 564 q 704 565 716 564 q 685 566 691 566 q 637 544 661 566 q 602 491 613 522 l 381 0 l 151 0 l 90 734 l 329 734 l 313 302 z "},"Ѷ":{"ha":847,"x_min":147,"x_max":973,"o":"m 417 268 l 416 240 l 420 239 l 431 265 l 642 752 q 775 937 701 874 q 949 1000 848 1000 l 973 1000 l 935 817 l 910 817 q 865 795 888 817 q 832 743 842 772 l 494 0 l 250 0 l 147 987 l 384 987 l 417 268 m 529 1076 l 349 1076 l 207 1256 l 413 1256 l 529 1076 m 776 1076 l 593 1076 l 476 1256 l 684 1256 l 776 1076 z "},"ѷ":{"ha":674,"x_min":90,"x_max":769,"o":"m 313 302 l 311 248 l 315 248 l 334 302 l 406 500 q 537 685 464 622 q 709 748 610 748 q 742 745 726 748 q 769 737 758 743 l 718 564 q 704 565 716 564 q 685 566 691 566 q 637 544 661 566 q 602 491 613 522 l 381 0 l 151 0 l 90 734 l 329 734 l 313 302 m 435 917 l 255 917 l 113 1097 l 319 1097 l 435 917 m 682 917 l 500 917 l 382 1097 l 590 1097 l 682 917 z "},"Ѹ":{"ha":1567,"x_min":40,"x_max":1659,"o":"m 862 405 q 702 97 823 209 q 405 -14 581 -14 q 140 107 239 -14 q 75 405 40 228 l 111 583 q 269 890 151 779 q 562 1002 387 1002 q 830 880 728 1002 q 898 583 932 758 l 862 405 m 672 584 q 652 759 694 692 q 527 825 610 825 q 406 760 453 825 q 337 584 359 694 l 301 405 q 317 228 279 294 q 440 162 355 162 q 564 229 513 162 q 636 405 614 296 l 672 584 m 1230 337 l 1234 336 l 1417 734 l 1659 734 l 1221 -109 q 1111 -244 1173 -191 q 940 -296 1050 -296 q 894 -292 913 -296 q 838 -279 876 -288 l 899 -115 q 910 -118 906 -117 q 921 -119 914 -119 q 995 -103 967 -119 q 1039 -56 1023 -86 l 1064 -9 l 979 734 l 1219 734 l 1230 337 z "},"ѹ":{"ha":1409,"x_min":18,"x_max":1501,"o":"m 46 374 q 176 646 73 545 q 438 747 278 747 q 664 642 590 747 q 711 374 737 537 l 709 359 q 579 86 682 187 q 318 -14 477 -14 q 92 91 165 -14 q 44 359 18 195 l 46 374 m 271 359 q 270 213 254 263 q 346 162 285 162 q 435 215 401 162 q 483 359 468 269 l 485 374 q 485 519 500 467 q 410 571 470 571 q 320 516 354 571 q 273 374 286 462 l 271 359 m 1072 337 l 1076 336 l 1260 734 l 1501 734 l 1064 -109 q 954 -244 1015 -191 q 783 -296 892 -296 q 737 -292 755 -296 q 681 -279 718 -288 l 741 -115 q 753 -118 749 -117 q 764 -119 757 -119 q 838 -103 810 -119 q 882 -56 866 -86 l 907 -9 l 821 734 l 1062 734 l 1072 337 z "},"Ѻ":{"ha":903,"x_min":45,"x_max":938,"o":"m 867 405 q 707 97 828 209 q 456 -12 602 1 l 441 -90 l 313 -90 l 330 -6 q 145 106 219 17 q 81 405 45 228 l 117 583 q 274 890 156 779 q 528 1000 378 989 l 541 1065 l 670 1065 l 655 992 q 836 880 762 967 q 903 583 938 758 l 867 405 m 677 584 q 657 759 699 692 q 617 801 641 785 l 604 735 l 475 735 l 492 820 q 411 760 445 806 q 342 584 364 694 l 307 405 q 322 228 284 294 q 367 181 340 197 l 380 247 l 509 247 l 493 170 q 569 229 536 185 q 642 405 620 296 l 677 584 z "},"ѻ":{"ha":735,"x_min":18,"x_max":737,"o":"m 354 -85 l 226 -85 l 241 -7 q 92 90 145 14 q 44 359 18 195 l 46 374 q 176 646 73 545 q 397 745 264 734 l 412 816 l 540 816 l 524 737 q 663 642 612 715 q 711 374 737 537 l 709 359 q 579 86 682 187 q 368 -12 493 2 l 354 -85 m 271 359 q 269 212 254 263 q 281 189 273 199 l 293 252 l 421 252 l 408 183 q 435 215 422 196 q 483 359 468 269 l 485 374 q 485 519 500 467 q 481 528 484 524 l 475 492 l 347 492 l 359 557 q 320 516 337 544 q 273 374 286 462 l 271 359 z "},"Ѽ":{"ha":1275,"x_min":42,"x_max":1285,"o":"m 979 983 l 983 983 q 1204 896 1123 986 q 1254 646 1285 805 l 1190 327 q 1045 70 1155 154 q 780 -14 936 -14 q 669 9 719 -14 q 587 79 618 33 q 478 9 539 32 q 348 -14 417 -14 q 123 77 205 -14 q 74 327 42 168 l 138 646 q 281 902 172 819 q 543 983 391 986 l 547 981 l 513 811 q 421 770 461 811 q 365 646 381 728 l 300 327 q 305 200 283 237 q 383 162 327 162 q 471 203 434 162 q 526 327 509 243 l 571 553 l 783 553 l 737 327 q 739 199 719 236 q 815 162 759 162 q 906 203 866 162 q 962 327 945 244 l 1027 646 q 1022 773 1044 735 q 945 811 1000 811 l 979 983 m 1085 1152 l 1067 1061 l 1060 1061 q 889 1101 987 1061 q 764 1142 790 1142 q 717 1124 738 1142 q 690 1073 696 1107 l 688 1061 l 602 1061 l 606 1086 q 666 1199 622 1164 q 781 1233 709 1233 q 913 1192 819 1233 q 1078 1152 1008 1152 l 1085 1152 m 710 867 l 662 900 l 713 971 l 733 1073 l 849 1073 l 831 983 l 710 867 z "},"ѽ":{"ha":1084,"x_min":38,"x_max":1071,"o":"m 774 743 l 777 744 q 992 659 913 746 q 1040 420 1071 572 l 1019 313 q 887 66 985 147 q 653 -14 789 -14 q 564 9 604 -14 q 501 79 524 33 q 410 8 460 31 q 304 -14 360 -14 q 108 73 178 -14 q 68 313 38 160 l 90 420 q 228 666 123 585 q 481 743 334 746 l 485 741 l 451 571 q 368 533 404 571 q 317 420 332 495 l 295 313 q 291 197 279 231 q 338 167 302 163 l 342 166 q 397 203 371 163 q 441 327 424 243 l 459 418 l 670 418 l 652 327 q 643 199 633 236 q 687 167 652 163 l 691 166 q 749 200 722 163 q 792 313 777 237 l 814 420 q 810 536 830 501 q 739 571 790 571 l 774 743 m 953 922 l 935 831 l 928 831 q 756 872 855 831 q 632 913 658 913 q 585 895 606 913 q 558 844 564 878 l 555 831 l 469 831 l 475 857 q 534 969 490 935 q 648 1004 577 1004 q 781 963 686 1004 q 947 922 876 922 l 953 922 m 575 652 l 526 684 l 585 755 l 602 844 l 725 844 l 707 768 l 575 652 z "},"Ѿ":{"ha":1274,"x_min":42,"x_max":1336,"o":"m 517 1144 l 532 1220 l 1121 1220 l 1106 1144 l 866 1144 l 849 1058 l 728 1058 l 745 1144 l 517 1144 m 1336 987 l 1204 327 q 1061 70 1168 153 q 798 -14 953 -14 q 681 12 733 -14 q 597 88 629 38 q 484 11 548 36 q 348 -14 420 -14 q 123 77 205 -14 q 74 327 42 168 l 206 987 l 433 987 l 300 327 q 305 200 283 237 q 383 162 327 162 q 471 203 434 162 q 526 327 509 243 l 658 987 l 884 987 l 752 327 q 756 200 734 237 q 833 162 777 162 q 923 203 885 162 q 977 327 960 243 l 1109 987 l 1336 987 z "}}}
